<?xml version="1.0" standalone="no"?>
<!DOCTYPE svg PUBLIC "-//W3C//DTD SVG 20010904//EN"
 "http://www.w3.org/TR/2001/REC-SVG-20010904/DTD/svg10.dtd">
<svg version="1.0" xmlns="http://www.w3.org/2000/svg"
 width="435.000000pt" height="574.000000pt" viewBox="0 0 435.000000 574.000000"
 preserveAspectRatio="xMidYMid meet">

<g transform="translate(0.000000,574.000000) scale(0.100000,-0.100000)"
fill="#000000" stroke="none">
<path d="M4014 5583 c19 -23 19 -23 0 -45 l-19 -23 23 19 c22 19 22 19 45 0
l22 -19 -19 23 c-19 22 -19 22 0 45 l19 22 -22 -19 c-23 -19 -23 -19 -45 0
l-23 19 19 -22z"/>
<path d="M370 5555 c0 -28 4 -35 20 -35 23 0 27 28 5 36 -8 4 -15 11 -15 16 0
6 7 7 16 4 8 -3 12 -2 9 4 -15 24 -35 9 -35 -25z m30 -15 c0 -5 -4 -10 -10
-10 -5 0 -10 5 -10 10 0 6 5 10 10 10 6 0 10 -4 10 -10z"/>
<path d="M667 5583 c-14 -13 -7 -25 8 -13 8 7 22 10 30 6 9 -3 13 -2 10 4 -7
11 -38 13 -48 3z"/>
<path d="M741 5553 c1 -36 2 -36 8 -9 l6 29 14 -26 c20 -38 31 -34 30 11 -1
36 -1 37 -8 7 l-8 -30 -13 28 c-18 38 -30 34 -29 -10z"/>
<path d="M452 5545 c0 -16 2 -22 5 -12 2 9 2 23 0 30 -3 6 -5 -1 -5 -18z"/>
<path d="M473 5555 c-8 -23 0 -24 20 -3 14 15 15 18 2 18 -9 0 -18 -7 -22 -15z"/>
<path d="M555 5560 c-4 -6 -11 -8 -16 -5 -5 4 -9 -2 -9 -12 0 -12 8 -19 21
-20 16 -2 18 1 9 12 -7 8 -7 15 -1 19 13 8 34 -30 26 -47 -4 -6 1 -3 9 7 9 11
16 25 16 30 0 6 -4 5 -9 -3 -7 -11 -10 -9 -16 8 -7 23 -20 27 -30 11z"/>
<path d="M3268 5553 c12 -2 32 -2 45 0 12 2 2 4 -23 4 -25 0 -35 -2 -22 -4z"/>
<path d="M511 5534 c0 -11 3 -14 6 -6 3 7 2 16 -1 19 -3 4 -6 -2 -5 -13z"/>
<path d="M662 5540 c6 -19 37 -25 52 -10 8 8 7 10 -7 4 -9 -3 -25 0 -34 7 -14
12 -16 12 -11 -1z"/>
<path d="M191 5514 c0 -11 3 -14 6 -6 3 7 2 16 -1 19 -3 4 -6 -2 -5 -13z"/>
<path d="M130 2786 c0 -2391 2 -2646 16 -2660 23 -23 394 -24 394 -1 0 8 7 15
15 15 8 0 15 -7 15 -16 0 -10 7 -14 22 -12 29 4 35 28 9 35 -24 6 -29 33 -6
33 8 0 17 11 21 25 4 16 13 25 25 25 17 0 19 -8 19 -60 0 -50 3 -60 18 -60 9
0 209 -1 445 -3 336 -1 427 1 427 11 0 14 27 17 32 3 2 -5 17 -11 33 -13 l30
-3 3 62 3 63 120 0 c109 0 120 -2 117 -17 -2 -13 -15 -19 -48 -21 -26 -2 -48
-10 -53 -18 -4 -8 -15 -14 -22 -14 -8 0 -15 -7 -15 -15 0 -8 -7 -15 -15 -15
-8 0 -15 7 -15 15 0 8 7 15 15 15 8 0 15 9 15 20 0 13 -5 18 -15 14 -8 -4 -15
-12 -15 -20 0 -8 -6 -14 -14 -14 -14 0 -29 -37 -17 -44 17 -11 252 -9 263 2
15 15 35 15 40 2 2 -8 1053 -15 1476 -10 l22 0 0 285 c0 278 0 285 20 285 16
0 20 -7 20 -30 0 -21 4 -28 14 -24 8 3 17 0 21 -6 4 -7 -2 -14 -14 -17 -14 -4
-21 -13 -21 -30 0 -20 4 -24 20 -20 15 4 20 0 20 -14 0 -12 -7 -19 -20 -19
-15 0 -20 -7 -20 -25 0 -18 5 -25 20 -25 11 0 20 -7 20 -15 0 -8 -9 -15 -20
-15 -15 0 -20 -7 -20 -25 0 -18 5 -25 20 -25 11 0 20 -7 20 -15 0 -8 -9 -15
-20 -15 -15 0 -20 -7 -20 -29 0 -21 5 -28 17 -27 10 0 19 -7 21 -18 3 -15 0
-18 -17 -13 -18 4 -21 1 -21 -23 0 -20 5 -27 18 -26 9 0 17 -6 17 -14 0 -8 -8
-14 -17 -14 -13 1 -18 -6 -18 -27 0 -22 5 -29 20 -29 11 0 20 -7 20 -15 0 -13
41 -15 309 -15 268 0 312 2 325 16 14 14 16 269 16 2660 l0 2644 -300 0 c-258
0 -301 -2 -306 -15 -4 -8 -13 -15 -20 -15 -8 0 -17 7 -20 15 -9 23 -44 19 -44
-5 0 -14 7 -20 22 -20 31 0 10 -18 -30 -26 -31 -6 -32 -6 -32 30 l0 36 -1415
-2 -1416 -3 0 -242 c0 -235 0 -243 -19 -243 -18 0 -25 11 -21 33 1 5 -8 11
-19 14 -25 7 -26 29 -2 35 24 7 24 39 0 46 -10 2 -18 13 -18 24 0 13 5 18 14
15 23 -9 27 32 5 43 -22 12 -26 40 -5 40 8 0 16 6 19 13 6 16 -6 39 -19 37 -5
0 -10 6 -12 14 -2 9 3 16 11 16 17 0 26 19 20 38 -3 6 -11 12 -19 12 -21 0
-17 27 6 33 26 7 26 37 1 44 -11 3 -22 11 -25 19 -4 11 -46 14 -226 14 l-220
0 0 -2644z m440 2589 c0 -8 -7 -15 -15 -15 -8 0 -15 7 -15 15 0 8 7 15 15 15
8 0 15 -7 15 -15z m3009 -21 c34 -7 43 -34 11 -34 -18 0 -19 -7 -18 -72 0 -40
3 -67 5 -60 3 6 13 12 23 12 21 0 41 61 21 68 -33 11 3 54 37 45 19 -5 22 -12
22 -59 0 -47 2 -54 20 -54 11 0 20 -7 20 -15 0 -12 -13 -15 -55 -15 -30 0 -55
-4 -55 -10 0 -5 -9 -10 -20 -10 -13 0 -20 -7 -20 -20 0 -18 10 -25 33 -21 4 0
7 -8 7 -19 0 -13 -7 -20 -20 -20 -15 0 -20 -7 -20 -25 0 -18 5 -25 20 -25 11
0 20 -7 20 -15 0 -8 -9 -15 -20 -15 -15 0 -20 -7 -20 -25 0 -18 5 -25 20 -25
11 0 20 -7 20 -15 0 -8 -9 -15 -20 -15 -15 0 -20 -7 -20 -25 0 -18 5 -25 20
-25 11 0 20 -7 20 -15 0 -8 -9 -15 -21 -15 -16 0 -20 -5 -17 -27 2 -20 8 -27
21 -25 11 2 17 -4 17 -18 0 -13 -7 -20 -20 -20 -23 0 -28 -35 -6 -43 16 -6 36
11 36 30 0 7 7 13 15 13 8 0 15 -9 15 -20 0 -13 -7 -20 -20 -20 -29 0 -26 -38
4 -49 39 -15 47 -62 21 -125 -16 -38 -24 -43 -42 -25 -6 6 -19 9 -29 6 -17 -4
-17 -6 4 -12 27 -9 29 -35 2 -35 -15 0 -20 -7 -20 -25 0 -18 5 -25 20 -25 13
0 20 -7 20 -20 0 -13 -7 -20 -20 -20 -13 0 -20 -7 -20 -20 0 -13 7 -20 20 -20
13 0 20 -7 20 -19 0 -10 -9 -21 -20 -24 -11 -3 -20 -12 -20 -20 0 -8 9 -17 20
-20 11 -3 20 -12 20 -21 0 -9 -8 -16 -20 -16 -15 0 -20 -7 -20 -25 0 -18 5
-25 20 -25 11 0 20 -7 20 -15 0 -8 -9 -15 -20 -15 -11 0 -20 6 -20 14 0 8 -9
18 -20 21 -15 5 -20 15 -20 41 l0 34 -156 0 c-88 0 -164 -4 -175 -10 -16 -9
-19 -22 -19 -76 0 -60 2 -65 26 -74 28 -11 204 -14 253 -4 28 6 31 10 31 45 0
32 3 39 20 39 13 0 20 -7 20 -20 0 -13 7 -20 20 -20 11 0 20 -7 20 -15 0 -8 9
-15 21 -15 23 0 60 -18 71 -34 26 -39 -8 -116 -51 -116 -11 0 -23 -4 -26 -10
-3 -5 1 -10 9 -10 9 0 16 -9 16 -20 0 -11 -4 -20 -9 -20 -22 0 -1 -37 30 -52
54 -28 59 -41 59 -162 0 -61 -3 -120 -6 -132 -6 -21 -73 -64 -100 -64 -8 0
-14 -9 -14 -20 0 -27 36 -27 43 1 6 24 30 21 35 -4 2 -12 -3 -17 -17 -17 -14
0 -21 -6 -21 -19 0 -11 -2 -25 -3 -33 -2 -7 -2 -10 0 -5 9 14 43 7 43 -9 0 -9
9 -27 20 -41 26 -33 25 -65 -2 -108 -21 -32 -58 -48 -58 -25 0 6 -9 10 -20 10
-11 0 -20 -4 -20 -10 0 -5 9 -10 20 -10 11 0 20 -6 20 -14 0 -7 -9 -16 -20
-19 -27 -7 -27 -47 -1 -47 11 0 23 9 26 20 3 11 12 20 19 20 6 0 12 -9 13 -20
1 -14 -4 -20 -18 -20 -12 0 -19 -7 -19 -20 0 -13 -7 -20 -20 -20 -20 0 -25
-15 -14 -43 5 -14 8 -13 25 1 10 9 19 22 19 29 0 7 7 13 15 13 8 0 15 -9 15
-20 0 -13 -7 -20 -20 -20 -13 0 -20 -7 -20 -20 0 -14 -6 -20 -17 -18 -12 2
-19 -4 -21 -19 -2 -15 -10 -23 -23 -23 -18 0 -19 8 -19 134 l0 135 -42 5 c-24
3 -58 7 -77 8 -30 3 -36 8 -43 35 -9 34 -41 63 -69 63 -10 0 -20 13 -25 31
-12 41 -37 58 -58 40 -11 -9 -16 -31 -16 -70 0 -103 2 -101 -111 -101 l-99 0
0 339 0 339 23 6 c12 3 120 5 239 3 163 -1 220 1 229 11 32 31 -6 36 -252 37
-202 0 -241 2 -249 15 -11 16 -14 628 -4 654 5 14 35 16 229 16 135 0 244 5
274 12 l51 11 0 349 c0 192 4 348 9 348 5 0 23 -3 40 -6z m-110 -65 c38 -38
38 -47 2 -88 -32 -36 -55 -37 -95 -6 -37 28 -22 99 24 118 28 11 38 7 69 -24z
m379 14 c6 -6 12 -16 12 -22 0 -6 5 -11 10 -11 6 0 10 -16 10 -36 0 -19 -4
-33 -8 -30 -5 3 -15 -4 -22 -15 -19 -26 -59 -24 -92 5 -27 23 -40 76 -18 76 6
0 10 5 10 11 0 30 72 47 98 22z m165 8 c18 -2 5 -21 -15 -21 -13 0 -32 -7 -42
-15 -18 -14 -17 -15 22 -15 31 0 42 -4 42 -15 0 -8 7 -15 15 -15 8 0 15 -9 15
-20 0 -11 -7 -20 -15 -20 -8 0 -15 -4 -15 -10 0 -14 -94 -12 -108 2 -23 23
-11 118 14 118 8 0 14 3 14 8 0 6 31 7 73 3z m-3645 -18 c-5 -26 -38 -29 -38
-4 0 15 6 21 21 21 14 0 19 -5 17 -17z m202 2 c0 -8 -7 -15 -15 -15 -8 0 -15
7 -15 15 0 8 7 15 15 15 8 0 15 -7 15 -15z m3040 -39 c0 -3 -4 -8 -10 -11 -5
-3 -10 -1 -10 4 0 6 5 11 10 11 6 0 10 -2 10 -4z m-3040 -46 c0 -11 -7 -20
-15 -20 -8 0 -15 9 -15 20 0 11 7 20 15 20 8 0 15 -9 15 -20z m900 -245 c0
-193 -2 -225 -15 -225 -13 0 -15 32 -15 225 0 193 2 225 15 225 13 0 15 -32
15 -225z m660 0 c0 -193 -2 -225 -15 -225 -13 0 -15 32 -15 225 0 193 2 225
15 225 13 0 15 -32 15 -225z m660 0 c0 -218 -1 -225 -20 -225 -19 0 -20 7 -20
225 0 218 1 225 20 225 19 0 20 -7 20 -225z m-2220 165 c0 -11 -7 -20 -15 -20
-8 0 -15 9 -15 20 0 11 7 20 15 20 8 0 15 -9 15 -20z m3078 -3 c2 -10 -3 -17
-12 -17 -18 0 -29 16 -21 31 9 14 29 6 33 -14z m532 3 c0 -11 -7 -20 -15 -20
-8 0 -15 9 -15 20 0 11 7 20 15 20 8 0 15 -9 15 -20z m-3610 -85 c0 -8 -7 -15
-15 -15 -8 0 -15 7 -15 15 0 8 7 15 15 15 8 0 15 -7 15 -15z m3080 0 c0 -8 -6
-15 -14 -15 -17 0 -28 14 -19 24 12 12 33 6 33 -9z m-3080 -80 c0 -8 -7 -15
-15 -15 -8 0 -15 7 -15 15 0 8 7 15 15 15 8 0 15 -7 15 -15z m3080 0 c0 -8 -6
-15 -14 -15 -17 0 -28 14 -19 24 12 12 33 6 33 -9z m-3040 -40 c0 -8 -7 -15
-15 -15 -8 0 -15 7 -15 15 0 8 7 15 15 15 8 0 15 -7 15 -15z m90 -190 c0 -113
-4 -205 -9 -205 -56 0 -94 32 -51 43 12 3 20 14 20 26 0 14 -6 21 -20 21 -11
0 -20 6 -20 14 0 7 9 16 20 19 24 6 26 36 4 63 -13 16 -15 16 -10 2 3 -10 1
-18 -4 -18 -6 0 -10 9 -10 20 0 14 6 20 18 18 12 -2 17 4 17 22 0 18 -5 24
-17 22 -13 -2 -18 4 -18 18 0 14 5 20 18 18 12 -2 17 4 17 22 0 18 -5 25 -17
24 -25 -2 -23 32 2 39 11 3 20 12 20 21 0 9 8 16 20 16 19 0 20 -7 20 -205z
m2950 150 c0 -8 -6 -15 -14 -15 -17 0 -28 14 -19 24 12 12 33 6 33 -9z m-3242
-42 c-5 -26 -38 -29 -38 -4 0 15 6 21 21 21 14 0 19 -5 17 -17z m201 -5 c0
-13 -3 -17 -6 -10 -2 6 -9 10 -14 6 -5 -3 -9 2 -9 10 0 9 7 16 15 16 9 0 15
-9 14 -22z m3041 -38 c0 -11 -7 -20 -15 -20 -8 0 -15 9 -15 20 0 11 7 20 15
20 8 0 15 -9 15 -20z m290 0 c0 -13 -7 -20 -20 -20 -13 0 -20 7 -20 20 0 13 7
20 20 20 13 0 20 -7 20 -20z m-3330 -40 c0 -12 -7 -20 -17 -20 -15 0 -16 2 -3
10 13 9 13 11 0 20 -13 8 -12 10 3 10 10 0 17 -8 17 -20z m-4 -77 c-4 -25 -26
-28 -26 -4 0 12 6 21 14 21 8 0 13 -8 12 -17z m758 -69 c4 -15 4 -39 1 -55
l-7 -29 -166 0 c-156 0 -167 -1 -189 -22 -13 -12 -23 -32 -23 -44 0 -18 -8
-25 -39 -34 -21 -5 -42 -17 -45 -26 -3 -9 -6 -58 -6 -110 0 -104 15 -134 65
-134 20 0 25 -5 25 -25 0 -41 33 -65 90 -65 65 0 90 23 90 83 0 52 -16 76 -61
91 -32 10 -34 14 -34 56 l0 45 45 7 c48 7 241 0 250 -8 9 -9 6 -372 -3 -381
-11 -10 -375 -17 -434 -8 -39 6 -43 9 -53 44 -10 37 -40 61 -75 61 -10 0 -15
10 -15 29 0 33 -20 53 -56 57 l-24 3 0 -172 0 -173 40 4 c40 4 41 6 54 63 4
20 13 28 35 31 52 8 338 10 394 3 52 -7 54 -8 68 -48 12 -34 20 -42 47 -48 18
-4 35 -9 38 -11 3 -4 6 -279 4 -439 0 -33 -3 -36 -37 -45 -33 -8 -40 -15 -53
-51 l-14 -43 -236 0 -236 0 -14 43 c-13 36 -20 43 -52 51 -43 11 -40 -1 -43
191 -2 126 -2 125 -20 125 -12 0 -15 -41 -17 -276 -2 -152 -1 -279 2 -283 3
-4 13 -10 23 -14 16 -6 17 -29 17 -287 0 -273 0 -280 -20 -280 -12 0 -20 7
-20 16 0 9 -9 18 -20 21 -26 7 -26 29 0 36 12 3 20 14 20 26 0 14 -6 21 -20
21 -26 0 -26 26 1 33 27 7 24 54 -3 49 -26 -4 -23 29 3 35 24 7 23 48 -1 48
-8 0 -16 8 -18 18 -2 12 3 17 17 17 28 0 29 40 1 47 -26 7 -26 29 0 36 11 3
20 13 20 22 0 9 -9 19 -20 22 -23 6 -27 33 -6 33 20 0 29 16 21 40 -4 11 -12
17 -21 13 -9 -3 -14 2 -14 16 0 14 -6 21 -20 21 -26 0 -27 36 -1 43 14 3 18
11 14 25 -3 13 -11 18 -19 15 -9 -3 -14 2 -14 16 0 12 6 21 14 21 8 0 16 6 19
13 6 18 -3 37 -19 37 -21 0 -17 27 5 33 14 3 18 11 14 26 -3 12 -12 21 -19 21
-21 0 -17 27 5 33 23 6 18 47 -6 47 -9 0 -13 7 -11 18 2 9 9 16 15 15 6 -1 13
7 16 18 4 15 0 23 -14 26 -22 6 -26 43 -5 43 8 0 16 6 19 13 6 16 -6 40 -19
36 -5 -1 -10 4 -12 13 -2 9 6 18 18 21 11 3 20 12 20 20 0 8 9 17 20 20 11 3
20 13 20 22 0 9 -9 19 -20 22 -25 7 -26 29 -2 35 24 7 24 39 0 46 -24 6 -23
28 2 35 12 3 20 14 20 26 0 14 -6 21 -20 21 -13 0 -20 7 -20 19 0 12 7 18 17
17 12 0 19 7 21 22 3 17 -2 22 -17 22 -14 0 -21 6 -21 20 0 13 7 20 20 20 14
0 20 7 20 21 0 12 -8 23 -20 26 -11 3 -20 12 -20 19 0 8 9 14 20 14 14 0 20 7
20 21 0 12 -8 23 -20 26 -11 3 -20 11 -20 18 0 7 9 15 20 18 11 3 20 13 20 22
0 9 -9 19 -20 22 -11 3 -20 14 -20 24 0 12 -7 19 -20 19 -11 0 -20 7 -20 15 0
8 6 15 14 15 8 0 16 6 19 13 6 18 -3 37 -20 37 -8 0 -13 7 -11 18 2 9 10 17
18 17 8 0 16 10 18 23 3 17 -2 22 -17 22 -14 0 -21 6 -21 20 0 13 7 20 20 20
27 0 27 40 0 47 -25 7 -26 19 0 33 11 6 19 16 17 23 -1 7 7 12 18 12 19 0 20
-8 23 -157 1 -87 6 -158 10 -158 4 0 6 35 6 79 -1 43 2 96 5 117 5 33 10 39
39 45 37 8 61 33 62 67 0 15 6 22 21 22 36 0 58 19 69 60 l11 40 238 0 239 0
6 -26z m578 -16 c11 -37 18 -44 51 -52 28 -7 37 -15 37 -30 1 -32 25 -58 62
-65 33 -7 33 -8 40 -76 11 -109 13 -703 3 -1037 -5 -163 -9 -198 -21 -198 -12
0 -14 28 -15 163 0 89 -3 170 -7 179 -10 25 -33 7 -41 -33 -6 -28 -12 -34 -40
-40 -37 -8 -49 -20 -57 -60 -4 -19 -14 -29 -33 -33 -40 -8 -52 -20 -60 -57 -7
-33 -8 -34 -59 -37 -49 -3 -52 -2 -52 21 0 33 -22 59 -60 72 -24 8 -36 20 -44
46 -8 26 -19 37 -45 45 -26 9 -38 20 -46 45 -11 33 -59 68 -73 54 -4 -4 -8
-87 -10 -186 -3 -147 -6 -179 -18 -179 -12 0 -14 36 -14 224 0 139 4 227 10
231 15 9 13 282 -2 287 -14 5 -18 442 -5 521 8 43 11 47 36 47 32 0 49 16 60
56 5 19 17 31 37 37 42 14 51 24 58 62 l7 35 144 0 143 0 14 -42z m468 25 c0
-34 25 -66 60 -77 25 -8 36 -18 38 -35 10 -70 82 -63 82 7 0 15 9 21 35 26 38
7 65 38 65 73 0 22 3 23 94 23 65 0 97 -4 103 -12 8 -14 13 -552 5 -625 -4
-41 -4 -41 -53 -48 -38 -5 -49 -11 -49 -25 0 -14 12 -20 58 -26 l57 -9 0 -50
0 -50 -220 -5 c-121 -3 -226 -9 -232 -13 -17 -11 -17 -129 -1 -145 8 -8 57
-12 154 -12 78 0 156 -3 173 -6 30 -6 31 -9 31 -55 0 -27 -5 -49 -10 -49 -7 0
-10 -32 -8 -87 l3 -88 55 -5 55 -5 0 -50 0 -50 -55 -5 -55 -5 -3 -37 c-2 -29
-8 -38 -22 -38 -14 0 -20 9 -22 38 l-3 37 -257 3 -257 2 -6 43 c-9 60 -2 624
8 634 5 4 122 8 260 8 l252 0 3 23 c3 18 -2 23 -26 28 -37 8 -42 30 -42 215 0
112 -3 139 -16 150 -27 22 -49 -1 -52 -57 -1 -27 -4 -64 -7 -81 -6 -32 -7 -33
-54 -33 -46 0 -49 1 -55 31 -3 17 -6 53 -6 79 0 54 -20 81 -48 63 -14 -9 -18
-36 -22 -181 -3 -94 -8 -173 -11 -177 -11 -11 -106 -18 -153 -11 l-46 7 0 333
c0 183 3 336 7 339 3 4 48 7 100 7 82 0 93 -2 93 -17z m-1800 -28 c0 -8 -7
-15 -15 -15 -8 0 -15 7 -15 15 0 8 7 15 15 15 8 0 15 -7 15 -15z m-280 -40 c0
-8 -9 -15 -20 -15 -11 0 -20 7 -20 15 0 8 9 15 20 15 11 0 20 -7 20 -15z m240
-45 c0 -5 -7 -10 -15 -10 -8 0 -15 5 -15 10 0 6 7 10 15 10 8 0 15 -4 15 -10z
m-2 -78 c2 -7 -3 -12 -12 -12 -9 0 -16 7 -16 16 0 17 22 14 28 -4z m3082 4 c0
-21 -21 -31 -30 -15 -5 7 -6 17 -4 21 9 14 34 9 34 -6z m-3080 -86 c0 -11 -7
-20 -15 -20 -8 0 -15 9 -15 20 0 11 7 20 15 20 8 0 15 -9 15 -20z m3078 3 c-5
-25 -28 -28 -28 -4 0 12 6 21 16 21 9 0 14 -7 12 -17z m162 -3 c0 -11 -7 -20
-15 -20 -8 0 -15 9 -15 20 0 11 7 20 15 20 8 0 15 -9 15 -20z m-3240 -80 c0
-11 -7 -20 -15 -20 -15 0 -21 21 -8 33 12 13 23 7 23 -13z m3080 0 c0 -13 -7
-20 -20 -20 -19 0 -27 20 -13 33 13 14 33 6 33 -13z m-3320 -46 c0 -8 -9 -14
-20 -14 -22 0 -28 26 -7 33 16 6 27 -1 27 -19z m3320 -39 c0 -8 -9 -15 -20
-15 -20 0 -26 11 -13 23 12 13 33 7 33 -8z m-3040 -40 c0 -8 -7 -15 -15 -15
-8 0 -15 7 -15 15 0 8 7 15 15 15 8 0 15 -7 15 -15z m0 -80 c0 -8 -7 -15 -15
-15 -8 0 -15 7 -15 15 0 8 7 15 15 15 8 0 15 -7 15 -15z m-120 -46 c0 -25 -33
-22 -38 4 -2 12 3 17 17 17 15 0 21 -6 21 -21z m3530 1 c0 -13 -7 -20 -20 -20
-13 0 -20 7 -20 20 0 13 7 20 20 20 13 0 20 -7 20 -20z m-3410 -40 c0 -11 -7
-20 -15 -20 -8 0 -15 9 -15 20 0 11 7 20 15 20 8 0 15 -9 15 -20z m0 -80 c0
-11 -7 -20 -15 -20 -8 0 -15 9 -15 20 0 11 7 20 15 20 8 0 15 -9 15 -20z m0
-85 c0 -8 -7 -15 -15 -15 -8 0 -15 7 -15 15 0 8 7 15 15 15 8 0 15 -7 15 -15z
m-200 -41 c0 -8 -9 -14 -20 -14 -13 0 -20 7 -20 19 0 14 5 18 20 14 11 -3 20
-12 20 -19z m200 -39 c0 -8 -7 -15 -15 -15 -8 0 -15 7 -15 15 0 8 7 15 15 15
8 0 15 -7 15 -15z m3204 -40 c-4 -8 -12 -15 -20 -15 -8 0 -14 7 -14 15 0 8 9
15 20 15 13 0 18 -5 14 -15z m-3614 -45 c0 -13 -5 -18 -15 -14 -8 4 -15 12
-15 20 0 8 7 14 15 14 8 0 15 -9 15 -20z m408 3 c-4 -22 -22 -20 -26 1 -2 10
3 16 13 16 10 0 15 -7 13 -17z m-38 -43 c0 -11 -7 -20 -15 -20 -8 0 -15 9 -15
20 0 11 7 20 15 20 8 0 15 -9 15 -20z m0 -80 c0 -11 -7 -20 -15 -20 -8 0 -15
9 -15 20 0 11 7 20 15 20 8 0 15 -9 15 -20z m-160 -40 c0 -13 -7 -20 -20 -20
-13 0 -20 7 -20 20 0 13 7 20 20 20 13 0 20 -7 20 -20z m160 -46 c0 -8 -7 -14
-15 -14 -8 0 -15 9 -15 20 0 13 5 18 15 14 8 -4 15 -12 15 -20z m3610 6 c0
-11 -7 -20 -15 -20 -8 0 -15 9 -15 20 0 11 7 20 15 20 8 0 15 -9 15 -20z
m-3610 -85 c0 -8 -7 -15 -15 -15 -8 0 -15 7 -15 15 0 8 7 15 15 15 8 0 15 -7
15 -15z m0 -80 c0 -8 -7 -15 -15 -15 -8 0 -15 7 -15 15 0 8 7 15 15 15 8 0 15
-7 15 -15z m-280 -32 c-1 -29 -40 -41 -40 -13 0 13 7 20 20 20 11 0 20 -3 20
-7z m3608 -10 c-5 -26 -38 -29 -38 -4 0 15 6 21 21 21 14 0 19 -5 17 -17z
m-3328 -41 c0 -10 -7 -19 -15 -19 -8 0 -15 9 -15 19 0 10 7 18 15 18 8 0 15
-8 15 -18z m0 -82 c0 -11 -7 -20 -15 -20 -8 0 -15 9 -15 20 0 11 7 20 15 20 8
0 15 -9 15 -20z m1118 -59 c3 -10 -3 -11 -27 -6 -20 4 -31 3 -31 -4 0 -6 11
-11 24 -11 30 0 40 -13 31 -40 -8 -25 -50 -27 -73 -4 -15 15 -13 16 15 10 19
-4 34 -3 38 3 3 7 -3 11 -15 11 -37 0 -66 42 -37 54 22 9 70 1 75 -13z m110 0
c3 -10 -1 -12 -18 -8 -30 8 -50 -1 -50 -23 0 -21 20 -31 49 -23 17 4 20 2 15
-11 -4 -9 -17 -16 -33 -16 -38 0 -59 39 -43 76 10 21 18 25 44 22 17 -2 34 -9
36 -17z m100 7 c7 -7 12 -24 12 -38 0 -14 -5 -31 -12 -38 -16 -16 -56 -15 -74
2 -17 18 -19 72 -1 79 23 10 63 7 75 -5z m110 -20 c2 -18 -1 -28 -9 -28 -10 0
-10 -3 -1 -12 17 -17 15 -28 -7 -28 -10 0 -22 8 -26 18 -6 16 -7 16 -16 0 -18
-32 -29 -19 -29 33 l0 50 43 -3 c38 -3 42 -6 45 -30z m112 22 c0 -5 -16 -10
-35 -10 -19 0 -35 -4 -35 -10 0 -5 14 -10 30 -10 17 0 30 -4 30 -10 0 -5 -13
-10 -30 -10 -16 0 -30 -4 -30 -10 0 -5 16 -10 35 -10 19 0 35 -4 35 -10 0 -5
-20 -10 -45 -10 l-45 0 0 50 0 50 45 0 c25 0 45 -4 45 -10z m320 1 c0 -6 -5
-13 -10 -16 -8 -5 -7 -11 0 -20 7 -8 9 -23 5 -35 -8 -24 -56 -28 -75 -5 -11
13 -8 14 19 9 36 -7 43 10 9 21 -14 4 -18 8 -10 12 17 7 15 23 -4 23 -8 0 -12
5 -9 10 8 13 75 13 75 1z m94 0 c3 -5 -9 -12 -27 -17 l-32 -8 31 -3 c53 -7 51
-63 -2 -63 -55 0 -73 39 -36 79 18 20 57 27 66 12z m114 -24 c4 -33 -22 -67
-50 -67 -27 0 -22 15 10 27 26 10 26 11 4 12 -24 1 -52 22 -52 39 0 14 20 21
55 19 25 -2 31 -7 33 -30z m104 1 c3 -18 3 -40 0 -50 -5 -22 -32 -24 -32 -3 0
9 -9 15 -25 15 -30 0 -32 19 -5 48 31 33 57 29 62 -10z m102 23 c3 -5 -9 -12
-27 -17 l-32 -8 31 -3 c53 -7 51 -63 -2 -63 -55 0 -73 39 -36 79 18 20 57 27
66 12z m-664 -26 c0 -8 -7 -15 -15 -15 -8 0 -15 7 -15 15 0 8 7 15 15 15 8 0
15 -7 15 -15z m1990 -5 c0 -11 -7 -20 -15 -20 -15 0 -21 21 -8 33 12 13 23 7
23 -13z m-1990 -35 c0 -8 -7 -15 -15 -15 -8 0 -15 7 -15 15 0 8 7 15 15 15 8
0 15 -7 15 -15z m-1580 -10 c0 -8 -7 -15 -15 -15 -8 0 -15 7 -15 15 0 8 7 15
15 15 8 0 15 -7 15 -15z m3040 -40 c0 -8 -6 -15 -14 -15 -17 0 -28 14 -19 24
12 12 33 6 33 -9z m-3040 -40 c0 -8 -7 -15 -15 -15 -8 0 -15 7 -15 15 0 8 7
15 15 15 8 0 15 -7 15 -15z m2920 -5 c0 -14 7 -20 21 -20 12 0 19 -5 16 -12
-2 -7 -12 -12 -21 -12 -12 1 -16 -7 -16 -31 0 -28 3 -32 20 -28 14 4 20 0 20
-11 0 -14 -11 -21 -32 -17 -5 0 -8 -12 -8 -28 0 -21 5 -28 18 -27 9 0 17 -6
17 -14 0 -8 -8 -14 -17 -14 -14 1 -18 -6 -18 -28 0 -22 4 -28 18 -26 10 2 17
-3 17 -12 0 -8 -8 -14 -17 -14 -13 1 -18 -6 -18 -27 0 -22 5 -29 20 -29 11 0
20 -7 20 -15 0 -8 -9 -15 -20 -15 -15 0 -20 -7 -20 -25 0 -18 5 -25 20 -25 11
0 20 -7 20 -15 0 -8 -9 -15 -20 -15 -15 0 -20 -7 -20 -25 0 -18 5 -25 20 -25
13 0 20 -7 20 -20 0 -22 -25 -28 -33 -7 -3 6 -6 -2 -6 -20 -1 -29 2 -32 39
-38 42 -7 57 -35 19 -35 -15 0 -20 -5 -17 -22 2 -16 9 -22 21 -20 11 2 17 -4
17 -18 0 -13 -7 -20 -20 -20 -15 0 -20 -7 -20 -25 0 -18 5 -25 20 -25 11 0 20
-7 20 -15 0 -8 -9 -15 -20 -15 -18 0 -20 -7 -20 -64 0 -55 3 -64 20 -69 11 -3
20 -10 20 -15 0 -6 -9 -14 -20 -17 -35 -11 -23 -52 13 -46 14 2 3 -32 -11 -37
-7 -2 -16 5 -19 17 -7 27 -43 28 -43 2 0 -11 9 -23 20 -26 11 -3 20 -11 20
-17 0 -5 -9 -12 -20 -15 -13 -3 -20 -14 -20 -29 0 -17 6 -24 20 -24 11 0 20
-7 20 -15 0 -8 -9 -15 -20 -15 -15 0 -20 -7 -20 -25 0 -18 5 -25 20 -25 11 0
20 -7 20 -15 0 -8 -9 -15 -20 -15 -15 0 -20 -7 -20 -25 0 -16 6 -25 16 -25 9
0 18 -9 21 -20 3 -11 14 -20 25 -20 13 0 18 -6 16 -17 -5 -27 -27 -27 -38 1
-12 33 -40 34 -40 2 0 -15 7 -26 20 -29 25 -6 27 -39 3 -35 -14 2 -19 -5 -21
-31 -3 -31 -2 -33 12 -22 9 8 17 11 17 7 1 -3 2 -9 3 -13 3 -20 18 -32 31 -26
9 3 15 -1 15 -10 0 -33 -30 -28 -43 6 -3 9 -13 17 -22 17 -12 0 -15 -14 -15
-70 0 -63 2 -70 20 -70 13 0 20 -7 20 -20 0 -13 7 -20 20 -20 11 0 20 -7 20
-15 0 -8 -9 -15 -20 -15 -15 0 -20 -7 -20 -25 0 -18 5 -25 20 -25 11 0 20 -6
20 -14 0 -7 -9 -16 -20 -19 -12 -3 -20 -14 -20 -26 0 -14 6 -21 20 -21 13 0
20 -7 20 -20 0 -13 -7 -20 -20 -20 -13 0 -20 -7 -20 -19 0 -10 9 -21 20 -24
11 -3 20 -12 20 -21 0 -9 -8 -16 -20 -16 -15 0 -20 -7 -20 -25 0 -18 5 -25 20
-25 11 0 20 -7 20 -15 0 -8 -9 -15 -20 -15 -15 0 -20 -7 -20 -25 0 -18 5 -25
20 -25 11 0 20 -7 20 -15 0 -8 -9 -15 -20 -15 -15 0 -20 -7 -20 -25 0 -18 5
-25 20 -25 11 0 20 -6 20 -14 0 -7 -9 -16 -20 -19 -12 -3 -20 -14 -20 -26 0
-14 -6 -21 -20 -21 -20 0 -20 7 -20 290 0 283 0 290 -20 290 -20 0 -20 7 -20
325 0 318 0 325 20 325 19 0 20 7 20 200 0 193 -1 200 -20 200 -20 0 -20 7
-20 310 0 303 0 310 20 310 13 0 20 -7 20 -20z m80 4 c0 -9 -7 -14 -17 -12
-25 5 -28 28 -4 28 12 0 21 -6 21 -16z m-2310 -19 c0 -8 9 -15 20 -15 11 0 20
7 20 15 0 8 5 15 10 15 6 0 10 -20 10 -45 0 -25 -4 -45 -10 -45 -5 0 -10 9
-10 20 0 13 -7 20 -20 20 -13 0 -20 -7 -20 -20 0 -11 -7 -20 -15 -20 -11 0
-15 12 -15 45 0 33 4 45 15 45 8 0 15 -7 15 -15z m170 5 c0 -5 -4 -10 -10 -10
-5 0 -10 -9 -10 -20 0 -11 5 -20 10 -20 6 0 10 -80 10 -220 0 -189 -2 -220
-15 -220 -13 0 -15 29 -15 205 l0 205 -25 0 c-14 0 -25 5 -25 10 0 6 7 10 15
10 21 0 19 40 -2 56 -16 12 -13 13 25 14 23 0 42 -4 42 -10z m105 1 c-6 -5
-21 -11 -35 -13 -29 -4 -35 -41 -7 -46 9 -2 17 1 17 7 0 6 -4 11 -10 11 -5 0
-10 5 -10 10 0 6 11 10 25 10 21 0 25 -5 25 -30 0 -27 -3 -30 -30 -30 -29 0
-70 25 -70 44 0 23 35 46 69 46 21 0 31 -4 26 -9z m45 -6 c0 -8 9 -15 20 -15
11 0 20 7 20 15 0 8 5 15 10 15 6 0 10 -20 10 -45 0 -25 -4 -45 -10 -45 -5 0
-10 9 -10 20 0 13 -7 20 -20 20 -13 0 -20 -7 -20 -20 0 -11 -7 -20 -15 -20
-11 0 -15 12 -15 45 0 33 4 45 15 45 8 0 15 -7 15 -15z m275 5 c4 -6 -9 -11
-32 -12 -36 -1 -36 -1 -6 -5 33 -4 46 -22 37 -48 -8 -20 -70 -20 -77 0 -5 11
0 13 23 8 19 -3 30 -1 30 6 0 6 -9 11 -21 11 -11 0 -28 7 -36 16 -14 13 -14
17 -2 25 19 12 76 11 84 -1z m105 0 c0 -5 -14 -10 -31 -10 -26 0 -30 -3 -27
-22 2 -18 9 -23 31 -21 18 1 27 -3 27 -13 0 -20 -49 -18 -72 3 -21 19 -23 38
-5 58 14 16 77 20 77 5z m111 -25 l7 -30 1 33 c1 33 1 33 49 30 40 -3 47 -6
50 -25 2 -17 -2 -23 -15 -23 -17 -1 -17 -1 0 -11 9 -5 17 -14 17 -19 0 -15
-48 -12 -52 2 -3 9 -9 8 -21 -4 -21 -21 -22 -74 -2 -94 8 -9 15 -24 15 -35 0
-11 -7 -22 -15 -25 -12 -5 -15 -30 -15 -135 0 -108 -2 -129 -15 -129 -12 0
-15 20 -15 116 0 92 -4 122 -17 145 -17 28 -17 31 0 60 9 17 17 44 17 60 0 26
-3 29 -34 29 -35 0 -46 12 -46 54 0 31 9 37 50 34 30 -3 36 -7 41 -33z m209
25 c0 -5 -15 -11 -32 -11 -28 -2 -29 -2 -8 -6 40 -7 48 -23 12 -23 -18 0 -32
-4 -32 -10 0 -5 14 -10 30 -10 17 0 30 -4 30 -10 0 -5 -20 -10 -45 -10 l-45 0
0 45 0 45 45 0 c25 0 45 -4 45 -10z m320 0 c0 -5 -6 -10 -12 -11 -10 0 -10 -2
0 -6 6 -2 12 -18 12 -34 0 -26 -3 -29 -34 -29 -18 0 -39 7 -47 16 -11 14 -9
15 24 9 25 -5 37 -4 37 4 0 6 -9 11 -21 11 -15 0 -19 5 -15 15 3 8 1 15 -4 15
-6 0 -10 5 -10 10 0 6 16 10 35 10 19 0 35 -4 35 -10z m100 0 c0 -5 -12 -11
-27 -11 -27 -2 -27 -2 -3 -6 13 -3 29 -11 35 -18 14 -18 71 -29 80 -16 3 7 -3
11 -15 11 -12 0 -29 7 -37 16 -14 13 -14 17 -2 25 8 5 30 8 49 7 28 -2 36 -8
38 -26 4 -28 -23 -62 -50 -62 -17 0 -19 -7 -17 -72 1 -40 2 -133 1 -205 -2
-126 -3 -133 -22 -133 -19 0 -20 7 -20 125 0 102 -3 125 -14 125 -8 0 -18 5
-22 12 -5 8 0 9 14 6 14 -4 22 -2 22 7 0 7 -9 15 -20 18 -11 3 -20 12 -20 20
0 9 9 19 20 22 15 5 20 15 20 43 0 37 0 37 -42 37 -39 0 -43 2 -46 27 -2 15 3
34 10 42 15 17 68 21 68 6z m220 -35 c0 -38 -3 -45 -20 -45 -11 0 -20 5 -20
10 0 6 -11 10 -25 10 -16 0 -25 6 -25 16 0 21 40 53 68 54 20 0 22 -5 22 -45z
m100 35 c0 -5 -12 -11 -27 -11 l-28 -2 26 -4 c17 -3 29 -12 33 -26 7 -29 -5
-39 -45 -35 -29 2 -35 7 -37 30 -2 15 3 34 10 42 15 17 68 21 68 6z m-662 -18
c2 -7 -6 -12 -17 -12 -21 0 -27 11 -14 24 9 9 26 2 31 -12z m2 -43 c0 -5 -9
-9 -20 -9 -22 0 -27 16 -7 23 15 5 27 -1 27 -14z m-1950 -8 c0 -14 -6 -19 -20
-18 -12 1 -20 8 -20 19 0 11 7 18 20 18 13 0 20 -7 20 -19z m160 4 c0 -8 -7
-15 -15 -15 -8 0 -15 7 -15 15 0 8 7 15 15 15 8 0 15 -7 15 -15z m3000 0 c0
-8 -9 -15 -20 -15 -20 0 -26 11 -13 23 12 13 33 7 33 -8z m288 -2 c-5 -26 -38
-29 -38 -4 0 15 6 21 21 21 14 0 19 -5 17 -17z m-3288 -83 c0 -11 -7 -20 -15
-20 -8 0 -15 9 -15 20 0 11 7 20 15 20 8 0 15 -9 15 -20z m2996 9 c3 -6 2 -15
-2 -19 -12 -12 -38 5 -30 19 9 14 23 14 32 0z m-2462 -24 c8 -8 17 -15 20 -15
3 0 6 7 6 15 0 8 7 15 15 15 11 0 15 -12 15 -45 0 -33 -4 -45 -15 -45 -8 0
-15 5 -15 11 0 11 -24 39 -34 39 -3 0 -6 -11 -6 -25 0 -14 -4 -25 -10 -25 -5
0 -10 20 -10 45 0 47 9 55 34 30z m161 5 c4 -6 -9 -11 -32 -11 -27 -1 -31 -3
-13 -6 40 -7 48 -23 12 -23 -47 0 -43 -28 6 -33 30 -3 28 -4 -15 -5 l-53 -2 0
45 0 45 44 0 c25 0 48 -4 51 -10z m46 -17 l2 -28 4 28 c2 15 9 27 14 27 5 0
10 -12 10 -27 l2 -28 4 28 c6 41 23 33 23 -11 0 -46 -6 -55 -31 -42 -11 7 -20
7 -24 0 -13 -22 -35 3 -35 41 0 47 29 57 31 12z m279 17 c0 -5 -7 -10 -15 -10
-10 0 -15 -11 -15 -35 0 -24 -5 -35 -15 -35 -10 0 -15 11 -15 35 0 19 -4 35
-10 35 -5 0 -10 5 -10 10 0 6 18 10 40 10 22 0 40 -4 40 -10z m98 -37 c3 -42
2 -43 -27 -43 -49 0 -61 9 -61 45 0 37 10 45 55 42 28 -2 30 -5 33 -44z m107
36 c4 -5 4 -21 1 -35 -5 -19 -13 -24 -36 -24 -17 0 -30 -4 -30 -10 0 -5 -4
-10 -10 -10 -5 0 -10 20 -10 45 l0 45 39 0 c22 0 43 -5 46 -11z m195 -28 c0
-22 5 -42 13 -44 6 -3 -6 -6 -28 -6 -27 0 -35 2 -26 8 9 6 12 19 8 39 -6 32
-2 42 20 42 9 0 13 -13 13 -39z m280 24 c0 -8 9 -15 20 -15 11 0 20 7 20 15 0
8 5 15 10 15 6 0 10 -20 10 -45 0 -46 -14 -61 -23 -25 -3 11 -12 20 -21 20 -9
0 -16 -8 -16 -20 0 -11 -7 -20 -15 -20 -11 0 -15 12 -15 45 0 33 4 45 15 45 8
0 15 -7 15 -15z m170 5 c0 -5 -4 -10 -9 -10 -17 0 -19 -50 -2 -60 12 -7 4 -9
-29 -9 -25 1 -37 3 -27 6 22 6 24 63 2 63 -8 0 -15 5 -15 10 0 6 18 10 40 10
22 0 40 -4 40 -10z m110 0 c0 -5 -9 -10 -19 -10 -33 0 -51 -11 -51 -31 0 -10
2 -19 4 -19 2 0 11 -3 20 -6 11 -4 16 -1 16 10 0 9 -5 16 -12 16 -9 0 -9 3 -1
11 18 18 43 2 43 -26 0 -22 -4 -25 -32 -25 -35 1 -68 19 -68 38 0 25 35 52 67
52 18 0 33 -4 33 -10z m40 -5 c0 -8 9 -15 20 -15 11 0 20 7 20 15 0 8 5 15 10
15 6 0 10 -20 10 -45 0 -46 -14 -61 -23 -25 -3 11 -12 20 -21 20 -9 0 -16 -8
-16 -20 0 -11 -7 -20 -15 -20 -11 0 -15 12 -15 45 0 33 4 45 15 45 8 0 15 -7
15 -15z m278 -4 c3 -10 -1 -12 -18 -8 -30 8 -50 -1 -50 -23 0 -22 20 -31 51
-23 15 4 20 3 15 -5 -16 -26 -96 -4 -96 26 0 7 8 21 18 32 19 24 72 24 80 1z
m100 -28 c3 -42 2 -43 -27 -43 -49 0 -61 9 -61 45 0 37 10 45 55 42 28 -2 30
-5 33 -44z m110 23 c2 -10 -2 -22 -9 -27 -10 -6 -10 -10 0 -23 12 -14 11 -16
-6 -16 -10 0 -25 6 -32 13 -11 10 -14 10 -18 0 -10 -28 -23 -10 -23 33 l0 45
42 -3 c33 -2 44 -8 46 -22z m112 14 c0 -5 -17 -11 -37 -11 -28 -1 -31 -3 -13
-6 40 -7 48 -23 12 -23 -47 0 -43 -28 6 -33 30 -3 28 -4 -15 -5 l-53 -2 0 38
c0 21 3 42 7 45 10 11 93 8 93 -3z m80 -2 c0 -30 -13 -58 -26 -58 -9 0 -14 12
-14 35 0 28 4 35 20 35 11 0 20 -6 20 -12z m-2700 -68 c0 -11 -7 -20 -15 -20
-8 0 -15 9 -15 20 0 11 7 20 15 20 8 0 15 -9 15 -20z m2998 -3 c2 -10 -3 -17
-12 -17 -18 0 -29 16 -21 31 9 14 29 6 33 -14z m-315 -4 c-7 -2 -19 -2 -25 0
-7 3 -2 5 12 5 14 0 19 -2 13 -5z m-3013 -57 c0 -2 3 -11 6 -20 4 -12 0 -16
-15 -16 -14 0 -21 6 -21 20 0 11 7 20 15 20 8 0 15 -2 15 -4z m330 -21 c0 -8
-7 -15 -15 -15 -8 0 -15 7 -15 15 0 8 7 15 15 15 8 0 15 -7 15 -15z m3000 0
c0 -8 -9 -15 -20 -15 -20 0 -26 11 -13 23 12 13 33 7 33 -8z m-3000 -80 c0 -8
-7 -15 -15 -15 -8 0 -15 7 -15 15 0 8 7 15 15 15 8 0 15 -7 15 -15z m3000 0
c0 -8 -9 -15 -20 -15 -11 0 -20 7 -20 15 0 8 9 15 20 15 11 0 20 -7 20 -15z
m-2955 -37 c3 -13 4 -134 3 -271 l-3 -247 23 0 22 0 0 -284 c0 -279 0 -285
-20 -288 -20 -3 -21 -9 -21 -275 1 -150 1 -280 1 -288 0 -8 9 -15 20 -15 20 0
20 -7 20 -285 0 -278 0 -285 -20 -285 -13 0 -20 7 -20 20 0 13 -7 20 -20 20
-13 0 -20 7 -20 20 0 13 7 20 20 20 14 0 20 7 20 21 0 12 -8 23 -20 26 -11 3
-20 12 -20 19 0 8 9 14 20 14 14 0 20 7 20 21 0 12 -8 23 -20 26 -26 7 -26 29
0 36 26 7 26 37 0 44 -26 7 -26 29 0 36 12 3 20 14 20 26 0 14 -6 21 -20 21
-13 0 -20 7 -20 20 0 13 7 20 20 20 13 0 20 7 20 20 0 13 -7 20 -20 20 -13 0
-20 7 -20 20 0 13 7 20 20 20 14 0 20 7 20 21 0 12 -8 23 -20 26 -25 7 -26 23
-2 24 9 1 0 6 -20 11 -21 6 -38 16 -38 24 0 17 20 19 21 2 1 -7 4 -2 8 12 9
31 3 50 -15 50 -8 0 -14 7 -14 15 0 8 6 15 14 15 8 0 16 6 19 13 6 18 -3 37
-19 37 -8 0 -14 9 -14 20 0 21 20 29 20 8 0 -8 5 -6 10 4 12 20 3 48 -16 48
-8 0 -14 9 -14 20 0 11 6 20 14 20 8 0 17 4 20 9 9 14 -4 41 -20 41 -22 0 -17
27 6 33 26 7 26 37 0 44 -25 7 -26 29 -2 35 10 3 19 13 19 23 0 10 -9 20 -19
23 -24 6 -23 28 3 35 13 3 19 12 17 24 -2 12 4 19 20 21 29 4 31 42 2 42 -13
0 -20 7 -20 20 0 14 6 20 18 18 11 -2 18 4 20 20 3 17 -2 22 -17 22 -14 0 -21
6 -21 20 0 14 6 20 18 18 12 -2 17 4 17 22 0 18 -5 25 -17 24 -12 -1 -18 5
-18 18 0 14 5 18 14 15 9 -4 17 2 21 13 8 24 -1 40 -21 40 -21 0 -17 27 6 33
12 3 20 14 20 26 0 14 -6 21 -20 21 -11 0 -20 6 -20 14 0 7 9 16 20 19 12 3
20 14 20 26 0 14 -6 21 -20 21 -13 0 -20 7 -20 20 0 14 7 20 21 20 16 0 20 5
17 23 -2 12 -9 21 -16 19 -7 -1 -17 9 -22 23 -6 16 -14 23 -25 19 -10 -4 -15
0 -15 15 0 12 6 21 14 21 16 0 25 19 19 38 -3 6 -11 12 -19 12 -8 0 -14 7 -14
15 0 8 6 15 14 15 16 0 29 27 20 41 -3 5 -12 9 -20 9 -21 0 -17 27 6 33 12 3
20 14 20 26 0 14 -6 21 -20 21 -13 0 -20 7 -20 20 0 12 5 17 14 14 15 -6 28
19 20 40 -3 8 -12 12 -20 9 -8 -3 -14 1 -14 11 0 9 7 16 15 16 8 0 15 4 15 10
0 5 -7 7 -15 4 -10 -4 -15 0 -15 14 0 11 8 22 18 24 10 3 19 13 19 23 0 10 -9
20 -19 23 -25 6 -23 28 3 35 14 4 20 11 16 21 -5 13 5 23 25 25 4 1 10 -9 13
-21z m3285 -3 c0 -8 -9 -15 -20 -15 -11 0 -20 7 -20 15 0 8 9 15 20 15 11 0
20 -7 20 -15z m-330 -40 c0 -8 -9 -15 -20 -15 -20 0 -26 11 -13 23 12 13 33 7
33 -8z m-3040 -45 c0 -11 -7 -20 -15 -20 -8 0 -15 9 -15 20 0 11 7 20 15 20 8
0 15 -9 15 -20z m3040 -34 c0 -8 -4 -17 -8 -20 -13 -8 -35 11 -28 23 10 16 36
14 36 -3z m-3282 -48 c-7 -19 -38 -22 -38 -4 0 10 9 16 21 16 12 0 19 -5 17
-12z m3612 -3 c0 -8 -9 -15 -20 -15 -11 0 -20 7 -20 15 0 8 9 15 20 15 11 0
20 -7 20 -15z m-3370 -35 c0 -11 -7 -20 -15 -20 -8 0 -15 9 -15 20 0 11 7 20
15 20 8 0 15 -9 15 -20z m1737 14 c-3 -3 -12 -4 -19 -1 -8 3 -5 6 6 6 11 1 17
-2 13 -5z m233 -44 c0 -38 4 -50 15 -50 11 0 15 -12 15 -45 0 -31 5 -47 15
-51 43 -17 -1 -24 -150 -24 -113 0 -165 3 -165 11 0 6 9 13 20 16 17 4 20 14
20 54 0 37 4 49 15 49 8 0 16 9 16 20 1 11 3 25 4 30 1 6 3 17 4 25 1 12 19
15 96 15 l95 0 0 -50z m60 35 c0 -8 9 -15 20 -15 13 0 20 -7 20 -20 0 -11 7
-20 15 -20 13 0 15 -47 15 -360 0 -313 -2 -360 -15 -360 -8 0 -15 -7 -15 -15
0 -8 -7 -15 -16 -15 -9 0 -18 -8 -20 -17 -5 -16 -21 -18 -162 -18 -141 0 -157
2 -160 18 -2 9 -12 17 -23 17 -10 0 -19 7 -19 15 0 8 -7 15 -15 15 -13 0 -15
47 -15 359 0 350 0 359 20 364 11 3 20 12 20 21 0 9 3 16 8 16 4 0 16 3 27 6
17 4 20 0 22 -31 2 -25 -1 -35 -12 -35 -11 0 -15 -12 -15 -50 0 -43 -3 -50
-20 -50 -18 0 -20 -7 -20 -70 l0 -70 206 0 205 0 -2 58 c-3 68 -7 82 -25 82
-10 0 -14 13 -14 46 0 38 -4 47 -21 51 -15 4 -19 11 -15 27 3 11 6 31 6 44 0
12 5 22 10 22 6 0 10 -7 10 -15z m1050 -5 c0 -11 -6 -20 -14 -20 -18 0 -29 16
-21 30 11 18 35 11 35 -10z m-4 -97 c-3 -3 -13 -2 -23 1 -17 7 -17 8 2 22 18
13 20 13 23 -1 2 -9 1 -19 -2 -22z m-3076 12 c0 -8 -7 -15 -15 -15 -8 0 -15 7
-15 15 0 8 7 15 15 15 8 0 15 -7 15 -15z m0 -80 c0 -8 -7 -15 -15 -15 -8 0
-15 7 -15 15 0 8 7 15 15 15 8 0 15 -7 15 -15z m3080 0 c0 -8 -6 -15 -14 -15
-8 0 -16 7 -20 15 -4 10 1 15 14 15 11 0 20 -7 20 -15z m160 0 c0 -8 -7 -15
-15 -15 -8 0 -15 7 -15 15 0 8 7 15 15 15 8 0 15 -7 15 -15z m-2340 -245 c0
-189 -2 -220 -15 -220 -13 0 -15 31 -15 220 0 189 2 220 15 220 13 0 15 -31
15 -220z m660 0 c0 -189 -2 -220 -15 -220 -13 0 -15 31 -15 220 0 189 2 220
15 220 13 0 15 -31 15 -220z m660 15 c0 -171 -2 -205 -14 -205 -8 0 -17 -8
-19 -17 -3 -10 -5 82 -6 205 -1 216 0 222 19 222 19 0 20 -7 20 -205z m820
190 c0 -8 -8 -15 -17 -14 -11 0 -13 3 -5 6 6 2 10 9 6 14 -3 5 0 9 5 9 6 0 11
-7 11 -15z m-3040 -40 c0 -8 -7 -15 -15 -15 -8 0 -15 7 -15 15 0 8 7 15 15 15
8 0 15 -7 15 -15z m3080 0 c0 -8 -9 -15 -20 -15 -11 0 -20 7 -20 15 0 8 9 15
20 15 11 0 20 -7 20 -15z m-3325 -45 c0 -8 -8 -16 -17 -18 -13 -2 -18 3 -18
18 0 15 5 20 18 18 9 -2 17 -10 17 -18z m3325 -40 c0 -11 -6 -20 -14 -20 -18
0 -29 16 -21 30 11 18 35 11 35 -10z m-3040 -40 c0 -11 -7 -20 -15 -20 -8 0
-15 9 -15 20 0 11 7 20 15 20 8 0 15 -9 15 -20z m-2 -83 c2 -10 -3 -17 -12
-17 -10 0 -16 9 -16 21 0 24 23 21 28 -4z m1262 13 c0 -5 -20 -10 -45 -10 -33
0 -45 -4 -45 -15 0 -8 -4 -15 -10 -15 -5 0 -10 7 -10 15 0 8 -7 15 -14 15 -23
0 -66 -45 -66 -69 0 -11 -4 -21 -10 -21 -5 0 -10 25 -10 55 l0 55 105 0 c63 0
105 -4 105 -10z m1738 -13 c2 -12 -3 -17 -17 -17 -12 0 -21 6 -21 13 0 31 32
34 38 4z m-1628 -11 c0 -11 -19 -15 -25 -6 -3 5 1 10 9 10 9 0 16 -2 16 -4z
m-1492 -29 c2 -12 -3 -17 -17 -17 -12 0 -21 6 -21 13 0 31 32 34 38 4z m3532
3 c0 -13 -7 -20 -20 -20 -19 0 -27 20 -13 33 13 14 33 6 33 -13z m-2270 -10
c0 -5 -4 -10 -10 -10 -5 0 -10 5 -10 10 0 6 5 10 10 10 6 0 10 -4 10 -10z
m-1140 -35 c0 -8 -7 -15 -15 -15 -8 0 -15 7 -15 15 0 8 7 15 15 15 8 0 15 -7
15 -15z m967 -52 c-2 -16 -4 -5 -4 22 0 28 2 40 4 28 2 -13 2 -35 0 -50z m401
16 c-2 -19 -7 -33 -13 -32 -12 3 -19 49 -10 71 10 26 27 -2 23 -39z m1632 36
c0 -8 -9 -15 -20 -15 -20 0 -26 11 -13 23 12 13 33 7 33 -8z m-1930 -65 c0 -5
-2 -10 -4 -10 -3 0 -8 5 -11 10 -3 6 -1 10 4 10 6 0 11 -4 11 -10z m-1073 -15
c0 -8 -6 -15 -14 -15 -7 0 -13 7 -13 15 0 8 6 15 13 15 8 0 14 -7 14 -15z
m3003 0 c0 -8 -9 -15 -20 -15 -11 0 -20 7 -20 15 0 8 9 15 20 15 11 0 20 -7
20 -15z m-707 -45 c3 -14 14 -20 32 -20 18 0 29 6 32 20 4 14 14 20 34 20 l29
0 0 -115 0 -115 -30 0 -30 0 0 85 c0 78 -2 85 -20 85 -11 0 -20 -7 -20 -15 0
-8 -7 -15 -15 -15 -12 0 -15 -14 -15 -70 l0 -70 -29 0 c-35 0 -61 9 -61 21 0
5 7 9 15 9 8 0 15 9 15 20 0 11 -7 20 -15 20 -12 0 -15 13 -15 59 0 43 4 60
15 65 8 3 15 12 15 21 0 24 56 20 63 -5z m-2293 -41 c0 -24 -23 -21 -28 4 -2
10 3 17 12 17 10 0 16 -9 16 -21z m2120 -19 c0 -5 -4 -10 -10 -10 -5 0 -10 5
-10 10 0 6 5 10 10 10 6 0 10 -4 10 -10z m400 0 c0 -5 -4 -10 -10 -10 -5 0
-10 5 -10 10 0 6 5 10 10 10 6 0 10 -4 10 -10z m-2720 -20 c0 -13 -7 -20 -20
-20 -13 0 -20 7 -20 20 0 13 7 20 20 20 13 0 20 -7 20 -20z m1400 10 c0 -6
-33 -10 -80 -10 -64 0 -80 -3 -80 -15 0 -8 -4 -15 -10 -15 -5 0 -10 11 -10 25
0 25 1 25 90 25 53 0 90 -4 90 -10z m70 6 c0 -3 -4 -8 -10 -11 -5 -3 -10 -1
-10 4 0 6 5 11 10 11 6 0 10 -2 10 -4z m-1270 -56 c0 -11 -7 -20 -15 -20 -8 0
-15 9 -15 20 0 11 7 20 15 20 8 0 15 -9 15 -20z m3000 6 c0 -8 -5 -18 -11 -22
-14 -8 -33 11 -25 25 10 16 36 13 36 -3z m-880 -46 c0 -22 -4 -40 -10 -40 -5
0 -10 18 -10 40 0 22 5 40 10 40 6 0 10 -18 10 -40z m400 0 c0 -22 -4 -40 -10
-40 -5 0 -10 18 -10 40 0 22 5 40 10 40 6 0 10 -18 10 -40z m680 0 c0 -11 -7
-20 -15 -20 -8 0 -15 9 -15 20 0 11 7 20 15 20 8 0 15 -9 15 -20z m-3610 -40
c0 -11 -7 -20 -15 -20 -8 0 -15 9 -15 20 0 11 7 20 15 20 8 0 15 -9 15 -20z
m408 -3 c2 -10 -3 -17 -12 -17 -10 0 -16 9 -16 21 0 24 23 21 28 -4z m-38 -37
c0 -11 -7 -20 -15 -20 -27 0 -18 30 13 39 1 1 2 -8 2 -19z m1921 -33 c-10 -9
-11 -8 -5 6 3 10 9 15 12 12 3 -3 0 -11 -7 -18z m1119 -13 c0 -17 -26 -19 -36
-3 -7 12 15 31 28 23 4 -3 8 -12 8 -20z m-2139 -51 c1 -47 3 -59 8 -38 4 21
12 30 26 30 18 0 20 -7 21 -63 0 -52 -3 -65 -18 -73 -15 -8 -20 -5 -28 13 -6
17 -9 5 -9 -49 -1 -59 2 -73 14 -73 8 0 15 5 15 10 0 16 62 11 82 -7 24 -21
23 -33 -2 -33 -11 0 -20 5 -20 10 0 15 -29 12 -46 -4 -27 -27 -7 -76 30 -76 9
0 16 5 16 10 0 6 9 10 20 10 24 0 25 -6 6 -26 -17 -17 -83 -19 -88 -3 -3 8
-10 8 -26 -2 -19 -12 -24 -12 -31 0 -6 9 -11 10 -15 2 -11 -17 -95 -14 -112 4
-14 13 -14 16 1 21 9 4 21 2 28 -5 18 -18 57 -14 57 7 0 15 -7 18 -32 17 -32
-3 -68 18 -68 38 0 26 34 47 77 47 23 0 43 -4 43 -10 0 -5 5 -10 10 -10 6 0 9
36 8 93 -1 50 -3 76 -5 56 -3 -26 -10 -38 -24 -42 -18 -5 -19 0 -19 69 0 75 9
91 38 62 9 -9 12 -2 12 35 0 35 4 47 15 47 12 0 15 -15 16 -67z m659 -83 l0
-150 45 0 c33 0 45 -4 45 -15 0 -11 -12 -15 -45 -15 -33 0 -45 -4 -45 -15 0
-11 11 -15 36 -15 24 0 34 -4 31 -12 -2 -7 -17 -13 -33 -13 -19 0 -30 -6 -32
-17 -3 -15 4 -18 42 -18 25 0 46 -4 46 -9 0 -9 -119 -22 -132 -14 -12 6 -10
131 2 138 6 4 10 67 10 156 0 126 2 149 15 149 13 0 15 -23 15 -150z m-1560
95 c0 -8 -7 -15 -15 -15 -8 0 -15 7 -15 15 0 8 7 15 15 15 8 0 15 -7 15 -15z
m2460 -2 c0 -7 5 -13 11 -13 33 0 54 -83 22 -86 -7 -1 -16 -2 -20 -3 -3 0 4
-9 15 -20 28 -23 28 -29 0 -33 -21 -3 -23 -9 -26 -80 l-3 -78 -29 0 -30 0 0
73 c0 40 -5 78 -11 84 -6 6 -9 39 -7 81 3 67 2 70 -20 70 -31 -1 -37 -14 -18
-43 21 -31 21 -101 1 -109 -11 -4 -15 -21 -15 -65 0 -72 -6 -91 -31 -91 -15 0
-19 -7 -19 -35 0 -28 -4 -35 -20 -35 -11 0 -20 5 -20 12 0 14 -40 58 -52 58
-4 0 -8 -16 -8 -35 0 -28 -4 -35 -20 -35 -18 0 -20 7 -20 70 0 80 9 86 54 40
36 -37 50 -38 43 -4 -3 20 0 28 14 31 15 4 19 15 19 49 0 40 -2 44 -25 44 -23
0 -25 3 -25 48 0 36 5 50 20 60 29 18 27 44 -2 33 -13 -5 -22 -14 -20 -20 1
-6 -11 -11 -28 -11 -30 0 -30 -1 -30 -55 0 -48 -2 -55 -20 -55 -18 0 -20 7
-20 55 0 49 -2 55 -21 55 -12 0 -19 5 -17 12 3 7 28 14 58 16 30 1 57 7 60 11
10 16 36 19 148 18 86 0 112 -3 112 -14z m-1840 -28 c0 -8 -8 -15 -17 -15 -25
0 -24 -83 1 -88 32 -7 16 -27 -22 -27 l-37 0 -3 59 c-2 32 -1 65 2 72 8 20 76
19 76 -1z m178 -2 c2 -9 -11 -13 -47 -13 -39 0 -51 -4 -51 -15 0 -11 11 -15
41 -15 52 0 48 -24 -4 -28 -24 -2 -37 -8 -37 -18 0 -10 13 -14 51 -14 36 0 49
-4 46 -12 -3 -12 -40 -14 -119 -9 -15 1 -18 11 -18 71 l0 71 67 -3 c42 -2 68
-8 71 -15z m312 2 c0 -8 -9 -15 -20 -15 -18 0 -20 -7 -20 -60 0 -53 -2 -60
-20 -60 -18 0 -20 7 -20 60 0 53 -2 60 -20 60 -20 0 -26 11 -13 23 3 4 30 7
60 7 40 0 53 -4 53 -15z m142 -2 c25 -23 24 -63 -2 -63 -26 0 -25 -8 2 -37
l21 -23 -28 0 c-16 0 -39 10 -52 22 l-23 21 0 -21 c0 -15 -6 -22 -20 -22 -18
0 -20 7 -20 70 l0 70 52 0 c34 0 58 -6 70 -17z m132 -56 c-1 -38 -4 -70 -6
-73 -3 -2 -23 0 -44 5 -34 8 -36 10 -16 16 18 6 22 15 22 50 0 35 -4 44 -21
48 -34 9 -11 28 29 25 l37 -3 -1 -68z m340 54 c22 -24 18 -67 -7 -65 -22 2
-22 -5 5 -33 18 -20 19 -23 5 -24 -9 -1 -23 -2 -29 -3 -7 -1 -23 8 -35 22
l-21 23 -4 -22 c-2 -12 -11 -23 -20 -25 -16 -2 -18 7 -18 72 l0 74 53 0 c40 0
58 -5 71 -19z m946 3 c0 -8 -9 -14 -20 -14 -18 0 -20 -7 -20 -55 0 -48 -2 -55
-20 -55 -18 0 -20 7 -20 54 0 46 -3 54 -21 59 -38 10 -11 24 46 24 40 0 55 -4
55 -13z m-2830 -9 c0 -8 -9 -15 -20 -15 -11 0 -20 7 -20 15 0 8 9 15 20 15 11
0 20 -7 20 -15z m2050 5 c0 -5 -22 -10 -50 -10 -38 0 -50 -4 -50 -15 0 -11 11
-15 41 -15 28 0 39 -4 36 -12 -2 -7 -19 -13 -38 -14 -24 0 -35 -5 -37 -17 -3
-14 5 -17 47 -17 28 0 51 -4 51 -9 0 -13 -19 -17 -80 -16 l-55 1 -3 67 -3 67
71 0 c40 0 70 -4 70 -10z m150 -5 c10 -12 9 -16 -6 -22 -10 -4 -19 -2 -22 5
-6 18 -62 15 -62 -3 0 -10 10 -15 32 -15 30 0 68 -23 68 -42 0 -22 -37 -45
-71 -44 -52 1 -99 46 -49 46 11 0 20 -4 20 -10 0 -16 47 -12 54 5 4 11 -2 15
-27 15 -39 1 -67 20 -67 48 0 25 12 30 71 31 30 1 51 -4 59 -14z m-2040 -40
c0 -8 -7 -15 -15 -15 -8 0 -15 7 -15 15 0 8 7 15 15 15 8 0 15 -7 15 -15z
m3080 -4 c0 -14 -5 -18 -20 -14 -21 5 -25 15 -13 26 13 14 33 6 33 -12z m528
2 c-4 -22 -22 -20 -26 1 -2 10 3 16 13 16 10 0 15 -7 13 -17z m-3608 -83 c0
-11 -7 -20 -15 -20 -8 0 -15 9 -15 20 0 11 7 20 15 20 8 0 15 -9 15 -20z
m3080 0 c0 -21 -24 -28 -35 -10 -8 14 3 30 21 30 8 0 14 -9 14 -20z m-3080
-86 c0 -8 -7 -14 -15 -14 -15 0 -21 21 -9 33 10 9 24 -2 24 -19z m3076 -11
c-3 -3 -13 -2 -23 1 -17 7 -17 8 2 22 18 13 20 13 23 -1 2 -9 1 -19 -2 -22z
m-2536 2 c0 -8 -9 -15 -20 -15 -17 0 -20 -7 -20 -45 0 -38 3 -45 20 -45 11 0
20 -4 20 -10 0 -5 -18 -10 -40 -10 l-40 0 0 63 c0 35 3 67 7 70 3 4 21 7 40 7
23 0 33 -5 33 -15z m175 0 c0 -5 -21 -11 -47 -13 -60 -4 -67 -29 -10 -34 38
-3 44 -22 7 -24 -40 -2 -45 -4 -45 -19 0 -11 12 -15 50 -15 28 0 50 -4 50 -10
0 -6 -30 -10 -70 -10 l-70 0 0 70 0 71 68 -3 c37 -2 67 -7 67 -13z m430 -55
l0 -65 -37 -3 c-22 -2 -38 1 -38 7 0 6 7 11 15 11 11 0 15 12 15 44 0 36 -4
45 -21 49 -34 9 -11 28 29 25 l37 -3 0 -65z m337 53 c25 -23 24 -63 -2 -63
-11 0 -20 -4 -20 -8 0 -4 9 -14 20 -22 11 -8 20 -18 20 -22 0 -17 -55 -7 -77
14 l-23 21 0 -21 c0 -15 -6 -22 -19 -22 -22 0 -29 32 -23 98 l4 42 51 0 c33 0
57 -6 69 -17z m326 0 c2 -8 -5 -13 -17 -13 -19 0 -21 -6 -21 -55 0 -48 -2 -55
-20 -55 -18 0 -20 7 -20 55 0 48 -2 55 -20 55 -11 0 -20 7 -20 15 0 13 11 15
57 13 34 -2 58 -8 61 -15z m60 -46 c3 -53 5 -57 27 -57 22 0 24 4 27 58 3 49
6 57 23 57 17 0 20 -8 23 -55 2 -48 0 -57 -20 -69 -27 -17 -99 -16 -110 2 -4
6 -8 38 -8 70 0 50 2 58 18 55 13 -2 18 -15 20 -61z m238 46 c21 -28 17 -60
-8 -66 l-22 -6 22 -19 c29 -25 28 -32 -4 -32 -15 0 -35 10 -46 22 l-19 22 -6
-22 c-3 -13 -13 -22 -24 -22 -17 0 -19 8 -19 70 l0 70 56 0 c42 0 60 -4 70
-17z m479 6 c4 -6 -2 -13 -14 -16 -18 -5 -21 -13 -21 -59 0 -47 -2 -54 -20
-54 -18 0 -20 7 -20 55 0 48 -2 55 -20 55 -11 0 -20 7 -20 15 0 11 13 15 54
15 30 0 58 -5 61 -11z m143 -6 c10 -9 17 -34 18 -59 1 -35 -3 -44 -22 -55 -29
-15 -80 -14 -100 2 -17 14 -19 100 -2 117 18 18 87 15 106 -5z m-3010 -26 c2
-12 -3 -17 -17 -17 -15 0 -21 6 -21 21 0 25 33 22 38 -4z m3610 0 c2 -12 -3
-17 -17 -17 -15 0 -21 6 -21 21 0 25 33 22 38 -4z m-248 -37 c0 -11 -7 -20
-15 -20 -27 0 -18 30 13 39 1 1 2 -8 2 -19z m-3080 -5 c0 -8 -7 -15 -15 -15
-8 0 -15 7 -15 15 0 8 7 15 15 15 8 0 15 -7 15 -15z m0 -80 c0 -8 -7 -15 -15
-15 -8 0 -15 7 -15 15 0 8 7 15 15 15 8 0 15 -7 15 -15z m3080 0 c0 -8 -9 -15
-20 -15 -20 0 -26 11 -13 23 12 13 33 7 33 -8z m-2139 -37 l19 -21 20 23 c12
13 26 20 35 16 24 -9 17 -139 -7 -144 -15 -3 -18 4 -18 37 0 45 -13 54 -25 19
l-8 -23 -4 23 c-7 34 -23 26 -23 -11 0 -38 -6 -48 -26 -40 -10 4 -14 24 -14
74 0 57 3 69 16 69 9 0 25 -10 35 -22z m222 -6 c35 -37 39 -107 6 -115 -15 -4
-22 1 -29 18 -10 27 -45 24 -53 -4 -2 -10 -12 -18 -21 -18 -13 0 -16 11 -16
51 0 88 60 124 113 68z m177 13 c0 -8 -9 -15 -20 -15 -17 0 -20 -7 -20 -45 0
-39 3 -45 21 -45 12 0 19 -5 16 -12 -3 -12 -76 -19 -104 -10 -20 7 -15 22 7
22 17 0 20 7 20 45 0 38 -3 45 -20 45 -11 0 -20 7 -20 15 0 12 13 15 60 15 47
0 60 -3 60 -15z m78 -15 c36 -37 44 -38 40 -2 -2 21 1 27 17 27 18 0 20 -7 20
-70 0 -63 -2 -70 -20 -70 -12 0 -20 7 -20 17 0 16 -37 58 -50 58 -3 0 -5 -15
-5 -34 0 -25 -5 -35 -20 -39 -19 -5 -20 0 -20 69 0 85 11 94 58 44z m303 8
l19 -21 20 23 c35 40 51 20 48 -56 -2 -55 -6 -68 -20 -70 -15 -2 -18 5 -18 37
0 43 -13 52 -25 17 l-8 -23 -4 23 c-7 35 -21 26 -25 -15 -2 -26 -8 -38 -18
-38 -12 0 -16 16 -18 73 -2 62 -1 72 14 72 9 0 25 -10 35 -22z m244 7 c0 -5
-21 -11 -47 -13 -34 -2 -48 -7 -48 -18 0 -9 11 -14 35 -14 24 0 35 -5 35 -15
0 -8 -3 -14 -7 -14 -32 5 -63 -3 -63 -16 0 -11 12 -15 44 -15 25 0 48 -4 51
-10 3 -5 3 -10 -2 -11 -4 0 -36 -1 -70 -3 l-63 -2 0 73 0 74 68 -3 c37 -2 67
-7 67 -13z m75 -15 c35 -38 40 -37 40 1 0 24 4 30 18 27 14 -3 18 -16 20 -71
3 -62 1 -67 -18 -67 -11 0 -20 5 -20 12 0 13 -39 58 -51 58 -4 0 -9 -17 -11
-37 -2 -26 -8 -38 -18 -38 -12 0 -16 16 -18 73 -3 84 10 93 58 42z m138 -33
c3 -56 4 -57 32 -57 28 0 29 2 26 43 -1 23 -1 48 2 55 5 14 42 16 42 2 0 -5
12 -10 26 -10 l27 0 -7 -62 c-4 -35 -12 -64 -17 -66 -12 -5 -12 -32 1 -32 6 0
10 -7 10 -15 0 -9 -9 -15 -25 -15 -23 0 -25 4 -25 44 l0 43 -51 -9 c-65 -12
-78 3 -79 85 0 50 2 58 18 55 13 -2 18 -15 20 -61z m284 -39 c5 -108 2 -118
-33 -118 -31 0 -40 17 -14 26 8 4 15 12 15 20 0 8 -7 14 -15 14 -12 0 -15 14
-15 65 l0 65 29 0 29 0 4 -72z m618 37 c0 -8 -6 -15 -14 -15 -17 0 -28 14 -19
24 12 12 33 6 33 -9z m530 0 c0 -8 -7 -15 -15 -15 -8 0 -15 7 -15 15 0 8 7 15
15 15 8 0 15 -7 15 -15z m-3570 -40 c0 -8 -7 -15 -15 -15 -8 0 -15 7 -15 15 0
8 7 15 15 15 8 0 15 -7 15 -15z m3040 -45 c0 -22 -1 -23 -24 -14 -18 7 -10 34
10 34 8 0 14 -9 14 -20z m-3040 -40 c0 -11 -7 -20 -15 -20 -8 0 -15 9 -15 20
0 11 7 20 15 20 8 0 15 -9 15 -20z m3000 6 c0 -15 -24 -28 -34 -19 -10 10 -7
25 4 18 6 -3 10 -1 10 4 0 6 5 11 10 11 6 0 10 -6 10 -14z m-3160 -86 c0 -13
-7 -20 -20 -20 -13 0 -20 7 -20 20 0 13 7 20 20 20 13 0 20 -7 20 -20z m158
-3 c2 -10 -3 -17 -12 -17 -10 0 -16 9 -16 21 0 24 23 21 28 -4z m862 -202 c0
-193 -2 -225 -15 -225 -13 0 -15 32 -15 225 0 193 2 225 15 225 13 0 15 -32
15 -225z m660 0 c0 -193 -2 -225 -15 -225 -13 0 -15 32 -15 225 0 193 2 225
15 225 13 0 15 -32 15 -225z m660 -6 c0 -212 -1 -219 -20 -219 -19 0 -20 7
-20 224 0 219 0 224 20 219 19 -5 20 -14 20 -224z m812 199 c-9 -9 -15 -9 -24
0 -10 10 -10 15 2 22 20 12 38 -6 22 -22z m298 12 c0 -13 -7 -20 -20 -20 -13
0 -20 7 -20 20 0 13 7 20 20 20 13 0 20 -7 20 -20z m-3290 -85 c0 -8 -7 -15
-15 -15 -8 0 -15 7 -15 15 0 8 7 15 15 15 8 0 15 -7 15 -15z m3000 -1 c0 -9
-7 -14 -17 -12 -25 5 -28 28 -4 28 12 0 21 -6 21 -16z m-3000 -79 c0 -8 -7
-15 -15 -15 -8 0 -15 7 -15 15 0 8 7 15 15 15 8 0 15 -7 15 -15z m3000 0 c0
-8 -9 -15 -20 -15 -11 0 -20 7 -20 15 0 8 9 15 20 15 11 0 20 -7 20 -15z
m-3327 -71 c9 -10 -4 -34 -19 -34 -8 0 -14 9 -14 20 0 19 19 27 33 14z m325
-11 c-5 -25 -28 -28 -28 -4 0 12 6 21 16 21 9 0 14 -7 12 -17z m3002 3 c0 -8
-5 -18 -11 -22 -14 -8 -33 11 -25 25 10 16 36 13 36 -3z m-3000 -86 c0 -11 -7
-20 -15 -20 -8 0 -15 9 -15 20 0 11 7 20 15 20 8 0 15 -9 15 -20z m2998 -3 c2
-12 -3 -17 -17 -17 -12 0 -21 6 -21 13 0 31 32 34 38 4z m330 -40 c2 -12 -3
-17 -17 -17 -12 0 -21 6 -21 13 0 31 32 34 38 4z m-1956 -39 c-9 -9 -15 -9
-24 0 -10 10 -10 15 2 22 20 12 38 -6 22 -22z m-402 6 c0 -9 -5 -14 -12 -12
-18 6 -21 28 -4 28 9 0 16 -7 16 -16z m2022 -16 c-9 -9 -15 -9 -24 0 -10 10
-10 15 2 22 20 12 38 -6 22 -22z"/>
<path d="M3202 4514 c-18 -12 -22 -25 -22 -68 0 -83 1 -83 188 -90 l162 -6 0
84 0 84 -31 6 c-17 3 -86 6 -153 6 -94 0 -127 -4 -144 -16z"/>
<path d="M3216 3774 c-13 -12 -16 -38 -16 -119 0 -98 1 -105 23 -120 29 -19
106 -17 130 3 9 8 17 28 17 44 0 24 4 28 28 28 15 0 33 4 41 9 18 12 26 107
12 144 l-11 27 -104 0 c-82 0 -108 -3 -120 -16z"/>
<path d="M3493 3479 c-9 -9 -8 -15 2 -25 21 -21 35 -17 35 11 0 26 -18 33 -37
14z"/>
<path d="M3391 5276 c-15 -17 -11 -58 5 -63 7 -2 10 8 8 28 -4 30 -2 31 26 27
19 -3 29 -1 27 6 -6 17 -52 19 -66 2z"/>
<path d="M3780 5251 c0 -37 11 -51 41 -51 13 0 11 64 -3 78 -24 24 -38 13 -38
-27z"/>
<path d="M3940 5215 c0 -10 10 -15 30 -15 20 0 30 5 30 15 0 10 -10 15 -30 15
-20 0 -30 -5 -30 -15z"/>
<path d="M927 3775 c-15 -14 -17 -43 -17 -214 0 -172 2 -200 17 -212 26 -22
187 -25 218 -5 l25 16 0 198 c0 108 -5 204 -10 212 -15 24 -211 28 -233 5z"/>
<path d="M1762 4508 c-6 -7 -13 -25 -17 -40 -5 -19 -15 -29 -36 -33 -44 -10
-63 -45 -55 -103 3 -26 14 -52 23 -59 11 -8 51 -13 108 -13 118 0 135 11 135
83 -1 57 -17 87 -46 87 -28 0 -39 11 -50 50 -10 38 -42 52 -62 28z"/>
<path d="M1671 4126 c-6 -7 -14 -47 -17 -89 l-7 -76 -44 -7 c-24 -3 -62 -4
-84 -1 -37 5 -39 4 -39 -22 0 -26 0 -26 78 -26 117 -1 112 6 112 -134 0 -131
6 -147 61 -158 19 -3 29 -12 29 -23 0 -10 9 -28 19 -41 16 -20 23 -22 38 -13
10 6 20 24 23 40 4 22 12 30 38 35 19 4 39 12 45 18 8 8 13 61 15 141 l4 129
63 6 c35 4 68 4 74 0 7 -4 11 4 11 22 l0 28 -76 0 c-89 0 -94 5 -94 88 0 95
-3 97 -129 97 -79 0 -112 -4 -120 -14z"/>
<path d="M2450 3485 c-15 -18 -15 -124 0 -139 7 -7 64 -11 153 -11 l142 0 3
83 3 82 -144 0 c-115 0 -147 -3 -157 -15z"/>
<path d="M1840 3030 c0 -23 4 -30 20 -30 16 0 20 7 20 30 0 23 -4 30 -20 30
-16 0 -20 -7 -20 -30z"/>
<path d="M1950 3044 c0 -17 22 -14 28 4 2 7 -3 12 -12 12 -9 0 -16 -7 -16 -16z"/>
<path d="M2480 3010 c0 -5 9 -10 20 -10 11 0 20 5 20 10 0 6 -9 10 -20 10 -11
0 -20 -4 -20 -10z"/>
<path d="M2590 3050 c0 -5 7 -10 15 -10 8 0 15 5 15 10 0 6 -7 10 -15 10 -8 0
-15 -4 -15 -10z"/>
<path d="M2700 3040 c-13 -8 -12 -10 3 -10 9 0 17 5 17 10 0 12 -1 12 -20 0z"/>
<path d="M2800 3010 c0 -5 9 -10 20 -10 11 0 20 5 20 10 0 6 -9 10 -20 10 -11
0 -20 -4 -20 -10z"/>
<path d="M2044 2865 c2 -35 36 -35 36 0 0 18 -5 25 -19 25 -14 0 -19 -7 -17
-25z"/>
<path d="M2150 2875 c0 -8 3 -15 6 -15 3 0 12 7 20 15 14 13 13 15 -5 15 -12
0 -21 -6 -21 -15z"/>
<path d="M2798 2883 c6 -2 18 -2 25 0 6 3 1 5 -13 5 -14 0 -19 -2 -12 -5z"/>
<path d="M2685 2850 c3 -5 13 -10 21 -10 8 0 14 5 14 10 0 6 -9 10 -21 10 -11
0 -17 -4 -14 -10z"/>
<path d="M2900 2870 c0 -5 5 -10 10 -10 6 0 10 5 10 10 0 6 -4 10 -10 10 -5 0
-10 -4 -10 -10z"/>
<path d="M3010 2850 c0 -5 7 -10 15 -10 8 0 15 5 15 10 0 6 -7 10 -15 10 -8 0
-15 -4 -15 -10z"/>
<path d="M1670 2699 c0 -24 4 -30 18 -27 10 2 18 14 20 31 3 22 -1 27 -17 27
-17 0 -21 -6 -21 -31z"/>
<path d="M1770 2715 c0 -8 9 -15 20 -15 11 0 20 7 20 15 0 8 -9 15 -20 15 -11
0 -20 -7 -20 -15z"/>
<path d="M2950 2699 c0 -24 4 -30 18 -27 10 2 18 14 20 31 3 22 -1 27 -17 27
-17 0 -21 -6 -21 -31z"/>
<path d="M3050 2715 c0 -8 6 -15 14 -15 8 0 16 7 20 15 4 10 -1 15 -14 15 -11
0 -20 -7 -20 -15z"/>
<path d="M2240 1791 c0 -112 3 -142 14 -148 10 -5 16 -29 18 -68 2 -41 7 -59
16 -57 6 1 12 -7 12 -18 0 -19 7 -20 140 -20 133 0 140 1 140 20 0 11 7 20 15
20 12 0 15 13 15 61 0 52 3 62 20 66 19 5 20 14 20 145 0 139 0 139 -22 136
-22 -3 -23 -8 -26 -98 -2 -70 -7 -97 -17 -103 -8 -4 -15 -15 -15 -22 0 -8 -7
-15 -15 -15 -8 0 -15 -7 -15 -15 0 -10 -10 -15 -30 -15 -34 0 -40 15 -10 23
11 3 20 12 20 21 0 20 -39 21 -46 1 -4 -9 -19 -15 -35 -15 -19 0 -29 5 -29 15
0 8 -9 15 -20 15 -13 0 -20 -7 -20 -20 0 -11 7 -20 15 -20 8 0 15 -4 15 -10 0
-6 -27 -10 -60 -10 l-59 0 -3 132 c-3 117 -5 133 -20 136 -16 3 -18 -9 -18
-137z"/>
<path d="M1350 985 c0 -10 11 -15 35 -15 19 0 35 -4 35 -10 0 -5 5 -10 10 -10
20 0 9 25 -17 38 -36 16 -63 15 -63 -3z"/>
<path d="M3031 1214 c0 -11 3 -14 6 -6 3 7 2 16 -1 19 -3 4 -6 -2 -5 -13z"/>
<path d="M1740 1205 c0 -28 23 -34 46 -11 22 23 17 36 -16 36 -25 0 -30 -4
-30 -25z"/>
<path d="M2210 1205 c0 -27 18 -33 38 -13 20 20 14 38 -13 38 -20 0 -25 -5
-25 -25z"/>
<path d="M1970 975 c0 -28 23 -34 46 -11 22 23 17 36 -16 36 -25 0 -30 -4 -30
-25z"/>
<path d="M2590 975 c0 -28 23 -34 46 -11 22 23 17 36 -16 36 -25 0 -30 -4 -30
-25z"/>
<path d="M3220 955 c0 -41 2 -45 25 -45 23 0 25 4 25 45 0 41 -2 45 -25 45
-23 0 -25 -4 -25 -45z"/>
<path d="M1672 808 c-20 -20 -14 -38 13 -38 27 0 33 21 12 39 -10 8 -17 7 -25
-1z"/>
</g>
</svg>
