<?xml version="1.0" standalone="no"?>
<!DOCTYPE svg PUBLIC "-//W3C//DTD SVG 20010904//EN"
 "http://www.w3.org/TR/2001/REC-SVG-20010904/DTD/svg10.dtd">
<svg version="1.0" xmlns="http://www.w3.org/2000/svg"
 width="435.000000pt" height="574.000000pt" viewBox="0 0 435.000000 574.000000"
 preserveAspectRatio="xMidYMid meet">

<g transform="translate(0.000000,574.000000) scale(0.100000,-0.100000)"
fill="#000000" stroke="none">
<path d="M4014 5583 c19 -23 19 -23 0 -45 l-19 -23 23 19 c22 19 22 19 45 0
l22 -19 -19 23 c-19 22 -19 22 0 45 l19 22 -22 -19 c-23 -19 -23 -19 -45 0
l-23 19 19 -22z"/>
<path d="M370 5555 c0 -28 4 -35 20 -35 23 0 27 28 5 36 -8 4 -15 11 -15 16 0
6 7 7 16 4 8 -3 12 -2 9 4 -15 24 -35 9 -35 -25z m30 -15 c0 -5 -4 -10 -10
-10 -5 0 -10 5 -10 10 0 6 5 10 10 10 6 0 10 -4 10 -10z"/>
<path d="M667 5583 c-14 -13 -7 -25 8 -13 8 7 22 10 30 6 9 -3 13 -2 10 4 -7
11 -38 13 -48 3z"/>
<path d="M741 5553 c1 -36 2 -36 8 -9 l6 29 14 -26 c20 -38 31 -34 30 11 -1
36 -1 37 -8 7 l-8 -30 -13 28 c-18 38 -30 34 -29 -10z"/>
<path d="M452 5545 c0 -16 2 -22 5 -12 2 9 2 23 0 30 -3 6 -5 -1 -5 -18z"/>
<path d="M473 5555 c-8 -23 0 -24 20 -3 14 15 15 18 2 18 -9 0 -18 -7 -22 -15z"/>
<path d="M555 5560 c-4 -6 -11 -8 -16 -5 -5 4 -9 -2 -9 -12 0 -12 8 -19 21
-20 16 -2 18 1 9 12 -7 8 -7 15 -1 19 13 8 34 -30 26 -47 -4 -6 1 -3 9 7 9 11
16 25 16 30 0 6 -4 5 -9 -3 -7 -11 -10 -9 -16 8 -7 23 -20 27 -30 11z"/>
<path d="M3268 5553 c12 -2 32 -2 45 0 12 2 2 4 -23 4 -25 0 -35 -2 -22 -4z"/>
<path d="M511 5534 c0 -11 3 -14 6 -6 3 7 2 16 -1 19 -3 4 -6 -2 -5 -13z"/>
<path d="M662 5540 c6 -19 37 -25 52 -10 8 8 7 10 -7 4 -9 -3 -25 0 -34 7 -14
12 -16 12 -11 -1z"/>
<path d="M191 5514 c0 -11 3 -14 6 -6 3 7 2 16 -1 19 -3 4 -6 -2 -5 -13z"/>
<path d="M410 5411 c0 -10 9 -21 20 -24 16 -4 20 0 20 19 0 17 -6 24 -20 24
-13 0 -20 -7 -20 -19z"/>
<path d="M660 5330 c0 -73 3 -100 13 -100 6 0 28 -5 48 -10 74 -21 53 -100
-26 -100 l-35 0 0 -130 c0 -123 1 -130 20 -130 19 0 20 -7 20 -215 0 -208 -1
-215 -20 -215 -19 0 -20 -7 -20 -155 0 -148 1 -155 20 -155 20 0 20 -7 20
-290 0 -283 0 -290 -20 -290 -20 0 -20 -7 -20 -285 0 -278 0 -285 20 -285 20
0 20 -7 20 -290 0 -283 0 -290 -20 -290 -19 0 -20 -7 -20 -265 0 -258 1 -265
20 -265 20 0 20 -7 20 -286 0 -277 -1 -286 -20 -291 -19 -5 -20 -14 -20 -284
0 -163 4 -279 9 -279 5 0 16 -3 24 -6 11 -4 16 2 19 18 4 28 45 38 54 13 5
-11 -2 -24 -22 -40 l-28 -22 22 -14 c31 -20 30 -59 -2 -59 -15 0 -26 7 -29 18
-3 9 -5 -4 -6 -30 l-1 -48 99 0 99 0 -2 127 -1 128 33 3 c31 3 32 2 32 -33 0
-25 4 -35 13 -33 15 5 22 68 8 68 -6 0 -11 7 -11 15 0 13 24 15 160 15 136 0
160 -2 160 -15 0 -10 11 -15 35 -15 31 0 35 -3 35 -25 0 -21 5 -25 30 -25 20
0 30 -5 30 -15 0 -8 -9 -15 -20 -15 -17 0 -20 -7 -20 -45 0 -38 3 -45 20 -45
11 0 20 -7 20 -15 0 -10 -10 -15 -30 -15 -27 0 -30 -3 -30 -30 l0 -30 425 0
425 0 0 165 c0 140 2 165 15 165 8 0 15 7 15 15 0 8 7 15 15 15 8 0 15 7 15
15 0 13 26 15 175 15 109 0 175 -4 175 -10 0 -15 33 -50 47 -50 10 0 13 -38
13 -165 l0 -165 405 0 c398 0 405 0 405 20 0 13 7 20 20 20 20 0 20 7 20 285
0 278 0 285 -20 285 -20 0 -20 7 -20 330 0 323 0 330 20 330 19 0 20 7 20 200
0 193 -1 200 -20 200 -20 0 -20 7 -21 280 0 154 -1 295 -2 313 -1 26 4 33 21
35 l22 3 0 285 c0 272 -1 284 -19 284 -10 0 -20 6 -22 13 -2 6 -3 155 -1 330
3 307 3 317 22 317 19 0 20 8 20 174 0 170 -1 175 -21 178 -19 3 -22 9 -21 61
0 31 1 62 1 67 1 6 10 10 21 10 20 0 20 7 20 341 0 322 -1 342 -19 368 -13 18
-21 48 -23 87 l-3 59 -347 3 c-343 2 -348 2 -348 -18 0 -13 -7 -20 -20 -20
-13 0 -20 7 -20 20 0 20 -7 20 -305 20 -298 0 -305 0 -305 -20 0 -15 -7 -20
-25 -20 -18 0 -25 5 -25 20 0 20 -7 20 -305 20 -298 0 -305 0 -305 -20 0 -13
-7 -20 -19 -20 -10 0 -21 9 -24 20 -5 20 -14 20 -391 20 l-386 0 0 -100z
m2809 -29 c20 -18 31 -39 31 -55 0 -34 -41 -76 -75 -76 -34 0 -75 42 -75 76 0
27 51 84 75 84 7 0 27 -13 44 -29z m-1881 -48 c2 -7 -1 -13 -8 -13 -6 0 -17
-5 -24 -12 -11 -10 -11 -15 0 -25 7 -7 17 -13 23 -13 6 0 11 -11 11 -25 0 -16
-6 -25 -15 -25 -8 0 -15 -4 -15 -10 0 -16 -99 -12 -116 5 -9 8 -12 19 -9 25 8
13 45 13 45 0 0 -5 11 -10 25 -10 16 0 25 6 25 15 0 9 -9 15 -25 15 -31 0 -33
23 -3 44 22 16 22 16 -15 16 -27 0 -37 4 -37 15 0 13 12 15 67 13 42 -2 68 -8
71 -15z m162 6 c0 -6 -10 -19 -22 -29 l-22 -17 22 -14 c26 -17 29 -47 5 -65
-22 -17 -105 -18 -121 -2 -18 18 -14 38 8 38 11 0 20 -4 20 -10 0 -5 14 -10
30 -10 20 0 30 5 30 15 0 10 -10 15 -30 15 -35 0 -38 15 -8 41 l21 19 -36 0
c-35 0 -45 8 -30 23 11 12 133 8 133 -4z m140 -4 c0 -9 -10 -15 -26 -15 -14 0
-32 -7 -40 -15 -14 -13 -11 -15 25 -15 30 0 41 -4 41 -15 0 -8 5 -15 10 -15 6
0 10 -7 10 -16 0 -28 -27 -44 -75 -44 -56 0 -75 16 -75 63 0 49 40 87 91 87
28 0 39 -4 39 -15z m160 0 c0 -9 -9 -15 -25 -15 -14 0 -25 -4 -25 -9 0 -5 -8
-12 -17 -14 -10 -3 -1 -5 20 -6 22 -1 45 -9 57 -21 24 -24 26 -50 5 -50 -8 0
-15 -4 -15 -10 0 -14 -94 -12 -108 2 -13 13 -16 75 -6 102 3 9 12 16 20 16 8
0 14 5 14 10 0 6 18 10 40 10 29 0 40 -4 40 -15z m156 1 c17 -18 18 -38 2 -54
-9 -9 -7 -12 10 -12 15 0 22 -6 22 -20 0 -11 -4 -20 -10 -20 -5 0 -10 -7 -10
-15 0 -12 -13 -15 -55 -15 -42 0 -55 3 -55 15 0 8 -4 15 -10 15 -5 0 -10 9
-10 20 0 11 5 20 12 20 9 0 9 3 0 12 -15 15 -15 35 1 53 16 19 84 19 103 1z
m-1016 -31 c0 -18 -5 -25 -20 -25 -15 0 -20 7 -20 25 0 18 5 25 20 25 15 0 20
-7 20 -25z m-342 -7 c9 -9 12 -9 12 1 0 8 11 11 32 9 41 -4 50 -28 11 -28 -37
0 -53 -16 -53 -53 0 -25 -3 -28 -27 -25 -26 3 -28 7 -31 50 -3 46 -1 48 39 57
3 0 10 -4 17 -11z m225 -2 c9 -7 17 -23 17 -35 0 -19 -6 -21 -52 -23 -51 -1
-51 -2 -10 -5 28 -3 42 -9 42 -19 0 -19 -96 -20 -116 0 -17 18 -18 62 -1 81
15 18 96 19 120 1z m117 -56 c0 -13 -7 -20 -20 -20 -13 0 -20 7 -20 20 0 13 7
20 20 20 13 0 20 -7 20 -20z m290 -286 l0 -225 -22 3 c-13 2 -22 6 -20 11 1 4
2 104 2 222 0 208 1 215 20 215 19 0 20 -7 20 -226z m660 1 l0 -225 -25 0 -25
0 0 225 0 225 25 0 25 0 0 -225z m650 0 c0 -218 -1 -225 -20 -225 -19 0 -20 7
-20 225 0 218 1 225 20 225 19 0 20 -7 20 -225z m-184 -150 c4 -8 12 -15 20
-15 8 0 14 -9 14 -20 0 -11 7 -20 15 -20 13 0 15 -51 15 -399 l0 -398 -26 5
c-17 3 -31 -2 -45 -17 -19 -20 -29 -22 -161 -20 -124 1 -142 3 -156 20 -9 10
-29 19 -44 19 l-28 0 0 395 c0 344 2 395 15 395 8 0 15 9 15 20 0 13 7 20 20
20 11 0 20 7 20 15 0 13 24 15 160 15 134 0 162 -3 166 -15z m-716 -465 c0
-17 -7 -20 -50 -20 -30 0 -50 -4 -50 -11 0 -16 -42 -59 -58 -59 -7 0 -15 7
-18 15 -10 26 -24 16 -24 -16 0 -24 -4 -30 -17 -27 -15 3 -19 16 -21 71 l-3
67 121 0 c113 0 120 -1 120 -20z m88 -18 c15 -10 5 -45 -12 -39 -13 4 -21 47
-9 47 4 0 14 -4 21 -8z m-498 -228 l0 -225 -22 3 c-13 2 -22 6 -20 11 1 4 2
104 2 222 0 208 1 215 20 215 19 0 20 -7 20 -226z m110 205 c0 -24 -23 -21
-28 4 -2 10 3 17 12 17 10 0 16 -9 16 -21z m548 -206 l2 -223 -25 0 -25 0 0
226 0 225 23 -3 c22 -3 22 -3 25 -225z m652 2 c0 -218 -1 -225 -20 -225 -19 0
-20 7 -20 225 0 218 1 225 20 225 19 0 20 -7 20 -225z m-1198 138 c5 -43 -3
-84 -16 -80 -6 2 -12 27 -14 55 -2 41 0 52 12 52 9 0 16 -11 18 -27z m393 -28
c0 -38 -4 -50 -15 -50 -11 0 -16 14 -18 53 -3 47 -1 53 15 50 14 -3 18 -13 18
-53z m-295 -19 c0 -18 -16 -29 -30 -21 -13 8 -1 35 16 35 8 0 14 -6 14 -14z
m54 -45 c3 -5 -1 -11 -9 -14 -9 -4 -12 -1 -8 9 6 16 10 17 17 5z m-29 -31 c3
-5 1 -10 -4 -10 -6 0 -11 5 -11 10 0 6 2 10 4 10 3 0 8 -4 11 -10z m1 -43 c4
-4 29 -7 56 -7 41 0 49 -3 46 -17 -2 -14 -15 -16 -79 -14 -71 2 -77 1 -82 -19
-8 -32 -31 -19 -35 18 -3 26 0 32 17 32 11 0 22 4 25 8 6 10 42 9 52 -1z m174
-22 c0 -8 -9 -15 -20 -15 -11 0 -20 7 -20 15 0 8 9 15 20 15 11 0 20 -7 20
-15z m617 -175 c4 -16 14 -20 49 -20 32 0 44 -4 44 -15 0 -13 -24 -15 -160
-15 -136 0 -160 2 -160 15 0 11 12 15 50 15 43 0 50 3 50 20 0 18 7 20 61 20
52 0 62 -3 66 -20z m-1210 -60 c3 -11 12 -20 19 -20 8 0 14 -7 14 -15 0 -8 7
-15 15 -15 13 0 15 -47 15 -365 0 -316 -2 -366 -15 -371 -8 -4 -15 -12 -15
-20 0 -8 -7 -14 -15 -14 -8 0 -15 -7 -15 -15 0 -13 -26 -15 -170 -15 -144 0
-170 2 -170 15 0 8 -7 15 -15 15 -8 0 -15 5 -15 11 0 7 -6 17 -14 23 -12 9
-15 75 -18 374 -4 343 -3 362 14 362 10 0 18 7 18 15 0 8 7 15 15 15 8 0 15 9
15 20 0 19 7 20 166 20 157 0 166 -1 171 -20z m183 -456 l0 -225 -22 3 c-13 2
-22 6 -20 11 1 4 2 104 2 222 0 208 1 215 20 215 19 0 20 -7 20 -226z m660 1
l0 -225 -25 0 -25 0 0 225 0 225 25 0 25 0 0 -225z m650 -5 c0 -213 -1 -220
-20 -220 -19 0 -20 7 -20 220 0 213 1 220 20 220 19 0 20 -7 20 -220z m-301
141 c17 -16 31 -39 31 -51 0 -28 -52 -80 -80 -80 -28 0 -80 52 -80 80 0 27 52
80 78 80 11 0 34 -13 51 -29z m-869 5 c0 -9 12 -16 33 -18 49 -5 38 -23 -15
-26 -47 -3 -48 -3 -48 27 0 21 5 31 15 31 8 0 15 -6 15 -14z m360 -17 c0 -30
-1 -30 -47 -27 -54 3 -65 21 -15 26 20 2 32 9 32 18 0 8 7 14 15 14 10 0 15
-10 15 -31z m-130 -14 c0 -12 -14 -15 -65 -15 -51 0 -65 3 -65 15 0 12 14 15
65 15 51 0 65 -3 65 -15z m-890 -555 c0 -16 7 -20 35 -20 25 0 35 -4 35 -16 0
-12 -10 -14 -47 -12 -46 3 -48 4 -51 36 -2 24 1 32 12 32 9 0 16 -9 16 -20z
m367 -12 c-3 -32 -5 -33 -50 -36 -37 -2 -47 0 -47 12 0 11 10 16 31 16 22 0
32 5 36 20 9 35 35 24 30 -12z m-127 -23 c0 -12 -14 -15 -70 -15 -56 0 -70 3
-70 15 0 12 14 15 70 15 56 0 70 -3 70 -15z m280 -261 c0 -217 -1 -224 -20
-224 -11 0 -20 6 -20 13 -1 6 0 106 0 222 1 203 5 235 32 219 4 -3 8 -106 8
-230z m648 228 c9 -7 12 -59 10 -228 -3 -219 -3 -219 -25 -222 l-23 -3 0 224
c0 240 2 251 38 229z m662 -224 c0 -221 -1 -228 -20 -228 -19 0 -20 7 -20 223
0 123 2 226 5 229 3 2 12 5 20 5 13 0 15 -32 15 -229z m-840 157 c0 -8 7 -15
15 -15 8 0 15 -7 15 -16 0 -9 9 -18 20 -21 20 -5 20 -12 18 -367 -2 -206 -7
-359 -12 -356 -5 3 -12 -5 -17 -17 -5 -13 -15 -23 -23 -23 -8 0 -16 -7 -18
-15 -2 -13 -26 -16 -148 -16 -190 0 -180 -1 -180 16 0 8 -6 15 -12 15 -7 0
-23 11 -35 24 -23 24 -23 24 -23 385 0 354 0 361 20 361 11 0 20 7 20 15 0 8
7 15 15 15 8 0 15 7 15 15 0 13 25 15 165 15 140 0 165 -2 165 -15z m-472
-938 c2 -219 2 -227 -17 -227 -26 0 -27 7 -23 253 3 190 4 208 20 205 15 -3
17 -25 20 -231z m657 3 l0 -225 -22 -3 -23 -3 0 224 c0 123 3 227 7 231 4 4
14 5 23 4 13 -3 15 -33 15 -228z m655 0 c0 -223 -1 -230 -20 -230 -19 0 -20 7
-20 230 0 223 1 230 20 230 19 0 20 -7 20 -230z m-1170 35 c0 -10 11 -15 35
-15 24 0 35 -5 35 -15 0 -11 -12 -15 -50 -15 -27 0 -50 3 -50 8 0 4 -3 17 -6
30 -5 18 -2 22 15 22 12 0 21 -6 21 -15z m366 -7 c-3 -13 -6 -26 -6 -30 0 -5
-22 -8 -50 -8 -38 0 -50 4 -50 15 0 10 11 15 35 15 24 0 35 5 35 15 0 9 9 15
21 15 17 0 20 -4 15 -22z m-136 -23 c0 -12 -14 -15 -65 -15 -51 0 -65 3 -65
15 0 12 14 15 65 15 51 0 65 -3 65 -15z m1250 -160 c0 -10 10 -15 30 -15 20 0
30 5 30 15 0 10 11 15 35 15 l35 0 0 -115 0 -115 -35 0 -35 0 0 85 c0 69 -3
85 -15 85 -8 0 -15 -9 -15 -20 0 -11 -7 -20 -15 -20 -12 0 -15 -15 -15 -71 0
-69 -1 -71 -22 -65 -13 3 -35 6 -50 6 -18 0 -28 5 -28 15 0 8 7 15 15 15 8 0
15 9 15 20 0 11 -7 20 -15 20 -12 0 -15 14 -15 65 0 51 3 65 15 65 8 0 15 7
15 15 0 10 11 15 35 15 24 0 35 -5 35 -15z m-170 -65 c0 -11 -7 -20 -15 -20
-8 0 -15 9 -15 20 0 11 7 20 15 20 8 0 15 -9 15 -20z m398 3 c-5 -25 -28 -28
-28 -4 0 12 6 21 16 21 9 0 14 -7 12 -17z m-398 -103 c0 -38 -4 -50 -15 -50
-11 0 -15 12 -15 50 0 38 4 50 15 50 11 0 15 -12 15 -50z m400 0 c0 -38 -4
-50 -15 -50 -11 0 -15 12 -15 50 0 38 4 50 15 50 11 0 15 -12 15 -50z m-271
-117 c-5 -31 3 -35 69 -33 113 5 102 23 102 -165 l0 -165 -35 0 -35 0 0 150 0
150 -30 0 -30 0 0 -150 0 -150 -35 0 -35 0 0 150 c0 127 -2 150 -15 150 -9 0
-15 -9 -15 -21 0 -35 -34 -19 -38 18 -3 31 -2 32 45 39 26 4 42 9 35 11 -6 3
-10 9 -6 14 6 11 24 12 23 2z m-1579 -304 c0 -228 0 -230 -21 -227 -20 3 -21
8 -20 223 0 121 1 223 1 228 0 4 9 7 20 7 19 0 20 -7 20 -231z m655 1 c0 -218
-1 -225 -20 -225 -19 0 -20 8 -23 228 l-2 228 22 -3 23 -3 0 -225z m655 -11
c0 -212 -1 -219 -20 -219 -19 0 -20 7 -20 224 0 219 0 224 20 219 19 -5 20
-14 20 -224z m310 -254 l0 -65 30 0 30 0 0 65 0 65 35 0 35 0 0 -65 0 -65 35
0 c24 0 35 5 35 15 0 8 7 15 15 15 10 0 15 -10 15 -30 0 -29 -1 -30 -49 -30
-39 0 -50 -4 -54 -19 -6 -24 -60 -23 -65 2 -4 22 -62 24 -62 2 0 -16 -1 -16
-39 -20 -16 -2 -25 4 -28 16 -4 13 -17 19 -52 21 -42 3 -46 5 -49 31 -2 19 1
27 12 27 9 0 16 -7 16 -15 0 -10 11 -15 35 -15 l35 0 0 65 0 65 35 0 35 0 0
-65z m-1600 -27 l25 -31 5 29 c4 23 10 29 30 29 24 0 25 -2 25 -70 0 -68 -1
-70 -26 -73 -22 -3 -27 2 -32 27 -4 18 -13 31 -21 31 -8 0 -17 8 -19 18 -3 9
-5 -5 -6 -31 -1 -44 -3 -48 -23 -45 -21 3 -23 10 -26 62 -2 32 -1 65 2 72 9
24 40 15 66 -18z m233 18 c25 -19 21 -36 -8 -36 -14 0 -25 5 -25 10 0 6 -13
10 -30 10 -20 0 -30 -5 -30 -15 0 -11 11 -15 38 -15 42 -1 72 -19 72 -45 0
-10 -8 -24 -17 -31 -22 -17 -105 -18 -121 -2 -18 18 -14 38 8 38 11 0 20 -4
20 -10 0 -5 14 -10 30 -10 49 0 38 28 -12 32 -36 3 -44 7 -52 30 -14 40 6 58
63 58 25 0 54 -7 64 -14z"/>
<path d="M1810 5165 c0 -9 9 -15 25 -15 16 0 25 6 25 15 0 9 -9 15 -25 15 -16
0 -25 -6 -25 -15z"/>
<path d="M1970 5165 c0 -10 10 -15 28 -15 19 0 29 5 29 15 0 10 -10 15 -29 15
-18 0 -28 -5 -28 -15z"/>
<path d="M2154 5225 c8 -8 19 -15 25 -15 6 0 11 7 11 15 0 9 -10 15 -26 15
-23 0 -24 -2 -10 -15z"/>
<path d="M2120 5165 c0 -11 10 -15 38 -14 23 1 28 3 15 6 -13 2 -23 9 -23 14
0 5 -7 9 -15 9 -8 0 -15 -7 -15 -15z"/>
<path d="M1003 5193 c9 -2 23 -2 30 0 6 3 -1 5 -18 5 -16 0 -22 -2 -12 -5z"/>
<path d="M2297 4502 c-34 -7 -57 -35 -57 -70 l0 -34 43 7 c23 4 45 12 48 17 4
6 9 5 12 -3 4 -9 6 -7 7 6 1 11 2 23 1 28 0 4 3 7 9 7 5 0 9 -10 7 -22 -2 -21
2 -23 61 -26 46 -2 62 0 62 10 0 10 2 10 9 0 5 -9 33 -15 75 -17 l66 -3 0 39
c0 28 -4 39 -15 39 -8 0 -15 6 -15 13 0 10 -33 13 -147 13 -82 0 -156 -2 -166
-4z m100 -31 c0 -11 -5 -18 -9 -15 -4 3 -5 11 -1 19 7 21 12 19 10 -4z m40 13
c-3 -3 -12 -4 -19 -1 -8 3 -5 6 6 6 11 1 17 -2 13 -5z"/>
<path d="M2253 4373 c-10 -3 -13 -41 -13 -140 0 -123 2 -134 18 -131 15 3 17
19 20 132 3 128 -1 148 -25 139z"/>
<path d="M2608 4280 c-1 -55 -2 -117 -2 -137 -1 -28 3 -39 17 -41 15 -3 17 8
17 131 0 111 -3 136 -15 141 -13 4 -15 -10 -17 -94z"/>
<path d="M2380 4155 c0 -8 5 -15 10 -15 6 0 10 7 10 15 0 8 -4 15 -10 15 -5 0
-10 -7 -10 -15z"/>
<path d="M2480 4155 c0 -8 7 -15 15 -15 8 0 15 7 15 15 0 8 -7 15 -15 15 -8 0
-15 -7 -15 -15z"/>
<path d="M2410 4115 c0 -10 10 -15 30 -15 20 0 30 5 30 15 0 10 -10 15 -30 15
-20 0 -30 -5 -30 -15z"/>
<path d="M2277 4074 c-4 -4 -7 -27 -7 -52 0 -35 4 -45 20 -49 11 -3 20 -12 20
-19 0 -11 27 -14 135 -14 109 0 135 3 135 14 0 8 7 17 16 20 11 4 14 18 12 53
l-3 48 -161 3 c-88 1 -163 -1 -167 -4z"/>
<path d="M1725 4230 c-3 -5 1 -10 9 -10 9 0 16 5 16 10 0 6 -4 10 -9 10 -6 0
-13 -4 -16 -10z"/>
<path d="M960 3665 c0 -8 7 -15 15 -15 8 0 15 7 15 15 0 8 -7 15 -15 15 -8 0
-15 -7 -15 -15z"/>
<path d="M1260 3665 c0 -8 7 -15 15 -15 8 0 15 7 15 15 0 8 -7 15 -15 15 -8 0
-15 -7 -15 -15z"/>
<path d="M960 3545 c0 -51 -3 -65 -15 -65 -10 0 -15 -11 -15 -35 0 -30 3 -35
24 -35 14 0 31 7 40 15 16 17 30 20 21 6 -7 -12 115 -25 144 -16 12 3 19 11
16 16 -4 5 -2 9 3 9 6 0 12 -7 16 -15 4 -11 22 -15 71 -15 l65 0 0 35 c0 23
-5 35 -14 35 -15 0 -26 42 -26 96 0 24 -5 34 -15 34 -11 0 -15 -12 -15 -44 0
-24 -3 -51 -6 -60 -5 -14 -8 -14 -21 -1 -20 20 -102 20 -109 0 -4 -8 -10 -15
-16 -15 -5 0 -7 4 -4 8 6 10 -1 11 -64 15 l-45 2 -3 48 c-2 33 -7 47 -18 47
-11 0 -14 -15 -14 -65z m97 -97 c-7 -10 -15 -18 -18 -18 -4 0 -5 8 -2 18 2 10
10 19 18 19 10 0 11 -4 2 -19z"/>
<path d="M930 3245 c0 -113 2 -135 15 -135 12 0 15 -14 15 -65 0 -51 3 -65 15
-65 8 0 15 -7 15 -15 0 -13 22 -15 135 -15 113 0 135 2 135 15 0 9 9 15 21 15
19 0 20 5 18 62 -2 52 0 64 14 66 15 3 17 20 17 138 0 112 -2 134 -15 134 -12
0 -15 -16 -15 -81 0 -72 -2 -81 -20 -86 -14 -4 -20 -14 -20 -34 0 -19 -5 -29
-15 -29 -8 0 -15 -9 -15 -20 0 -12 -7 -20 -16 -20 -9 0 -18 9 -21 20 -3 11
-10 20 -15 20 -5 0 -12 -9 -15 -20 -5 -18 -14 -20 -104 -20 l-99 0 0 135 c0
113 -2 135 -15 135 -13 0 -15 -22 -15 -135z"/>
<path d="M1200 3165 c0 -9 5 -15 11 -13 6 2 11 8 11 13 0 5 -5 11 -11 13 -6 2
-11 -4 -11 -13z"/>
<path d="M1620 2630 c0 -11 7 -20 15 -20 8 0 15 9 15 20 0 11 -7 20 -15 20 -8
0 -15 -9 -15 -20z"/>
<path d="M1920 2630 c0 -13 5 -20 13 -17 6 2 12 10 12 17 0 7 -6 15 -12 18 -8
2 -13 -5 -13 -18z"/>
<path d="M1620 2531 c0 -59 -7 -81 -26 -81 -9 0 -14 -12 -14 -35 0 -32 3 -35
29 -35 62 0 89 11 87 34 -2 16 2 22 15 21 10 -1 22 -5 26 -9 5 -4 1 -6 -7 -4
-9 2 -16 -6 -18 -19 -3 -22 0 -23 57 -23 48 0 60 3 64 18 4 16 5 16 6 0 1 -16
12 -18 76 -18 l75 0 0 35 c0 23 -5 35 -14 35 -19 0 -26 22 -26 81 0 37 -4 49
-15 49 -11 0 -15 -12 -15 -48 0 -27 -6 -57 -15 -68 -12 -16 -14 -17 -15 -2 0
12 -12 17 -51 20 -28 1 -56 0 -63 -4 -7 -4 -38 -4 -69 -1 l-57 6 0 48 c0 37
-4 49 -15 49 -11 0 -15 -12 -15 -49z m260 -101 c0 -5 -4 -10 -10 -10 -5 0 -10
5 -10 10 0 6 5 10 10 10 6 0 10 -4 10 -10z"/>
<path d="M1582 2213 c3 -121 5 -138 19 -137 14 1 16 -8 13 -63 -3 -58 -1 -66
16 -70 11 -3 20 -12 20 -19 0 -11 27 -14 135 -14 108 0 135 3 135 14 0 7 10
16 21 19 20 5 21 11 16 68 -5 55 -3 62 14 66 18 5 19 16 19 139 0 127 -1 134
-20 134 -18 0 -20 -7 -20 -80 0 -58 -4 -81 -14 -87 -8 -4 -16 -21 -18 -37 -4
-36 -23 -45 -31 -15 -6 23 -30 21 -35 -3 -2 -9 6 -18 20 -21 19 -5 20 -9 10
-19 -11 -11 -16 -10 -26 5 -16 21 -36 22 -36 2 0 -13 -15 -15 -97 -13 l-98 3
-3 133 c-2 124 -4 132 -23 132 -19 0 -19 -6 -17 -137z"/>
<path d="M204 5256 c-8 -21 3 -36 27 -36 15 0 20 6 17 22 -4 27 -35 37 -44 14z"/>
<path d="M660 5174 c0 -19 5 -24 25 -24 20 0 25 5 25 24 0 18 -5 24 -25 24
-20 0 -25 -6 -25 -24z"/>
<path d="M3900 5040 c0 -13 7 -20 20 -20 13 0 20 7 20 20 0 13 -7 20 -20 20
-13 0 -20 -7 -20 -20z"/>
<path d="M206 4772 c-3 -3 -6 -14 -6 -24 0 -13 7 -18 26 -18 20 0 25 4 22 22
-3 20 -30 33 -42 20z"/>
<path d="M4078 4773 c-10 -3 -18 -13 -18 -24 0 -14 7 -19 25 -19 18 0 25 5 25
19 0 23 -8 29 -32 24z"/>
<path d="M450 4631 c0 -12 6 -21 15 -21 8 0 18 0 23 0 19 0 5 35 -15 38 -18 3
-23 -2 -23 -17z"/>
<path d="M167 4404 c-4 -4 -7 -16 -7 -26 0 -13 7 -18 26 -18 21 0 25 4 22 22
-3 23 -27 35 -41 22z"/>
<path d="M410 4300 c0 -13 7 -20 20 -20 13 0 20 7 20 20 0 13 -7 20 -20 20
-13 0 -20 -7 -20 -20z"/>
<path d="M3730 4015 c0 -20 5 -25 25 -25 20 0 25 5 25 25 0 20 -5 25 -25 25
-20 0 -25 -5 -25 -25z"/>
<path d="M202 3768 c2 -15 10 -23 23 -23 13 0 21 8 23 23 3 18 -1 22 -23 22
-22 0 -26 -4 -23 -22z"/>
<path d="M4100 3725 c0 -20 5 -25 25 -25 20 0 25 5 25 25 0 20 -5 25 -25 25
-20 0 -25 -5 -25 -25z"/>
<path d="M3980 3400 c0 -14 7 -20 24 -20 19 0 23 4 19 20 -3 11 -14 20 -24 20
-12 0 -19 -7 -19 -20z"/>
<path d="M415 3172 c-14 -14 -3 -42 15 -42 14 0 20 7 20 23 0 21 -21 33 -35
19z"/>
<path d="M290 2905 c0 -18 5 -25 20 -25 15 0 20 7 20 25 0 18 -5 25 -20 25
-15 0 -20 -7 -20 -25z"/>
<path d="M3730 2785 c0 -22 4 -26 23 -23 14 2 22 10 22 23 0 13 -8 21 -22 23
-19 3 -23 -1 -23 -23z"/>
<path d="M167 2724 c-4 -4 -7 -16 -7 -26 0 -13 7 -18 26 -18 21 0 25 4 22 22
-3 23 -27 35 -41 22z"/>
<path d="M4100 2416 c0 -21 5 -26 26 -26 21 0 25 4 22 23 -2 14 -11 23 -25 25
-19 3 -23 -1 -23 -22z"/>
<path d="M410 2335 c0 -18 5 -25 20 -25 15 0 20 7 20 25 0 18 -5 25 -20 25
-15 0 -20 -7 -20 -25z"/>
<path d="M160 2131 c0 -10 9 -21 19 -24 24 -6 31 0 31 25 0 13 -7 18 -25 18
-18 0 -25 -5 -25 -19z"/>
<path d="M410 2045 c0 -18 5 -25 20 -25 15 0 20 7 20 25 0 18 -5 25 -20 25
-15 0 -20 -7 -20 -25z"/>
<path d="M3730 1760 c0 -15 7 -20 25 -20 18 0 25 5 25 20 0 15 -7 20 -25 20
-18 0 -25 -5 -25 -20z"/>
<path d="M207 1534 c-4 -4 -7 -16 -7 -26 0 -13 7 -18 26 -18 21 0 25 4 22 22
-3 23 -27 35 -41 22z"/>
<path d="M4118 1493 c-10 -3 -18 -13 -18 -24 0 -14 7 -19 25 -19 18 0 25 5 25
19 0 23 -8 29 -32 24z"/>
<path d="M3980 1145 c0 -18 5 -25 20 -25 15 0 20 7 20 25 0 18 -5 25 -20 25
-15 0 -20 -7 -20 -25z"/>
<path d="M410 901 c0 -10 9 -21 20 -24 16 -4 20 0 20 19 0 17 -6 24 -20 24
-13 0 -20 -7 -20 -19z"/>
<path d="M1266 813 c-3 -3 -6 -35 -6 -70 0 -47 4 -63 14 -63 7 0 16 -9 19 -20
3 -11 12 -20 21 -20 9 0 16 8 16 20 0 13 -7 20 -20 20 -18 0 -20 7 -20 64 0
60 -8 84 -24 69z"/>
<path d="M2270 775 c0 -8 -7 -15 -15 -15 -11 0 -15 -12 -15 -48 l0 -49 203 1
202 1 3 43 c3 37 0 44 -17 49 -12 3 -21 12 -21 19 0 11 -32 14 -170 14 -144 0
-170 -2 -170 -15z"/>
<path d="M286 672 c-2 -2 -2 -12 1 -23 8 -29 43 -25 43 5 0 19 -5 24 -20 23
-12 -1 -23 -3 -24 -5z"/>
<path d="M931 618 l-1 -68 200 0 200 0 0 30 0 30 -185 0 c-178 0 -185 1 -185
20 0 11 -4 20 -9 20 -5 0 -12 8 -14 18 -3 9 -5 -13 -6 -50z"/>
<path d="M700 525 c0 -13 17 -15 112 -13 78 2 113 7 116 16 3 9 -24 12 -112
12 -98 0 -116 -2 -116 -15z"/>
<path d="M1330 525 c0 -13 56 -15 440 -15 384 0 440 2 440 15 0 13 -56 15
-440 15 -384 0 -440 -2 -440 -15z"/>
<path d="M2680 525 c0 -13 41 -15 310 -15 l310 0 0 -45 0 -45 -255 0 c-220 0
-255 -2 -255 -15 0 -13 45 -15 349 -15 l348 0 1 75 1 75 -404 0 c-353 0 -405
-2 -405 -15z"/>
<path d="M3730 525 c0 -9 9 -15 25 -15 16 0 25 6 25 15 0 9 -9 15 -25 15 -16
0 -25 -6 -25 -15z"/>
<path d="M162 448 c2 -15 11 -24 26 -26 18 -3 22 1 22 22 0 21 -5 26 -26 26
-21 0 -25 -4 -22 -22z"/>
<path d="M723 423 c-13 -2 -23 -11 -23 -19 0 -11 20 -14 99 -14 88 0 99 2 97
17 -2 14 -16 17 -77 19 -41 0 -84 -1 -96 -3z"/>
<path d="M1360 410 c0 -17 7 -20 40 -20 61 0 41 35 -22 39 -12 1 -18 -6 -18
-19z"/>
<path d="M2163 423 c-12 -2 -24 -11 -27 -19 -4 -11 4 -14 35 -14 32 0 40 3 37
17 -3 18 -13 22 -45 16z"/>
<path d="M2680 411 c0 -17 6 -21 35 -21 24 0 35 5 35 15 0 8 -6 15 -12 15 -7
0 -23 3 -35 6 -19 5 -23 2 -23 -15z"/>
<path d="M1480 405 c0 -13 41 -15 305 -15 264 0 305 2 305 15 0 13 -41 15
-305 15 -264 0 -305 -2 -305 -15z"/>
<path d="M723 372 c-22 -3 -23 -7 -23 -118 0 -109 -1 -114 -21 -114 -14 0 -19
-5 -17 -18 3 -15 18 -17 116 -20 l112 -3 1 98 c0 54 1 116 2 138 l2 40 -75 0
c-41 0 -85 -1 -97 -3z"/>
<path d="M1360 240 l0 -140 34 0 c23 0 36 6 40 17 4 9 6 70 5 134 l-1 117 -30
6 c-17 3 -34 6 -39 6 -5 0 -9 -63 -9 -140z"/>
<path d="M1480 238 l0 -138 305 0 305 0 0 135 0 134 -305 3 -305 3 0 -137z"/>
<path d="M2158 373 c-16 -4 -18 -19 -18 -139 l0 -134 35 0 36 0 -3 137 c-3
145 -4 149 -50 136z"/>
<path d="M2677 323 c-4 -32 -5 -83 -3 -113 2 -30 4 -67 5 -82 1 -25 5 -28 36
-28 l35 0 0 135 c0 101 -3 135 -12 135 -7 0 -23 3 -34 6 -20 5 -22 1 -27 -53z"/>
<path d="M3058 372 l-268 -2 0 -135 0 -136 348 3 347 3 3 133 c2 121 1 132
-15 133 -46 3 -170 4 -415 1z"/>
<path d="M4100 160 c0 -15 7 -20 25 -20 18 0 25 5 25 20 0 15 -7 20 -25 20
-18 0 -25 -5 -25 -20z"/>
</g>
</svg>
