<?xml version="1.0" standalone="no"?>
<!DOCTYPE svg PUBLIC "-//W3C//DTD SVG 20010904//EN"
 "http://www.w3.org/TR/2001/REC-SVG-20010904/DTD/svg10.dtd">
<svg version="1.0" xmlns="http://www.w3.org/2000/svg"
 width="435.000000pt" height="574.000000pt" viewBox="0 0 435.000000 574.000000"
 preserveAspectRatio="xMidYMid meet">

<g transform="translate(0.000000,574.000000) scale(0.100000,-0.100000)"
fill="#000000" stroke="none">
<path d="M4014 5583 c19 -23 19 -23 0 -45 l-19 -23 23 19 c22 19 22 19 45 0
l22 -19 -19 23 c-19 22 -19 22 0 45 l19 22 -22 -19 c-23 -19 -23 -19 -45 0
l-23 19 19 -22z"/>
<path d="M370 5555 c0 -28 4 -35 20 -35 23 0 27 28 5 36 -8 4 -15 11 -15 16 0
6 7 7 16 4 8 -3 12 -2 9 4 -15 24 -35 9 -35 -25z m30 -15 c0 -5 -4 -10 -10
-10 -5 0 -10 5 -10 10 0 6 5 10 10 10 6 0 10 -4 10 -10z"/>
<path d="M669 5573 c-13 -16 -12 -17 3 -4 10 7 25 11 33 7 9 -3 13 -2 10 4
-10 15 -31 12 -46 -7z"/>
<path d="M741 5553 c1 -36 2 -36 8 -9 l6 29 14 -26 c20 -38 31 -34 30 11 -1
36 -1 37 -8 7 l-8 -30 -13 28 c-18 38 -30 34 -29 -10z"/>
<path d="M452 5545 c0 -16 2 -22 5 -12 2 9 2 23 0 30 -3 6 -5 -1 -5 -18z"/>
<path d="M475 5560 c-8 -13 5 -13 25 0 13 8 13 10 -2 10 -9 0 -20 -4 -23 -10z"/>
<path d="M530 5553 c0 -13 2 -23 4 -23 2 0 13 -3 23 -6 15 -5 16 -4 3 5 -13
10 -13 13 4 26 11 8 15 15 9 15 -7 0 -15 -5 -19 -11 -4 -8 -9 -7 -15 2 -6 10
-9 8 -9 -8z"/>
<path d="M3268 5553 c12 -2 32 -2 45 0 12 2 2 4 -23 4 -25 0 -35 -2 -22 -4z"/>
<path d="M511 5534 c0 -11 3 -14 6 -6 3 7 2 16 -1 19 -3 4 -6 -2 -5 -13z"/>
<path d="M583 5528 c1 -15 6 -23 11 -18 4 4 4 16 -2 26 -9 16 -10 14 -9 -8z"/>
<path d="M666 5536 c7 -18 39 -22 49 -6 3 6 -1 7 -10 4 -8 -4 -22 -1 -30 6
-13 11 -14 10 -9 -4z"/>
<path d="M311 5524 c0 -11 3 -14 6 -6 3 7 2 16 -1 19 -3 4 -6 -2 -5 -13z"/>
<path d="M700 5420 c0 -5 -9 -10 -20 -10 -19 0 -20 -7 -20 -265 0 -258 1 -265
20 -265 19 0 20 -7 20 -170 0 -162 1 -170 19 -170 11 0 23 -5 27 -11 3 -6 16
-8 28 -5 11 3 38 3 58 0 28 -5 38 -12 43 -31 3 -15 17 -28 34 -34 34 -12 43
-39 35 -102 -6 -40 -2 -50 35 -108 l40 -64 -35 -30 c-46 -40 -55 -90 -25 -138
l21 -34 -57 -36 -57 -36 -26 28 c-31 36 -98 48 -142 25 -15 -8 -28 -16 -28
-18 0 -2 14 -29 30 -60 l31 -57 -26 -20 c-59 -47 -73 -79 -35 -79 11 0 20 -3
21 -7 1 -5 3 -133 5 -287 3 -270 3 -278 -16 -283 -19 -5 -20 -15 -20 -308 0
-282 1 -303 18 -301 16 1 17 -16 20 -211 2 -208 2 -213 -18 -213 -19 0 -20 -6
-20 -154 0 -145 1 -154 20 -159 19 -5 20 -14 20 -291 0 -279 0 -286 -20 -286
-20 0 -20 -7 -20 -285 0 -278 0 -285 20 -285 20 0 20 -7 20 -280 l0 -280 364
0 c313 0 365 2 370 15 3 8 5 86 4 172 0 154 0 158 21 161 21 3 21 1 21 -172
l0 -176 305 0 305 0 0 175 0 175 25 0 25 0 0 -175 0 -175 305 0 305 0 0 175
c0 168 1 175 20 175 19 0 20 -7 20 -175 l0 -175 345 2 346 3 2 215 c2 215 2
215 24 218 l23 3 0 280 c0 267 -1 279 -19 279 -10 0 -20 8 -22 18 -2 9 -4 159
-4 332 l0 315 23 3 c22 3 22 5 22 178 0 164 -1 174 -19 174 -22 0 -29 24 -26
90 1 38 5 45 23 48 l22 3 0 345 c0 337 0 344 -20 344 -11 0 -20 6 -20 13 -1 6
-1 143 0 304 1 290 1 291 -21 307 -21 14 -21 17 -7 33 8 10 25 37 38 60 l23
42 -28 23 c-16 13 -38 28 -50 34 -26 13 -22 47 9 85 13 15 26 34 28 40 3 9 9
9 26 0 21 -11 22 -10 22 35 l0 47 -21 -27 c-22 -28 -46 -28 -79 -2 -8 7 -27
17 -43 24 -25 11 -29 9 -55 -27 -15 -21 -32 -47 -38 -56 -9 -17 -15 -15 -67
19 -39 24 -57 42 -55 54 2 11 -4 18 -17 20 -11 1 -26 16 -33 31 -7 16 -20 32
-29 35 -18 7 -59 -26 -69 -56 -5 -16 -12 -18 -44 -13 -32 5 -40 3 -58 -19 -19
-25 -19 -29 -5 -77 8 -27 13 -72 11 -99 -2 -41 0 -49 12 -45 8 2 26 -4 40 -15
21 -16 23 -22 13 -37 -20 -28 -53 -91 -53 -100 0 -5 12 -16 28 -26 15 -9 38
-25 51 -36 l24 -18 -23 -39 c-42 -70 -48 -74 -78 -58 -24 12 -27 12 -34 -5 -6
-18 -46 -31 -94 -31 l-24 0 0 -150 c0 -141 -1 -150 -19 -150 -18 0 -20 11 -24
173 -5 185 -17 269 -38 276 -7 2 -22 14 -33 27 -26 30 -49 53 -83 83 -24 22
-27 22 -39 7 -6 -9 -12 -43 -13 -74 -3 -114 -7 -162 -17 -172 -9 -9 -141 -18
-146 -10 -2 3 -12 30 -22 60 -17 51 -30 69 -48 70 -5 0 -8 -11 -8 -25 0 -14
-4 -25 -10 -25 -13 0 -45 -32 -60 -59 -7 -13 -25 -23 -50 -27 l-40 -7 0 -96
c0 -66 3 -91 10 -81 5 8 7 30 4 48 -6 32 -5 33 22 30 25 -3 29 -8 32 -40 4
-47 27 -69 38 -36 4 13 8 28 9 33 0 6 31 11 70 11 60 2 72 -1 86 -19 l17 -20
6 21 c4 12 16 22 26 22 26 0 37 -53 17 -83 -12 -19 -22 -22 -56 -19 -25 3 -41
9 -41 17 0 11 -5 11 -27 0 -20 -10 -41 -11 -73 -5 -28 5 -52 4 -64 -2 -10 -5
-31 -7 -47 -4 -17 3 -29 1 -29 -5 0 -33 81 -65 126 -49 17 6 42 6 59 2 17 -5
41 -4 56 2 18 6 38 6 60 0 29 -8 34 -14 34 -39 0 -25 -5 -32 -32 -40 -18 -5
-33 -13 -33 -17 0 -9 -44 -11 -53 -2 -3 4 -41 7 -84 8 -73 1 -78 2 -81 24 -4
28 -16 28 -29 -1 -10 -22 -17 -23 -89 -23 l-79 1 0 35 c0 27 6 37 25 47 14 7
35 11 48 8 20 -5 22 -2 22 30 0 31 -3 35 -25 35 -14 0 -25 -4 -25 -10 0 -5
-11 -10 -26 -10 -24 0 -25 2 -22 48 l3 47 48 3 47 3 0 65 0 64 -42 2 c-58 3
-104 5 -160 6 -41 2 -48 5 -54 26 -3 14 -18 29 -35 37 -47 19 -53 41 -55 192
-1 150 10 217 37 217 18 0 49 30 49 49 0 19 47 31 126 31 58 0 74 3 74 14 0
26 -23 31 -142 31 -104 0 -118 -2 -118 -17 0 -9 5 -20 10 -23 18 -11 10 -20
-46 -55 l-57 -34 -21 27 c-12 15 -29 40 -39 56 l-17 29 34 20 c22 13 38 33 46
56 10 32 9 41 -9 72 -12 19 -21 39 -21 44 0 10 89 70 104 70 6 0 22 -18 36
-40 14 -22 29 -40 34 -40 5 0 6 42 1 103 -4 56 -7 111 -7 122 1 27 -16 45 -45
45 -43 0 -78 26 -91 67 -7 24 -8 39 -2 41 6 2 8 8 4 13 -3 5 2 9 11 9 28 0 14
31 -100 207 l-110 171 -3 -59 c-2 -33 -6 -59 -10 -59 -16 0 -33 44 -38 103 -2
34 -6 76 -8 92 -3 22 2 34 19 47 23 17 24 17 58 -35 110 -168 209 -320 241
-372 69 -110 59 -105 220 -104 185 1 196 -2 196 -51 0 -22 -4 -41 -8 -44 -5
-3 -35 -7 -67 -10 -32 -3 -62 -10 -66 -18 -16 -25 -10 -161 10 -204 15 -34 16
-43 5 -58 -21 -29 -6 -48 35 -45 53 3 61 1 61 -16 0 -8 4 -15 9 -15 5 0 12
-17 16 -37 4 -21 21 -56 39 -78 17 -22 40 -53 50 -69 10 -15 27 -31 37 -33 10
-3 19 -13 19 -22 1 -26 38 -101 51 -101 8 0 10 20 7 69 -3 45 -1 80 8 100 12
28 17 31 57 31 74 0 106 -10 109 -34 2 -13 17 -28 41 -39 21 -11 37 -26 37
-36 0 -9 15 -25 33 -36 17 -10 39 -28 48 -39 10 -12 22 -17 32 -13 14 5 17 19
15 79 -2 40 1 89 5 108 9 34 8 34 -28 -17 -21 -29 -43 -53 -50 -53 -13 0 -105
59 -105 67 0 3 9 21 21 39 30 49 18 98 -31 130 -28 19 -36 30 -33 44 3 11 2
31 -1 46 -6 22 -11 25 -33 19 -17 -4 -31 -1 -43 10 -17 15 -19 15 -28 -2 -5
-10 -8 -29 -5 -43 2 -14 -4 -59 -14 -101 -17 -74 -18 -76 -55 -87 -29 -9 -47
-9 -77 0 -36 11 -39 16 -45 56 -3 25 -6 143 -6 262 0 167 3 220 13 228 15 13
128 19 146 8 6 -4 17 -22 25 -40 10 -24 22 -35 42 -39 16 -3 32 -3 37 0 7 4
151 220 235 354 23 36 42 71 42 77 0 16 39 78 46 74 4 -2 23 21 43 52 36 53
38 55 59 40 12 -8 22 -21 22 -27 0 -7 -30 -57 -65 -112 l-65 -100 0 -76 c0
-62 -4 -81 -20 -100 l-19 -24 -1 70 0 70 -60 -93 c-33 -51 -60 -94 -60 -97 0
-3 13 -5 29 -5 17 0 32 -4 36 -9 3 -5 18 -12 34 -16 21 -4 31 -14 36 -33 7
-28 32 -62 47 -62 4 0 8 15 8 34 0 52 9 66 41 66 37 0 37 14 -1 37 -17 9 -30
21 -30 25 0 13 64 108 73 108 6 0 77 -44 105 -66 2 -1 -8 -23 -23 -48 l-26
-45 20 -20 c12 -12 21 -25 21 -31 0 -5 12 -20 26 -33 l26 -24 -26 -51 c-31
-62 -31 -62 -6 -62 12 0 22 9 26 24 4 16 17 29 37 35 l30 11 -21 23 c-12 13
-22 27 -22 31 0 6 45 77 66 104 1 2 14 -4 28 -13 41 -27 119 -12 151 28 24 32
24 32 44 12 15 -16 18 -30 14 -76 -5 -52 -7 -57 -38 -68 -25 -9 -35 -20 -40
-41 -4 -19 -13 -30 -24 -30 -22 0 -41 -19 -34 -36 2 -7 -8 -30 -23 -50 -26
-33 -27 -37 -11 -49 9 -7 17 -17 17 -24 0 -14 13 -14 28 1 9 9 17 8 37 -2 22
-12 24 -18 19 -52 -7 -42 5 -64 43 -79 16 -6 23 -17 23 -36 l0 -28 26 30 c14
17 29 36 33 43 6 11 16 10 51 -7 24 -12 45 -21 47 -21 2 0 3 29 3 65 0 63 -1
65 -25 65 -19 0 -31 -10 -46 -34 l-20 -35 -52 29 c-28 15 -53 33 -55 39 -2 7
8 27 22 46 14 18 26 38 26 44 0 21 19 20 61 -3 l44 -23 0 296 0 296 23 3 c22
3 22 4 22 201 0 177 -2 201 -20 236 -11 22 -22 61 -25 88 -3 27 -7 53 -11 58
-3 5 -150 9 -345 9 l-339 0 0 -50 c0 -43 -3 -50 -20 -50 -17 0 -20 7 -20 50
l0 50 -305 0 -305 0 0 -50 c0 -47 -2 -50 -25 -50 -23 0 -25 3 -25 50 l0 50
-305 0 -305 0 0 -50 c0 -43 -3 -50 -19 -50 -17 0 -20 8 -23 48 l-3 47 -367 3
c-244 1 -368 -1 -368 -8z m2769 -119 c20 -18 31 -39 31 -55 0 -34 -41 -76 -75
-76 -34 0 -75 42 -75 76 0 27 51 84 75 84 7 0 27 -13 44 -29z m-1329 -526 l0
-225 -25 0 -25 0 0 225 0 225 25 0 25 0 0 -225z m-852 -83 c17 -27 32 -51 32
-55 0 -3 -25 -22 -55 -42 -30 -21 -55 -38 -55 -40 0 -2 6 -10 14 -17 7 -8 23
-33 35 -56 20 -39 20 -44 6 -65 -16 -23 -22 -167 -7 -167 4 0 30 14 56 31 27
16 49 29 51 27 1 -2 16 -25 34 -51 34 -49 40 -53 45 -21 2 10 9 20 16 22 9 3
11 -1 7 -11 -10 -25 15 -26 55 0 l38 23 35 -52 c19 -29 35 -56 35 -60 0 -4
-21 -21 -47 -39 -27 -18 -49 -33 -50 -34 -2 -1 11 -30 27 -64 35 -71 35 -70
-42 -111 -21 -11 -38 -26 -38 -33 1 -6 16 -34 35 -62 l35 -50 -21 -17 c-31
-26 -41 -22 -72 29 -25 41 -27 51 -19 83 6 24 5 48 -2 71 l-11 34 -82 2 c-46
1 -83 -1 -83 -5 0 -4 11 -27 25 -51 14 -23 25 -46 25 -50 0 -8 -51 -34 -55
-29 -55 76 -67 102 -56 119 7 12 7 19 1 19 -5 0 -13 0 -17 0 -5 0 -8 -7 -8
-15 0 -13 -97 -85 -113 -85 -8 1 -76 110 -71 114 2 1 21 14 42 29 44 33 48 66
16 128 l-20 41 20 15 c19 13 21 24 21 139 l0 124 -23 -5 c-19 -5 -28 2 -56 46
l-34 52 24 18 c13 10 26 19 29 19 3 0 15 -18 28 -41 18 -30 28 -39 40 -34 9 4
36 11 60 16 74 15 76 22 32 88 -17 24 -30 47 -30 51 0 9 91 70 105 70 6 0 25
-22 43 -48z m1875 13 l47 -35 -36 -55 -37 -55 -37 23 c-20 12 -46 29 -58 37
l-22 15 36 53 c19 28 41 52 47 52 7 0 33 -16 60 -35z m-1677 -49 l31 -65 -21
-18 c-21 -18 -74 -47 -88 -48 -4 0 -23 24 -42 52 l-35 53 47 32 c26 17 51 38
55 45 14 22 21 15 53 -51z m-41 -207 l35 -54 -22 -15 c-12 -8 -38 -25 -58 -37
l-37 -23 -38 57 c-20 30 -33 58 -28 62 36 27 107 70 110 67 3 -2 20 -28 38
-57z m194 -39 c17 -28 31 -54 31 -59 0 -9 -110 -75 -114 -69 -1 2 -17 27 -35
57 -26 42 -30 56 -19 62 7 4 29 19 48 33 19 14 40 25 47 26 6 0 25 -23 42 -50z
m499 -177 c2 -18 -1 -40 -7 -50 -8 -15 -12 -12 -27 19 -19 41 -13 71 13 66 12
-2 19 -14 21 -35z m1007 -276 c17 -13 16 -17 -19 -70 -21 -32 -40 -57 -42 -57
-3 0 -15 7 -28 15 l-24 16 32 54 c32 56 49 65 81 42z m-2247 -110 c18 -29 32
-56 32 -60 0 -9 -90 -67 -105 -67 -6 0 -21 20 -35 45 -14 25 -28 45 -33 45
-19 0 0 21 48 54 28 19 52 35 55 35 3 1 20 -23 38 -52z m201 -44 l34 -56 -24
-18 c-13 -11 -39 -28 -57 -39 l-32 -19 -37 54 c-20 31 -33 58 -30 61 11 11
102 73 107 73 3 0 20 -25 39 -56z m2267 2 c25 -20 25 -20 8 -55 -10 -19 -25
-45 -34 -56 l-16 -22 -50 32 c-28 17 -52 35 -54 39 -2 5 12 33 30 63 l32 54
29 -17 c16 -10 41 -27 55 -38z m-2073 -40 c36 -57 40 -59 75 -41 20 10 32 12
39 5 16 -16 57 -21 171 -23 90 -1 105 -4 118 -20 19 -27 18 -42 -6 -66 -18
-18 -33 -20 -129 -20 -153 0 -166 -8 -111 -68 17 -18 30 -44 30 -57 0 -26 -24
-55 -46 -55 -8 0 -25 -7 -38 -15 -23 -16 -25 -15 -60 41 l-35 58 49 33 c82 55
80 58 -43 66 l-78 6 31 -54 30 -53 -57 -35 -58 -35 -37 56 -37 56 42 27 c72
44 74 51 38 114 -17 30 -31 57 -31 59 0 7 93 66 104 66 6 0 24 -20 39 -45z
m1850 18 c23 -16 46 -31 50 -34 5 -4 -7 -32 -27 -63 l-37 -57 -37 22 c-20 13
-45 28 -54 33 -10 6 -18 15 -18 20 0 15 61 106 71 106 5 0 28 -12 52 -27z
m-2262 -170 c13 -23 12 -27 -5 -37 -10 -6 -35 -22 -54 -34 -35 -23 -36 -23
-49 -5 -7 10 -20 26 -27 35 -30 35 -39 60 -25 69 8 5 19 9 24 9 6 0 24 12 40
26 l30 25 26 -31 c14 -17 32 -42 40 -57z m174 -5 c17 -29 31 -56 33 -59 3 -7
-93 -69 -107 -69 -4 0 -24 24 -44 54 l-35 53 51 35 c29 20 57 36 62 37 6 0 24
-23 40 -51z m2313 28 c63 -40 65 -46 34 -104 -15 -29 -31 -52 -37 -52 -17 0
-105 59 -105 70 0 9 62 109 68 110 1 0 19 -11 40 -24z m-154 -71 l29 -23 -37
-56 -36 -55 -33 19 c-72 44 -81 55 -67 81 7 13 24 39 38 56 23 32 25 32 51 17
14 -9 39 -26 55 -39z m-2385 -136 l21 -37 -25 -16 c-24 -16 -25 -15 -41 11 -9
16 -26 41 -36 56 -11 16 -18 29 -16 30 1 1 12 7 23 14 23 13 38 1 74 -58z
m187 -24 c21 -30 35 -57 33 -59 -8 -8 -106 -66 -111 -66 -9 0 -70 100 -66 110
3 10 87 68 100 69 4 1 24 -24 44 -54z m2388 36 c10 -11 31 -25 47 -31 37 -16
36 -27 -1 -68 -16 -18 -34 -40 -39 -50 -9 -16 -11 -15 -33 4 -13 11 -35 25
-50 32 -31 13 -36 33 -13 52 8 7 15 17 15 22 0 15 34 57 46 58 6 0 19 -9 28
-19z m-2191 -76 l36 -56 -56 -36 -57 -36 -21 26 c-11 15 -28 40 -38 57 l-18
30 53 34 c29 19 56 35 59 35 3 1 22 -24 42 -54z m2013 23 c29 -18 54 -36 54
-40 0 -12 -61 -108 -69 -108 -6 0 -98 55 -110 65 -3 4 62 114 67 115 2 0 28
-15 58 -32z m-1746 -164 c0 -121 -3 -146 -15 -151 -9 -3 -18 -3 -21 0 -3 2 -6
65 -6 140 -1 99 2 140 11 151 7 9 17 13 22 10 5 -3 9 -70 9 -150z m388 20 c48
-31 34 -71 -32 -91 -53 -16 -66 7 -50 86 6 29 10 32 33 26 14 -3 36 -13 49
-21z m-891 -39 l31 -54 -25 -16 c-13 -9 -26 -15 -27 -13 -2 2 -19 26 -39 54
-33 48 -34 53 -19 68 27 27 46 18 79 -39z m2482 29 c1 -1 -9 -18 -23 -37 -14
-19 -26 -39 -26 -44 0 -25 -25 -31 -48 -12 l-24 19 23 32 c43 64 50 68 73 56
11 -6 23 -12 25 -14z m-1869 -288 c0 -33 10 -57 21 -50 5 3 9 13 9 24 0 10 7
21 16 24 26 10 79 7 92 -6 9 -9 17 -9 35 1 40 21 77 10 92 -26 20 -48 1 -63
-81 -63 -60 0 -65 2 -74 25 -12 31 -18 31 -30 1 -8 -21 -15 -24 -79 -25 -56
-1 -71 2 -71 13 0 8 5 18 11 22 6 3 8 15 6 26 -7 26 13 58 35 58 12 0 18 -8
18 -24z m382 4 c20 -18 20 -21 6 -37 -9 -10 -18 -27 -20 -38 -6 -35 -32 -27
-52 16 -17 38 -17 41 -1 60 23 24 40 24 67 -1z m492 1 c17 -18 17 -21 1 -45
-10 -14 -14 -26 -10 -26 4 0 2 -7 -5 -15 -15 -18 -40 -20 -40 -2 0 6 -7 25
-15 41 -14 26 -14 31 1 48 22 23 46 23 68 -1z m111 -21 c8 -45 21 -51 35 -16
5 13 17 26 27 29 35 9 169 6 196 -5 21 -8 31 -8 40 1 12 12 56 15 73 3 6 -4
15 -21 18 -38 10 -44 -9 -56 -86 -52 -54 3 -64 6 -73 26 -12 28 -23 28 -27 0
-3 -20 -9 -23 -72 -25 -38 -2 -74 2 -81 7 -9 8 -15 8 -20 0 -8 -13 -92 -13
-101 1 -3 6 -1 16 5 22 6 6 11 21 11 33 0 35 11 54 30 54 13 0 20 -11 25 -40z
m-415 -8 c7 -30 24 -33 28 -4 2 12 6 22 10 23 90 7 140 8 151 0 21 -14 3 -31
-32 -31 -24 0 -28 -3 -19 -12 6 -6 22 -13 34 -15 27 -4 32 -9 24 -22 -4 -5
-52 -9 -109 -9 -104 0 -137 11 -137 45 0 25 -39 14 -55 -17 -19 -37 -32 -38
-47 -5 -8 18 -8 32 0 49 9 21 16 23 78 22 62 -1 69 -3 74 -24z m-60 -107 c7
-8 20 -15 29 -15 9 0 22 -5 29 -12 9 -9 17 -9 34 0 13 7 51 11 86 10 56 -2 63
-5 68 -25 8 -30 22 -29 30 2 12 48 59 19 50 -31 -8 -40 -19 -47 -68 -40 -56 8
-67 8 -106 0 -21 -4 -43 -2 -57 6 -30 16 -55 0 -55 -36 0 -21 5 -24 35 -24 22
0 37 -6 44 -17 9 -16 11 -16 28 -1 14 13 38 16 113 16 52 0 101 -5 108 -10 8
-7 16 -7 25 0 12 10 206 11 237 2 12 -4 16 9 18 73 3 69 5 77 22 77 18 0 20
-7 20 -69 0 -65 2 -70 23 -73 12 -2 20 -5 18 -8 -2 -3 1 -15 7 -27 15 -28 7
-50 -24 -57 -23 -6 -24 -9 -24 -111 0 -98 -1 -105 -20 -105 -19 0 -20 7 -20
110 0 67 -4 110 -10 110 -5 0 -10 7 -10 15 0 12 -4 11 -20 -5 -35 -35 -93 -21
-104 25 -9 36 -41 33 -55 -5 -10 -30 -45 -43 -53 -20 -2 7 -16 4 -37 -6 -27
-14 -40 -15 -62 -7 -20 8 -41 8 -68 1 -31 -8 -46 -7 -70 5 -19 10 -33 11 -39
5 -6 -6 -25 -11 -44 -13 l-33 -2 -3 -107 c-3 -105 -3 -106 -27 -106 -21 0 -25
5 -25 29 0 17 -4 33 -10 36 -5 3 -10 15 -10 25 0 10 -8 24 -17 29 -16 9 -16
12 10 34 25 22 38 67 19 67 -5 0 -13 12 -19 28 l-10 27 -11 -26 c-7 -19 -21
-28 -44 -33 -61 -11 -119 -11 -116 2 1 4 -2 19 -6 35 -11 39 7 57 59 57 26 0
48 6 55 15 7 8 18 15 25 15 7 0 18 -7 25 -15 7 -8 21 -15 32 -15 15 0 19 6 16
28 -3 27 -4 27 -63 24 -51 -3 -63 0 -80 17 -14 17 -16 24 -7 33 7 7 12 20 12
31 0 16 7 18 47 16 35 -3 49 1 57 14 13 21 30 22 46 2z m425 -5 c19 -21 19
-23 -15 -90 -12 -25 -29 -17 -50 24 l-20 40 22 23 c26 28 40 29 63 3z m-1045
-246 l0 -225 -22 3 c-13 2 -23 9 -22 16 1 6 2 107 3 222 1 203 2 210 21 210
19 0 20 -7 20 -226z m189 102 c6 -7 25 -16 41 -19 46 -10 56 -87 11 -87 -12 0
-21 9 -25 25 -7 29 -26 24 -26 -6 0 -14 -7 -19 -25 -19 -24 0 -25 3 -25 53 0
30 3 57 7 60 11 11 30 8 42 -7z m167 -23 c4 -21 13 -46 21 -55 13 -15 12 -18
-7 -28 -22 -12 -90 -6 -90 8 0 4 7 15 15 25 7 11 11 25 9 32 -7 18 14 55 31
55 8 0 17 -15 21 -37z m400 -147 c16 -16 19 -36 5 -36 -5 0 -11 -12 -13 -27
-2 -20 -9 -28 -23 -28 -14 0 -21 8 -23 28 -2 15 -8 27 -13 27 -15 0 -10 22 9
36 22 17 40 17 58 0z m106 -23 c4 -44 25 -56 30 -16 3 25 7 28 47 31 28 2 47
-1 52 -10 7 -10 12 -11 29 0 25 15 100 16 100 1 0 -8 4 -8 14 0 8 7 29 11 48
9 27 -2 34 -8 42 -36 12 -42 -2 -53 -61 -50 -23 1 -45 -1 -49 -5 -4 -4 -27 -7
-51 -7 -32 0 -43 4 -43 15 0 18 -17 20 -22 3 -6 -18 -38 -1 -38 21 0 32 -17
33 -23 3 -6 -27 -8 -28 -68 -30 -73 -2 -86 4 -64 28 9 10 14 24 10 29 -11 18
5 51 25 51 14 0 20 -9 22 -37z m-446 0 c3 -27 4 -27 20 -5 25 35 104 28 104
-10 0 -37 -19 -58 -53 -58 -18 0 -38 5 -45 12 -8 8 -15 8 -26 -1 -8 -7 -32
-11 -53 -9 -35 3 -38 6 -39 33 0 17 4 36 9 43 13 16 82 12 83 -5z m-416 -768
c0 -198 -2 -226 -16 -232 -9 -3 -19 -1 -23 5 -3 5 -5 109 -3 231 3 212 4 221
22 221 19 0 20 -8 20 -225z m655 193 c3 -18 5 -121 3 -228 -3 -187 -4 -195
-23 -195 -19 0 -20 8 -23 228 -2 220 -2 227 17 227 15 0 22 -9 26 -32z m655
-198 c0 -223 -1 -230 -20 -230 -19 0 -20 7 -20 230 0 223 1 230 20 230 19 0
20 -7 20 -230z m-380 -95 c0 -10 10 -15 30 -15 20 0 30 5 30 15 0 10 11 15 35
15 l35 0 0 -115 0 -115 -35 0 -35 0 0 85 c0 69 -3 85 -15 85 -8 0 -15 -9 -15
-20 0 -11 -7 -20 -15 -20 -12 0 -15 -15 -15 -71 0 -69 -1 -71 -22 -65 -13 3
-35 6 -50 6 -18 0 -28 5 -28 15 0 8 7 15 15 15 8 0 15 9 15 20 0 11 -7 20 -15
20 -12 0 -15 14 -15 65 0 51 3 65 15 65 8 0 15 7 15 15 0 10 11 15 35 15 24 0
35 -5 35 -15z m-172 -62 c-4 -22 -22 -20 -26 1 -2 10 3 16 13 16 10 0 15 -7
13 -17z m402 -3 c0 -11 -7 -20 -15 -20 -8 0 -15 9 -15 20 0 11 7 20 15 20 8 0
15 -9 15 -20z m-400 -100 c0 -38 -4 -50 -15 -50 -11 0 -15 12 -15 50 0 38 4
50 15 50 11 0 15 -12 15 -50z m400 0 c0 -38 -4 -50 -15 -50 -11 0 -15 12 -15
50 0 38 4 50 15 50 11 0 15 -12 15 -50z m-230 -74 c0 -2 -7 -7 -16 -10 -8 -3
-12 -2 -9 4 6 10 25 14 25 6z m31 -76 c109 5 99 22 99 -165 l0 -165 -35 0 -35
0 0 151 0 150 -27 -3 -28 -3 -3 -147 -3 -148 -34 0 -35 0 0 150 c0 127 -2 150
-15 150 -8 0 -15 -9 -15 -20 0 -11 -7 -20 -15 -20 -17 0 -32 47 -19 60 15 15
88 28 95 17 4 -5 35 -8 70 -7z m-961 -326 l0 -225 -22 3 c-13 2 -22 6 -20 11
1 4 2 104 2 222 0 208 1 215 20 215 19 0 20 -7 20 -226z m660 1 l0 -225 -25 0
-25 0 0 225 0 225 25 0 25 0 0 -225z m634 209 c14 -5 16 -34 16 -220 0 -207
-1 -214 -20 -214 -19 0 -20 7 -20 220 0 121 2 220 4 220 2 0 11 -3 20 -6z
m-364 -419 l0 -65 30 0 30 0 0 65 0 65 35 0 35 0 0 -65 0 -65 35 0 c24 0 35 5
35 15 0 8 7 15 15 15 10 0 15 -10 15 -30 0 -29 -1 -30 -50 -30 -38 0 -50 -4
-50 -15 0 -10 -11 -15 -35 -15 -24 0 -35 5 -35 15 0 10 -10 15 -30 15 -19 0
-30 -5 -30 -14 0 -8 -14 -16 -31 -18 -24 -4 -33 -1 -36 13 -4 13 -17 19 -52
21 -42 3 -46 5 -49 31 -2 19 1 27 12 27 9 0 16 -7 16 -15 0 -10 11 -15 35 -15
l35 0 0 65 0 65 35 0 35 0 0 -65z"/>
<path d="M1250 4153 c0 -66 2 -69 46 -53 21 8 31 7 44 -5 19 -17 69 -23 89
-11 10 7 17 106 6 106 -3 0 -28 -14 -56 -32 l-52 -32 -38 45 -38 44 -1 -62z"/>
<path d="M1480 4108 c0 -18 5 -28 15 -28 19 0 19 11 0 36 -14 18 -14 18 -15
-8z"/>
<path d="M2300 2604 c0 -11 8 -14 27 -12 39 4 42 28 4 28 -21 0 -31 -5 -31
-16z"/>
<path d="M4100 5420 c0 -5 12 -10 26 -10 14 0 23 4 19 10 -3 6 -15 10 -26 10
-10 0 -19 -4 -19 -10z"/>
<path d="M410 5350 c0 -13 7 -20 20 -20 13 0 20 7 20 20 0 13 -7 20 -20 20
-13 0 -20 -7 -20 -20z"/>
<path d="M162 5148 c2 -15 11 -24 26 -26 18 -3 22 1 22 22 0 21 -5 26 -26 26
-21 0 -25 -4 -22 -22z"/>
<path d="M410 5065 c0 -18 5 -25 20 -25 15 0 20 7 20 25 0 18 -5 25 -20 25
-15 0 -20 -7 -20 -25z"/>
<path d="M3732 4778 c2 -15 10 -23 23 -23 13 0 21 8 23 23 3 18 -1 22 -23 22
-22 0 -26 -4 -23 -22z"/>
<path d="M200 4530 c0 -15 7 -20 25 -20 18 0 25 5 25 20 0 15 -7 20 -25 20
-18 0 -25 -5 -25 -20z"/>
<path d="M4100 4490 c0 -15 7 -20 25 -20 18 0 25 5 25 20 0 15 -7 20 -25 20
-18 0 -25 -5 -25 -20z"/>
<path d="M2546 4428 c-18 -33 -18 -37 -3 -59 10 -13 17 -31 17 -41 0 -10 5
-18 10 -18 17 0 23 30 12 53 -6 12 -13 40 -14 61 l-3 40 -19 -36z"/>
<path d="M723 4423 c-20 -4 -23 -11 -23 -51 0 -54 6 -66 38 -70 29 -4 46 38
35 87 -9 37 -15 41 -50 34z"/>
<path d="M2800 4295 c-6 -8 -9 -19 -5 -25 10 -15 24 -3 22 20 -2 24 -1 24 -17
5z"/>
<path d="M3530 4244 c0 -14 10 -34 22 -44 18 -15 21 -26 19 -74 l-3 -58 21 21
c12 12 21 25 21 30 0 6 10 17 21 25 28 19 19 44 -23 59 -18 6 -36 11 -39 10
-4 -1 -5 7 -2 18 4 12 0 25 -8 30 -23 14 -29 11 -29 -17z"/>
<path d="M685 4203 c-25 -7 -35 -21 -35 -54 0 -34 8 -40 31 -26 15 9 23 7 43
-12 32 -30 46 -20 46 34 0 57 -23 73 -85 58z"/>
<path d="M3980 4165 c0 -18 5 -25 20 -25 24 0 28 35 4 44 -23 9 -24 8 -24 -19z"/>
<path d="M593 4143 c-17 -6 -16 -40 1 -46 19 -7 26 1 26 30 0 23 -4 26 -27 16z"/>
<path d="M2790 4058 c0 -25 3 -29 10 -18 13 20 13 50 0 50 -5 0 -10 -15 -10
-32z"/>
<path d="M3840 4050 c0 -22 0 -43 -1 -47 -2 -17 -59 -43 -97 -45 -23 -1 -42
-5 -42 -9 0 -4 22 -23 48 -42 l49 -35 36 59 37 59 35 -17 c34 -16 36 -16 50 3
19 26 16 33 -36 69 -72 51 -79 51 -79 5z"/>
<path d="M400 3970 c0 -5 5 -10 10 -10 6 0 10 5 10 10 0 6 -4 10 -10 10 -5 0
-10 -4 -10 -10z"/>
<path d="M2735 3970 c3 -5 8 -10 11 -10 2 0 4 5 4 10 0 6 -5 10 -11 10 -5 0
-7 -4 -4 -10z"/>
<path d="M3570 3962 c0 -10 5 -23 11 -29 8 -8 8 -13 0 -17 -6 -4 -11 -20 -11
-37 0 -21 5 -29 18 -29 21 1 86 85 77 100 -3 6 -10 8 -15 5 -4 -3 -13 2 -20
10 -18 22 -60 19 -60 -3z"/>
<path d="M500 3958 c0 -21 35 -68 50 -68 9 0 27 12 39 26 18 21 20 28 10 35
-7 4 -18 5 -24 1 -15 -10 -35 -11 -35 -2 0 4 -9 10 -20 13 -11 3 -20 1 -20 -5z"/>
<path d="M383 3933 c-13 -9 -23 -21 -23 -28 0 -8 31 -60 68 -117 38 -57 89
-135 114 -173 25 -39 53 -77 62 -84 9 -7 16 -18 16 -23 0 -5 9 -18 20 -30 l20
-22 0 62 c0 49 -4 66 -22 86 -42 45 -68 85 -68 103 0 5 9 18 19 30 17 18 18
23 6 44 -8 13 -19 34 -24 46 -14 31 -24 34 -56 17 -32 -16 -35 -14 -60 41 -7
17 -22 38 -32 47 -16 14 -20 14 -40 1z"/>
<path d="M3900 3890 l-41 -60 -29 17 c-16 9 -31 15 -33 12 -2 -2 -18 -25 -35
-51 -32 -46 -39 -68 -24 -68 5 0 17 -6 27 -14 18 -13 18 -14 1 -42 -10 -16
-30 -44 -43 -62 -23 -30 -26 -31 -46 -17 -30 21 -32 20 -66 -31 -37 -53 -37
-55 -11 -77 11 -9 20 -23 20 -31 0 -16 -45 -85 -70 -107 -17 -15 -23 -47 -21
-113 1 -28 1 -29 21 -11 11 10 20 24 20 32 0 7 4 13 8 13 4 0 43 54 86 119 43
66 87 121 97 124 13 3 19 14 19 32 0 15 13 45 29 68 61 89 181 277 181 285 0
4 -12 15 -25 25 l-24 17 -41 -60z"/>
<path d="M1964 3820 c-23 -9 -34 -51 -34 -133 0 -62 11 -58 64 19 23 32 46 60
51 61 6 1 16 -9 24 -22 13 -21 12 -28 -25 -84 -32 -50 -43 -60 -64 -58 -22 2
-25 -2 -25 -30 -1 -47 12 -73 34 -73 11 0 23 -4 26 -10 3 -5 21 -10 39 -10 25
0 35 6 44 25 6 14 16 25 22 25 6 0 10 28 10 66 0 41 -4 63 -10 59 -5 -3 -10
-1 -10 4 0 6 5 11 10 11 6 0 10 28 10 64 0 57 -3 65 -25 80 -26 17 -105 21
-141 6z"/>
<path d="M3586 3794 c-9 -22 -8 -24 9 -24 8 0 15 -6 15 -14 0 -8 2 -20 3 -28
2 -7 2 -10 0 -5 -8 13 -43 7 -43 -8 0 -20 47 -65 68 -65 14 0 52 51 71 93 7
17 -34 36 -66 31 -29 -5 -33 -3 -33 15 0 25 -15 28 -24 5z"/>
<path d="M283 3670 c1 -14 8 -20 24 -20 16 0 23 6 23 20 0 15 -7 20 -24 20
-19 0 -24 -5 -23 -20z"/>
<path d="M3530 3499 c0 -11 5 -17 10 -14 6 3 10 13 10 21 0 8 -4 14 -10 14 -5
0 -10 -9 -10 -21z"/>
<path d="M160 3465 c0 -20 5 -25 25 -25 20 0 25 5 25 25 0 20 -5 25 -25 25
-20 0 -25 -5 -25 -25z"/>
<path d="M4102 3178 c2 -15 10 -23 23 -23 13 0 21 8 23 23 3 18 -1 22 -23 22
-22 0 -26 -4 -23 -22z"/>
<path d="M410 3095 c0 -18 5 -25 20 -25 15 0 20 7 20 25 0 18 -5 25 -20 25
-15 0 -20 -7 -20 -25z"/>
<path d="M200 2930 c0 -15 7 -20 25 -20 18 0 25 5 25 20 0 15 -7 20 -25 20
-18 0 -25 -5 -25 -20z"/>
<path d="M3900 2725 c0 -18 5 -25 20 -25 15 0 20 7 20 25 0 18 -5 25 -20 25
-15 0 -20 -7 -20 -25z"/>
<path d="M200 2440 c0 -15 7 -20 25 -20 18 0 25 5 25 20 0 15 -7 20 -25 20
-18 0 -25 -5 -25 -20z"/>
<path d="M4060 2440 c0 -15 7 -20 25 -20 18 0 25 5 25 20 0 15 -7 20 -25 20
-18 0 -25 -5 -25 -20z"/>
<path d="M452 2318 c2 -15 10 -23 23 -23 30 0 27 39 -3 43 -20 3 -23 0 -20
-20z"/>
<path d="M160 2070 c0 -15 7 -20 25 -20 18 0 25 5 25 20 0 15 -7 20 -25 20
-18 0 -25 -5 -25 -20z"/>
<path d="M410 1987 c0 -16 6 -23 20 -24 15 -1 20 4 20 23 0 17 -5 24 -20 24
-14 0 -20 -7 -20 -23z"/>
<path d="M3736 1722 c-3 -3 -6 -14 -6 -24 0 -13 7 -18 26 -18 20 0 25 4 22 22
-3 20 -30 33 -42 20z"/>
<path d="M202 1458 c2 -15 11 -24 26 -26 18 -3 22 1 22 22 0 21 -5 26 -26 26
-21 0 -25 -4 -22 -22z"/>
<path d="M4100 1415 c0 -20 5 -25 25 -25 20 0 25 5 25 25 0 20 -5 25 -25 25
-20 0 -25 -5 -25 -25z"/>
<path d="M3980 1085 c0 -18 5 -25 20 -25 15 0 20 7 20 25 0 18 -5 25 -20 25
-15 0 -20 -7 -20 -25z"/>
<path d="M410 840 c0 -13 7 -20 20 -20 13 0 20 7 20 20 0 13 -7 20 -20 20 -13
0 -20 -7 -20 -20z"/>
<path d="M287 613 c-9 -20 0 -38 21 -41 18 -3 22 1 22 22 0 19 -5 26 -19 26
-11 0 -22 -3 -24 -7z"/>
<path d="M3736 492 c-3 -3 -6 -14 -6 -24 0 -13 7 -18 26 -18 20 0 25 4 22 22
-3 20 -30 33 -42 20z"/>
<path d="M160 390 c0 -15 7 -20 25 -20 18 0 25 5 25 20 0 15 -7 20 -25 20 -18
0 -25 -5 -25 -20z"/>
<path d="M4104 119 c-8 -13 25 -24 37 -12 7 7 3 12 -10 16 -12 3 -24 1 -27 -4z"/>
</g>
</svg>
