<?xml version="1.0" standalone="no"?>
<!DOCTYPE svg PUBLIC "-//W3C//DTD SVG 20010904//EN"
 "http://www.w3.org/TR/2001/REC-SVG-20010904/DTD/svg10.dtd">
<svg version="1.0" xmlns="http://www.w3.org/2000/svg"
 width="435.000000pt" height="574.000000pt" viewBox="0 0 435.000000 574.000000"
 preserveAspectRatio="xMidYMid meet">

<g transform="translate(0.000000,574.000000) scale(0.100000,-0.100000)"
fill="#000000" stroke="none">
<path d="M4014 5583 c19 -23 19 -23 0 -45 l-19 -23 23 19 c22 19 22 19 45 0
l22 -19 -19 23 c-19 22 -19 22 0 45 l19 22 -22 -19 c-23 -19 -23 -19 -45 0
l-23 19 19 -22z"/>
<path d="M370 5555 c0 -28 4 -35 20 -35 23 0 27 28 5 36 -8 4 -15 11 -15 16 0
6 7 7 16 4 8 -3 12 -2 9 4 -15 24 -35 9 -35 -25z m30 -15 c0 -5 -4 -10 -10
-10 -5 0 -10 5 -10 10 0 6 5 10 10 10 6 0 10 -4 10 -10z"/>
<path d="M667 5583 c-14 -13 -7 -25 8 -13 8 7 22 10 30 6 9 -3 13 -2 10 4 -7
11 -38 13 -48 3z"/>
<path d="M741 5553 c1 -36 2 -36 8 -9 l6 29 14 -26 c20 -38 31 -34 30 11 -1
36 -1 37 -8 7 l-8 -30 -13 28 c-18 38 -30 34 -29 -10z"/>
<path d="M452 5545 c0 -16 2 -22 5 -12 2 9 2 23 0 30 -3 6 -5 -1 -5 -18z"/>
<path d="M475 5560 c-8 -13 5 -13 25 0 13 8 13 10 -2 10 -9 0 -20 -4 -23 -10z"/>
<path d="M555 5560 c-4 -6 -11 -8 -16 -5 -5 4 -9 -2 -9 -12 0 -12 8 -19 21
-20 16 -2 18 1 9 12 -7 8 -7 15 -1 19 13 8 34 -30 26 -47 -4 -6 1 -3 9 7 9 11
16 25 16 30 0 6 -4 5 -9 -3 -7 -11 -10 -9 -16 8 -7 23 -20 27 -30 11z"/>
<path d="M3268 5553 c12 -2 32 -2 45 0 12 2 2 4 -23 4 -25 0 -35 -2 -22 -4z"/>
<path d="M511 5534 c0 -11 3 -14 6 -6 3 7 2 16 -1 19 -3 4 -6 -2 -5 -13z"/>
<path d="M662 5540 c6 -19 37 -25 52 -10 8 8 7 10 -7 4 -9 -3 -25 0 -34 7 -14
12 -16 12 -11 -1z"/>
<path d="M191 5514 c0 -11 3 -14 6 -6 3 7 2 16 -1 19 -3 4 -6 -2 -5 -13z"/>
<path d="M700 5319 c0 -102 -2 -111 -20 -116 -19 -5 -20 -14 -20 -264 0 -252
1 -259 20 -259 18 0 20 -7 20 -70 0 -63 2 -70 20 -70 11 0 20 -5 20 -10 0 -6
21 -8 53 -5 58 5 67 1 84 -37 7 -15 23 -30 37 -34 29 -7 37 -31 29 -94 -5 -43
-2 -53 36 -111 l40 -64 -39 -33 c-47 -40 -53 -79 -20 -135 l21 -35 -58 -36
-57 -36 -28 34 c-25 31 -32 34 -76 31 -41 -2 -92 -18 -92 -29 0 -2 14 -29 30
-60 l31 -57 -26 -20 c-51 -41 -56 -50 -50 -83 4 -17 13 -41 21 -53 19 -30 18
-45 -6 -66 -12 -10 -20 -29 -20 -47 0 -20 -5 -30 -15 -30 -11 0 -15 11 -15 43
0 26 -9 58 -25 86 -29 49 -32 71 -10 71 9 0 18 6 21 14 6 16 -50 99 -60 88 -4
-3 -4 1 0 11 8 21 0 21 -32 1 -28 -19 -33 -15 -76 59 -24 41 -36 45 -66 20
-21 -18 -20 -19 68 -153 48 -74 94 -142 102 -150 13 -15 41 -56 65 -95 7 -11
17 -32 24 -47 15 -38 29 -35 29 7 0 23 5 35 14 35 17 0 26 -123 26 -377 0
-186 -1 -193 -20 -193 -20 0 -20 -7 -20 -305 0 -298 0 -305 20 -305 19 0 20
-7 20 -210 0 -203 -1 -210 -20 -210 -19 0 -20 -7 -20 -160 0 -153 1 -160 20
-160 20 0 20 -7 20 -290 0 -283 0 -290 -20 -290 -20 0 -20 -7 -20 -285 0 -277
1 -285 20 -285 19 0 20 -8 22 -172 l3 -172 359 2 c277 1 362 5 368 14 4 7 8
39 8 71 0 50 2 57 20 57 18 0 20 -7 20 -72 l0 -73 303 0 302 0 3 73 c3 69 4
73 25 70 20 -3 22 -9 25 -73 l3 -70 302 0 302 0 3 73 c3 64 5 72 22 72 18 0
20 -7 20 -72 l0 -73 338 1 c185 1 343 2 350 3 9 1 12 30 12 111 0 103 1 110
20 110 20 0 20 7 20 285 0 278 0 285 -20 285 -20 0 -20 7 -20 330 0 323 0 330
20 330 19 0 20 7 20 180 0 173 -1 180 -20 180 -18 0 -20 7 -20 65 0 58 2 65
20 65 20 0 20 7 20 345 0 338 0 345 -20 345 -20 0 -20 7 -20 328 -1 312 -1
326 -18 300 -9 -16 -20 -28 -24 -28 -4 0 -14 -14 -23 -30 l-16 -30 -52 30
c-28 16 -53 34 -55 39 -3 8 37 75 64 110 2 2 24 -11 50 -28 26 -17 53 -31 60
-31 25 0 54 51 54 95 0 37 -4 45 -35 66 -19 13 -35 27 -35 31 0 4 14 30 30 58
17 28 30 54 30 58 0 5 -21 21 -46 38 -26 16 -51 32 -57 36 -8 5 17 48 70 117
2 3 9 -1 15 -7 21 -21 28 -13 28 36 l-1 47 -20 -28 c-24 -32 -40 -30 -101 11
-44 29 -54 24 -95 -45 -13 -24 -27 -43 -29 -43 -3 0 -30 16 -60 35 -44 29 -54
39 -49 55 5 16 2 20 -17 20 -16 0 -27 9 -36 29 -7 16 -20 32 -29 35 -18 7 -59
-26 -69 -56 -5 -16 -12 -18 -43 -13 -30 5 -41 2 -56 -15 -21 -23 -23 -84 -4
-107 6 -7 9 -37 7 -68 -2 -45 0 -54 12 -50 8 2 26 -4 40 -15 21 -16 23 -22 13
-37 -7 -10 -22 -36 -34 -57 l-21 -40 23 -19 c13 -11 37 -29 53 -42 31 -25 29
-35 -21 -102 -23 -32 -25 -32 -52 -18 -27 13 -29 13 -34 -5 -6 -22 -76 -36
-126 -25 -25 5 -60 41 -53 53 9 12 -1 74 -13 84 -9 7 -44 41 -79 76 -68 67
-85 75 -87 40 -1 -13 -3 -34 -5 -48 -2 -14 -4 -60 -6 -102 -2 -42 -7 -81 -13
-87 -8 -8 -83 -15 -135 -12 -9 1 -21 19 -28 44 -24 77 -62 112 -62 56 0 -10
-6 -19 -13 -19 -11 0 -21 -11 -62 -67 -12 -16 -31 -18 -147 -18 -204 -1 -237
3 -244 30 -3 12 -20 29 -39 38 -41 20 -54 68 -54 217 0 118 15 190 40 190 18
0 49 30 49 48 0 22 39 32 119 32 62 0 81 3 81 14 0 29 -27 35 -143 33 -104 -1
-117 -3 -117 -19 0 -9 5 -20 10 -23 6 -3 10 -10 10 -14 0 -10 -94 -71 -109
-71 -6 0 -26 24 -46 53 -31 46 -34 53 -19 62 71 43 86 83 54 145 -11 22 -20
41 -20 44 0 7 93 66 104 66 6 0 22 -18 36 -40 38 -62 47 -58 43 17 -2 36 -7
73 -12 82 -4 9 -7 37 -6 64 2 52 -8 66 -51 70 -42 3 -69 26 -84 71 -12 37 -11
41 9 54 26 18 26 25 2 60 -45 63 -271 415 -271 421 0 3 11 14 25 23 l24 18 93
-143 c52 -78 123 -187 158 -242 99 -155 80 -144 236 -144 l134 -1 0 136 c0
135 0 135 23 132 21 -3 22 -7 25 -138 1 -74 7 -139 12 -144 13 -13 13 -59 1
-71 -6 -6 -11 -30 -13 -55 -2 -37 -6 -45 -23 -45 -16 0 -21 8 -23 43 -3 37 -6
42 -27 42 -43 0 -55 -24 -55 -108 0 -53 6 -90 19 -117 15 -33 16 -43 5 -60
-18 -29 5 -61 34 -46 15 8 23 6 37 -9 10 -11 24 -20 31 -20 7 0 16 -17 20 -37
4 -21 21 -56 38 -78 18 -22 40 -53 50 -69 10 -15 26 -30 35 -33 10 -3 22 -22
29 -47 6 -23 20 -53 32 -67 l21 -24 -4 77 c-2 49 1 87 9 107 12 29 16 31 66
31 74 0 92 -7 106 -40 7 -16 25 -33 41 -38 17 -6 31 -20 35 -35 3 -15 18 -29
36 -37 16 -7 30 -18 30 -25 0 -6 11 -17 25 -23 29 -14 28 -17 30 88 0 41 5 89
9 105 7 25 2 21 -29 -22 -21 -29 -42 -53 -48 -53 -12 0 -107 60 -107 67 0 3 9
21 21 39 30 49 18 98 -31 130 -28 19 -36 30 -33 44 3 11 2 32 -1 46 -6 23 -11
26 -36 20 -23 -4 -33 -1 -44 16 -14 19 -16 20 -22 4 -3 -9 -7 -38 -8 -64 -1
-26 -8 -75 -16 -109 -12 -53 -17 -63 -35 -63 -12 0 -26 -5 -33 -12 -9 -9 -22
-8 -54 2 -24 8 -45 15 -47 17 -9 6 -11 509 -2 522 11 17 110 30 141 19 11 -4
27 -24 36 -43 8 -19 21 -35 28 -35 8 0 21 -3 29 -6 10 -4 30 17 63 65 32 45
51 66 56 58 5 -7 8 -2 8 13 0 23 35 81 229 377 65 100 68 102 89 87 12 -8 22
-21 22 -27 0 -7 -29 -57 -65 -112 l-65 -100 0 -75 c0 -59 -5 -80 -20 -100
l-20 -25 0 70 0 69 -60 -92 c-33 -51 -60 -95 -60 -98 0 -2 15 -4 34 -4 19 0
36 -5 38 -12 6 -18 48 -21 48 -2 0 9 7 14 18 12 13 -2 18 -16 22 -57 6 -61 30
-85 30 -29 0 44 11 59 51 67 l34 7 -37 25 c-21 13 -38 28 -38 32 0 12 63 107
72 107 11 0 108 -62 108 -69 0 -3 -12 -24 -25 -46 -28 -45 -31 -65 -11 -65 8
0 18 -9 21 -20 4 -11 18 -31 32 -44 l25 -23 -27 -53 c-20 -39 -24 -55 -15 -64
8 -8 15 -6 26 8 8 11 14 25 14 32 0 7 14 17 32 23 l31 11 -23 25 -23 24 26 43
c47 77 42 73 72 54 40 -26 117 -14 148 24 22 26 25 27 50 13 23 -11 26 -17 17
-33 -5 -10 -10 -37 -10 -59 0 -36 -3 -40 -34 -51 -26 -8 -36 -18 -41 -41 -4
-18 -13 -29 -24 -29 -22 0 -41 -19 -34 -36 2 -7 -7 -28 -21 -47 -29 -38 -33
-57 -11 -57 8 0 15 -7 15 -15 0 -18 12 -19 28 -3 9 9 17 8 37 -2 22 -12 24
-18 19 -52 -7 -42 5 -64 43 -79 16 -6 23 -17 23 -36 1 -28 1 -28 39 16 30 34
43 42 60 36 19 -6 21 -3 21 42 l0 48 -24 -29 c-21 -27 -25 -29 -52 -18 -16 7
-42 23 -58 36 l-30 23 22 34 c45 70 48 72 74 56 13 -8 33 -18 46 -22 l23 -7
-7 99 c-4 55 -3 143 1 196 6 86 9 97 26 97 18 0 19 10 19 195 0 186 -1 195
-19 195 -17 0 -20 9 -23 71 -2 55 1 77 14 98 22 32 23 60 4 87 -8 12 -16 47
-18 80 l-3 59 -347 3 -348 2 0 -155 c0 -148 -1 -155 -20 -155 -19 0 -20 7 -20
155 l0 155 -305 0 -304 0 -3 -152 c-3 -150 -3 -153 -25 -156 l-23 -3 0 155 0
156 -305 0 -305 0 0 -155 c0 -148 -1 -155 -20 -155 -11 0 -20 6 -21 13 0 6 -1
75 -2 152 l-2 140 -367 3 -368 2 0 -111z m2795 -53 c20 -57 -44 -113 -100 -88
-56 26 -57 99 -3 132 31 19 33 19 63 2 16 -10 34 -31 40 -46z m-2207 -574 c17
-27 32 -51 32 -55 0 -3 -25 -22 -55 -42 -59 -37 -64 -45 -39 -66 8 -7 24 -30
35 -51 18 -35 18 -41 4 -61 -16 -23 -22 -167 -7 -167 5 0 30 14 56 31 26 17
48 30 50 28 2 -2 19 -29 39 -59 l37 -54 -53 -33 c-28 -18 -56 -32 -62 -32 -5
0 -23 19 -40 42 l-30 42 -3 -59 c-2 -32 0 -61 3 -64 3 -3 20 -1 36 5 27 10 35
9 58 -8 24 -17 36 -19 94 -13 37 4 67 10 67 14 0 3 -14 27 -31 53 -17 26 -28
51 -25 56 4 5 29 23 56 40 l50 31 35 -53 c19 -28 35 -55 35 -59 0 -4 -21 -21
-47 -39 -27 -18 -49 -33 -50 -34 -2 -1 11 -30 27 -64 35 -71 36 -67 -42 -113
-21 -12 -38 -26 -38 -30 0 -5 16 -32 35 -61 l36 -52 -27 -23 c-21 -19 -29 -21
-35 -10 -6 9 -9 6 -9 -11 l0 -24 93 7 c68 5 97 4 110 -6 23 -17 29 -52 12 -75
-12 -15 -29 -18 -122 -19 -111 0 -153 -8 -153 -26 0 -5 13 -29 28 -52 15 -22
31 -46 35 -53 4 -6 -6 -19 -26 -31 -19 -11 -45 -27 -59 -36 -25 -16 -25 -16
-62 40 -21 31 -34 59 -29 63 82 57 103 74 96 81 -4 4 -45 10 -91 13 l-82 6 11
-22 c7 -12 21 -35 32 -51 l20 -29 -22 -16 c-13 -10 -38 -26 -57 -36 l-35 -19
-24 30 c-13 16 -31 41 -39 56 -16 26 -16 26 27 51 71 42 74 49 38 107 -17 28
-31 54 -31 59 0 4 19 21 43 37 23 15 47 32 54 37 7 5 23 -10 48 -47 20 -31 40
-56 43 -56 4 1 18 7 32 15 22 12 27 11 42 -2 14 -13 17 -13 21 4 3 10 5 61 5
113 1 109 -13 146 -51 134 -12 -4 -46 -7 -74 -6 -29 1 -53 -1 -53 -5 0 -5 11
-28 25 -52 14 -23 25 -46 25 -50 0 -8 -51 -34 -55 -29 -26 36 -65 98 -65 104
0 4 7 16 17 26 15 17 15 18 -12 18 -22 0 -26 -4 -22 -20 4 -15 -6 -27 -46 -52
-29 -18 -55 -34 -59 -36 -8 -4 -84 106 -77 111 2 2 21 16 42 31 44 34 48 65
16 127 -20 40 -20 41 -1 55 23 16 34 104 25 200 -5 56 -7 60 -28 56 -18 -3
-28 6 -55 49 l-32 53 22 18 c28 23 37 23 45 1 3 -10 14 -28 24 -41 16 -18 24
-20 43 -13 13 5 40 13 61 16 21 3 41 13 44 20 3 8 -9 36 -26 62 -17 25 -31 50
-31 54 0 9 92 69 105 69 6 0 25 -22 43 -48z m1870 16 c26 -17 49 -33 51 -35 2
-1 -3 -11 -12 -21 -10 -10 -17 -23 -17 -28 -1 -5 -11 -21 -23 -36 l-22 -27
-55 34 c-30 19 -54 39 -53 44 5 19 65 101 74 101 6 0 31 -14 57 -32z m-1672
-52 l31 -65 -24 -21 c-24 -21 -25 -25 -20 -122 l5 -100 -25 5 c-15 3 -39 -3
-59 -15 l-33 -19 -36 57 c-20 31 -33 60 -28 63 4 3 30 21 58 39 l50 32 17 -22
18 -23 0 33 c0 28 -3 32 -18 27 -15 -4 -27 7 -55 50 l-36 55 47 32 c26 17 51
38 55 45 14 22 21 15 53 -51z m189 -297 c5 -7 -114 -85 -119 -78 -14 20 -66
112 -64 114 2 1 27 18 57 38 l53 35 35 -50 c18 -28 36 -55 38 -59z m1475 -408
c12 -8 8 -19 -24 -65 -21 -31 -41 -56 -45 -56 -3 0 -16 8 -28 18 l-22 17 35
57 c37 60 37 60 84 29z m-2250 -107 l34 -57 -29 -23 c-17 -13 -42 -29 -58 -35
-31 -13 -36 -9 -76 62 l-21 36 53 36 c28 20 54 36 57 36 3 1 21 -24 40 -55z
m198 -39 c18 -30 31 -59 28 -64 -4 -5 -29 -23 -56 -40 l-50 -31 -36 55 c-21
31 -35 58 -32 60 11 12 103 75 108 75 3 0 20 -25 38 -55z m2250 13 c23 -16 42
-35 42 -42 0 -7 -15 -33 -33 -58 l-32 -46 -58 35 -58 35 17 26 c9 14 25 40 36
59 12 19 25 30 31 26 7 -3 31 -19 55 -35z m-197 -39 c24 -18 46 -33 47 -35 4
-3 -66 -114 -72 -114 -9 0 -107 68 -107 74 0 17 63 106 74 106 8 0 34 -14 58
-31z m-2292 -130 c17 -28 31 -54 31 -58 0 -4 -23 -22 -51 -40 -39 -24 -55 -29
-64 -21 -21 17 -56 90 -49 101 8 13 85 69 94 69 4 0 21 -23 39 -51z m199 -43
c17 -30 32 -56 32 -59 0 -6 -99 -67 -109 -67 -5 0 -24 24 -44 54 l-35 53 51
35 c29 20 57 36 62 37 6 0 25 -24 43 -53z m2329 17 l53 -36 -22 -39 c-40 -70
-49 -74 -103 -42 -26 15 -49 32 -51 39 -5 12 53 115 64 115 3 0 29 -16 59 -37z
m-199 -38 c28 -20 52 -38 52 -42 0 -3 -16 -30 -35 -59 l-35 -53 -33 19 c-17
11 -43 28 -56 39 l-24 18 34 56 c19 31 36 57 39 57 3 0 29 -16 58 -35z m-2375
-133 c36 -60 36 -62 11 -79 -20 -13 -24 -11 -58 37 -20 27 -36 54 -36 58 0 8
36 30 50 31 3 0 18 -21 33 -47z m203 -47 c21 -30 35 -57 33 -59 -9 -8 -107
-66 -112 -66 -7 0 -67 95 -67 107 0 10 88 73 102 73 4 0 24 -25 44 -55z m196
-40 l38 -55 -57 -37 -57 -36 -21 26 c-11 15 -28 40 -38 57 l-18 30 53 34 c29
19 55 35 58 35 3 1 22 -24 42 -54z m2018 23 c27 -18 50 -36 50 -40 0 -12 -61
-108 -69 -108 -6 0 -98 55 -110 65 -5 5 63 114 72 115 4 0 30 -15 57 -32z
m-1750 -294 c0 -222 0 -225 -20 -222 -20 3 -21 9 -21 221 0 119 1 219 1 222 0
3 9 5 20 5 19 0 20 -7 20 -226z m660 151 c3 -44 8 -65 13 -57 5 7 6 29 2 48
-6 34 -5 35 22 32 24 -3 28 -8 31 -38 2 -19 11 -43 19 -52 14 -16 14 -18 -2
-24 -10 -4 -33 -7 -52 -7 -18 0 -33 -4 -33 -9 0 -29 77 -63 115 -51 11 3 36 5
55 4 19 -1 64 -3 100 -4 63 -2 65 -3 68 -29 3 -23 -2 -30 -25 -38 -15 -6 -36
-15 -45 -20 -21 -12 -48 -13 -48 -2 0 4 -36 6 -81 6 -76 -2 -81 -1 -89 22 -12
31 -15 30 -34 -8 -18 -34 -21 -78 -7 -78 5 0 11 -9 13 -20 4 -26 22 -27 27 -3
5 24 21 33 41 23 9 -5 22 -5 31 1 18 11 70 11 88 0 21 -13 3 -31 -31 -31 -26
0 -29 -2 -18 -15 7 -8 24 -15 37 -15 15 0 23 -5 21 -12 -6 -16 -214 -22 -223
-7 -4 5 -15 9 -26 9 -12 0 -19 7 -19 20 0 29 -17 24 -35 -10 -19 -37 -41 -39
-49 -4 -11 44 4 71 38 65 24 -4 46 12 46 35 0 22 -4 24 -44 24 -44 0 -66 12
-46 25 8 5 7 11 -1 21 -18 22 7 44 52 44 39 0 39 0 39 39 0 36 -2 39 -22 33
-13 -3 -26 -11 -30 -18 -5 -7 -17 -10 -28 -7 -18 5 -21 12 -18 52 l3 46 48 3
47 3 0 40 c0 36 2 40 23 37 20 -3 22 -10 27 -73z m650 -108 l0 -183 36 -13
c26 -9 39 -10 47 -2 12 12 56 14 73 3 6 -4 14 -20 18 -35 11 -45 -7 -57 -81
-56 -63 2 -66 3 -79 33 -11 26 -13 27 -14 9 0 -12 -6 -25 -12 -30 -20 -12
-139 -14 -153 -3 -9 8 -15 8 -20 0 -9 -14 -92 -13 -101 2 -4 6 -2 14 4 16 7 2
12 16 12 32 0 41 10 60 30 60 13 0 20 -11 25 -40 8 -49 22 -60 31 -25 3 14 14
30 24 35 24 13 67 13 75 0 4 -7 13 -7 26 0 18 10 19 23 19 195 0 178 1 185 20
185 19 0 20 -7 20 -183z m-1813 68 l31 -54 -25 -16 c-28 -19 -27 -19 -70 46
-28 43 -30 48 -15 63 27 27 46 18 79 -39z m2458 43 c24 -11 35 -38 15 -38 -5
0 -19 -18 -30 -39 -25 -51 -33 -55 -60 -33 l-21 17 23 35 c13 19 27 43 31 53
8 20 9 20 42 5z m-1027 -30 c6 -24 23 -23 29 2 8 31 40 25 48 -9 7 -35 -7 -67
-34 -76 -27 -8 -71 5 -71 21 0 18 -8 18 -26 -1 -11 -11 -27 -13 -57 -8 -45 7
-60 19 -51 43 3 8 7 22 9 30 2 8 4 16 4 17 1 2 33 2 72 1 61 -1 72 -4 77 -20z
m-818 -277 c0 -35 9 -61 21 -61 5 0 9 13 9 29 0 17 6 31 16 35 27 10 69 7 89
-8 16 -11 22 -11 45 2 33 19 80 9 80 -16 0 -10 5 -23 10 -28 7 -7 4 -16 -9
-28 -14 -13 -33 -16 -82 -14 -58 3 -64 5 -67 26 -4 28 -30 29 -34 0 -3 -19
-10 -22 -77 -25 -73 -4 -73 -4 -66 19 4 13 8 32 9 43 4 35 18 55 37 55 14 0
19 -7 19 -29z m382 9 c20 -18 20 -21 6 -37 -9 -10 -18 -27 -20 -38 -5 -32 -36
-31 -44 2 -4 15 -11 34 -17 41 -7 9 -4 18 8 32 23 25 40 25 67 0z m491 2 c15
-17 15 -21 -4 -60 -12 -23 -25 -42 -29 -42 -4 0 -17 19 -29 42 -19 39 -19 43
-4 60 9 10 24 18 33 18 9 0 24 -8 33 -18z m-363 -137 c7 -8 20 -15 29 -15 9 0
22 -5 28 -11 8 -8 17 -8 31 0 27 14 89 14 98 0 4 -8 9 -8 17 0 18 18 36 12 43
-14 3 -14 10 -25 15 -25 5 0 11 11 15 25 3 14 13 25 20 25 19 0 33 -38 24 -70
-5 -19 -14 -26 -40 -28 -18 -2 -43 2 -55 8 -17 9 -28 9 -43 1 -27 -15 -75 -14
-90 1 -10 10 -17 10 -32 0 -24 -15 -76 -16 -85 -2 -4 7 -12 7 -25 0 -32 -17
-85 -12 -105 10 -14 16 -16 23 -7 32 7 7 12 20 12 31 0 16 7 18 46 16 35 -2
48 1 55 14 12 21 33 22 49 2z m421 -6 c18 -18 20 -25 10 -40 -6 -10 -11 -25
-11 -34 0 -8 -9 -19 -19 -24 -16 -9 -22 -5 -40 31 l-21 42 22 23 c27 28 32 29
59 2z m-851 -144 c7 -8 20 -15 30 -15 46 0 68 -82 23 -88 -16 -2 -22 3 -25 19
-4 31 -26 36 -30 7 -2 -15 -11 -24 -25 -26 -21 -3 -23 0 -23 51 0 29 3 57 7
60 11 11 30 8 43 -8z m166 -22 c4 -21 13 -46 22 -55 13 -16 12 -18 -12 -27
-27 -11 -86 -4 -86 9 0 4 7 13 15 20 9 7 13 21 10 31 -8 23 11 59 30 59 8 0
17 -15 21 -37z m202 25 c17 -17 81 -37 88 -27 3 5 25 9 50 9 32 0 44 -4 44
-15 0 -19 14 -19 30 0 17 20 204 20 221 -1 15 -18 29 -18 29 0 0 10 23 13 103
14 56 0 108 -5 115 -10 8 -7 16 -7 26 1 20 17 88 10 92 -9 10 -47 8 -55 -18
-68 l-28 -13 0 -140 c0 -132 -1 -139 -20 -139 -19 0 -20 7 -20 141 0 115 -3
143 -16 156 -10 11 -18 13 -22 6 -8 -12 -24 -16 -65 -14 -22 1 -30 8 -39 32
-13 38 -49 37 -58 -1 -7 -30 -39 -39 -52 -15 -9 15 -11 15 -21 1 -7 -9 -25
-16 -42 -16 -16 0 -64 0 -107 0 -45 -1 -79 4 -83 10 -4 7 -11 8 -18 1 -7 -5
-28 -11 -47 -13 l-35 -3 -5 -140 c-5 -136 -6 -140 -27 -143 -22 -3 -23 0 -23
62 0 36 -4 68 -10 71 -5 3 -10 15 -10 25 0 10 -8 24 -17 29 -16 9 -16 12 10
34 25 23 38 67 18 67 -5 0 -12 11 -15 25 -4 14 -11 25 -16 25 -6 0 -10 -11
-10 -25 0 -21 -5 -25 -29 -25 -17 0 -33 -4 -36 -10 -10 -16 -62 -12 -79 6 -23
22 -30 62 -16 79 8 9 30 15 60 15 33 0 50 5 54 15 6 18 27 20 44 3z m-558
-243 c0 -148 -1 -155 -20 -155 -11 0 -20 3 -20 8 -1 22 -1 288 -1 295 1 4 10
7 21 7 19 0 20 -7 20 -155z m138 65 c45 -27 40 -58 -11 -83 -55 -27 -67 -18
-67 48 0 50 2 55 23 55 12 0 37 -9 55 -20z m618 6 c16 -16 19 -36 5 -36 -5 0
-11 -12 -13 -27 -4 -40 -34 -42 -43 -4 -4 17 -11 31 -16 31 -15 0 -10 22 9 36
22 17 40 17 58 0z m104 -10 c0 -54 26 -77 32 -28 3 24 7 27 47 30 28 2 47 -1
52 -10 7 -10 12 -11 29 0 24 15 86 16 95 2 5 -8 11 -8 20 0 8 6 28 10 47 8 27
-2 34 -8 42 -36 12 -42 -2 -53 -61 -50 -23 1 -45 -1 -49 -5 -4 -4 -27 -7 -51
-7 -38 0 -43 3 -43 23 -1 21 -1 21 -15 3 -19 -24 -45 -14 -45 19 0 34 -16 32
-23 -4 -6 -28 -8 -28 -71 -30 -62 -1 -95 12 -61 25 11 5 15 14 11 30 -8 31 2
54 25 54 13 0 19 -7 19 -24z m-448 -18 c-4 -24 10 -23 26 2 9 15 23 20 52 20
34 0 41 -4 46 -24 9 -38 -11 -66 -49 -66 -18 0 -38 5 -45 12 -9 9 -15 9 -24 0
-7 -7 -31 -12 -54 -12 -42 0 -43 1 -41 33 4 48 14 58 55 55 29 -2 36 -7 34
-20z m-1012 -172 c0 -3 -4 -8 -10 -11 -5 -3 -10 -1 -10 4 0 6 5 11 10 11 6 0
10 -2 10 -4z m590 -143 c0 -14 -2 -15 -9 -4 -7 11 -9 11 -14 0 -4 -10 -6 -9
-6 4 -1 9 6 17 14 17 8 0 15 -8 15 -17z m660 0 c0 -14 -2 -15 -9 -4 -7 11 -9
11 -14 0 -4 -10 -6 -9 -6 4 -1 9 6 17 14 17 8 0 15 -8 15 -17z m647 11 c-3 -3
-12 -4 -19 -1 -8 3 -5 6 6 6 11 1 17 -2 13 -5z m660 -106 c2 -18 0 -20 -7 -8
-12 18 -13 30 -2 30 4 0 9 -10 9 -22z m3 -38 c0 -5 -4 -10 -10 -10 -5 0 -10 5
-10 10 0 6 5 10 10 10 6 0 10 -4 10 -10z m0 -35 c0 -8 -2 -15 -4 -15 -2 0 -6
7 -10 15 -3 8 -1 15 4 15 6 0 10 -7 10 -15z m-2311 -34 l22 -19 -22 -26 c-13
-14 -29 -26 -38 -26 -11 0 -9 6 8 24 l23 24 -21 11 c-12 7 -21 16 -21 21 0 16
25 11 49 -9z m229 -28 c3 -42 2 -43 -30 -43 -18 0 -40 5 -48 11 -12 8 -12 10
5 8 37 -3 55 1 55 11 0 6 -11 10 -24 10 -32 0 -56 28 -35 41 8 5 27 8 44 7 28
-3 30 -6 33 -45z m112 37 c0 -5 -4 -10 -10 -10 -5 0 -10 -16 -10 -35 0 -24 -5
-35 -15 -35 -10 0 -15 11 -15 35 0 24 -5 35 -15 35 -8 0 -15 5 -15 10 0 6 18
10 40 10 22 0 40 -4 40 -10z m110 0 c0 -5 -17 -11 -37 -12 -37 -1 -37 -1 -5
-5 40 -5 42 -23 2 -23 -16 0 -30 -4 -30 -10 0 -5 13 -10 29 -10 17 0 33 -4 36
-10 4 -6 -13 -10 -44 -10 l-51 0 0 38 c0 21 3 42 7 45 10 11 93 8 93 -3z m100
0 c0 -5 -15 -11 -32 -11 -28 -2 -29 -2 -8 -6 40 -7 48 -23 12 -23 -18 0 -32
-4 -32 -10 0 -5 14 -10 30 -10 17 0 30 -4 30 -10 0 -5 -20 -10 -45 -10 l-45 0
0 45 0 45 45 0 c25 0 45 -4 45 -10z m108 -14 c2 -10 -2 -23 -10 -28 -10 -7
-10 -11 0 -15 6 -2 12 -9 12 -14 0 -13 -34 -11 -49 4 -11 10 -14 10 -18 0 -10
-28 -23 -10 -23 33 l0 45 42 -3 c33 -2 44 -8 46 -22z m210 0 c2 -10 -2 -23
-10 -28 -10 -7 -10 -11 0 -15 6 -2 12 -9 12 -14 0 -13 -34 -11 -48 3 -9 9 -12
9 -12 0 0 -7 -7 -12 -15 -12 -11 0 -15 12 -15 46 l0 45 42 -3 c33 -2 44 -8 46
-22z m112 14 c0 -5 -4 -10 -10 -10 -5 0 -10 -11 -10 -25 0 -14 5 -25 10 -25 6
0 10 -4 10 -10 0 -5 -19 -10 -42 -10 -38 1 -41 2 -25 14 21 16 23 56 2 56 -8
0 -15 5 -15 10 0 6 18 10 40 10 22 0 40 -4 40 -10z m110 0 c0 -5 -9 -10 -19
-10 -32 0 -51 -11 -51 -30 0 -10 7 -20 15 -23 18 -8 32 13 15 23 -9 6 -9 9 -1
15 20 12 41 -3 41 -30 0 -21 -4 -25 -32 -25 -30 0 -68 23 -68 41 0 5 8 18 17
29 18 21 83 29 83 10z m40 -5 c0 -8 9 -15 20 -15 11 0 20 7 20 15 0 8 5 15 10
15 6 0 10 -20 10 -45 0 -25 -4 -45 -10 -45 -5 0 -10 9 -10 20 0 13 -7 20 -20
20 -13 0 -20 -7 -20 -20 0 -11 -7 -20 -15 -20 -11 0 -15 12 -15 45 0 33 4 45
15 45 8 0 15 -7 15 -15z m170 5 c0 -5 -4 -10 -10 -10 -5 0 -10 -16 -10 -35 0
-24 -5 -35 -15 -35 -10 0 -15 11 -15 35 0 19 -4 35 -10 35 -5 0 -10 5 -10 10
0 6 16 10 35 10 19 0 35 -4 35 -10z m318 -14 c2 -10 -2 -23 -10 -28 -10 -7
-10 -11 0 -15 6 -2 12 -9 12 -14 0 -12 -37 -12 -45 1 -3 6 -11 10 -16 10 -6 0
-7 -4 -4 -10 3 -5 -1 -10 -9 -10 -12 0 -16 11 -16 46 l0 45 42 -3 c33 -2 44
-8 46 -22z m82 14 c0 -5 -4 -10 -10 -10 -5 0 -10 5 -10 10 0 6 5 10 10 10 6 0
10 -4 10 -10z m174 -5 c3 -9 18 -15 36 -15 27 0 30 -3 30 -30 0 -20 -5 -30
-15 -30 -9 0 -15 10 -15 26 0 19 -4 25 -17 22 -10 -2 -18 -12 -18 -22 0 -11
-6 -21 -13 -24 -8 -2 -12 10 -12 42 0 45 12 61 24 31z m155 -4 c16 -16 17 -20
5 -25 -8 -3 -14 -15 -14 -26 0 -11 -4 -20 -10 -20 -5 0 -10 9 -10 20 0 11 -6
23 -14 26 -12 5 -12 9 2 24 22 23 19 23 41 1z m281 5 c0 -3 -4 -8 -10 -11 -5
-3 -10 -1 -10 4 0 6 5 11 10 11 6 0 10 -2 10 -4z m-610 -32 c0 -9 8 -23 18
-30 15 -12 12 -13 -28 -13 -41 0 -43 1 -26 14 16 12 17 17 6 30 -10 13 -9 15
9 15 13 0 21 -6 21 -16z m130 -24 c0 -39 -1 -40 -35 -40 -38 0 -50 19 -12 21
17 1 15 3 -10 10 -33 10 -44 33 -20 42 6 3 27 6 45 6 31 1 32 0 32 -39z
m-1602 -115 c1 -44 1 -45 -31 -45 -18 0 -39 5 -47 10 -11 7 -5 10 23 10 20 0
37 5 37 10 0 6 -11 10 -24 10 -31 0 -56 28 -35 41 8 5 28 9 45 9 30 0 31 -1
32 -45z m112 35 c0 -5 -4 -10 -10 -10 -5 0 -10 -16 -10 -35 0 -24 -5 -35 -15
-35 -10 0 -15 11 -15 35 0 24 -5 35 -15 35 -8 0 -15 5 -15 10 0 6 18 10 40 10
22 0 40 -4 40 -10z m110 0 c0 -5 -17 -11 -37 -12 -37 -1 -37 -1 -5 -5 40 -5
42 -23 2 -23 -16 0 -30 -4 -30 -10 0 -5 13 -10 29 -10 17 0 33 -4 36 -10 4 -6
-13 -10 -44 -10 l-51 0 0 45 0 45 50 0 c28 0 50 -4 50 -10z m100 0 c0 -5 -15
-11 -32 -11 -28 -2 -29 -2 -8 -6 40 -7 48 -23 12 -23 -18 0 -32 -4 -32 -10 0
-5 14 -10 30 -10 17 0 30 -4 30 -10 0 -5 -20 -10 -45 -10 l-45 0 0 45 0 45 45
0 c25 0 45 -4 45 -10z m108 -14 c2 -10 -2 -23 -10 -28 -10 -7 -10 -11 0 -15 6
-2 12 -9 12 -14 0 -12 -37 -12 -45 1 -3 6 -11 10 -16 10 -6 0 -7 -4 -4 -10 3
-5 -1 -10 -9 -10 -12 0 -16 11 -16 46 l0 45 42 -3 c33 -2 44 -8 46 -22z m162
-11 c0 -31 3 -35 25 -35 14 0 25 -4 25 -10 0 -5 -16 -10 -35 -10 -35 0 -35 0
-35 45 0 25 5 45 10 45 6 0 10 -16 10 -35z m160 25 c0 -5 -17 -11 -37 -12 -37
-1 -37 -1 -5 -5 37 -5 44 -23 8 -23 -14 0 -28 -4 -31 -10 -4 -6 8 -10 29 -10
20 0 36 -4 36 -10 0 -5 -20 -10 -45 -10 l-45 0 0 45 0 45 45 0 c25 0 45 -4 45
-10z m110 0 c0 -5 -17 -11 -37 -12 -37 -1 -37 -1 -5 -5 40 -5 42 -23 2 -23
-23 0 -30 -4 -30 -20 0 -11 -7 -20 -15 -20 -11 0 -15 11 -15 38 0 21 3 42 7
45 10 11 93 8 93 -3z m100 0 c0 -5 -4 -10 -10 -10 -5 0 -10 -16 -10 -35 0 -24
-5 -35 -15 -35 -10 0 -15 11 -15 35 0 19 -4 35 -10 35 -5 0 -10 5 -10 10 0 6
16 10 35 10 19 0 35 -4 35 -10z m380 -25 c0 -31 3 -35 25 -35 14 0 25 -4 25
-10 0 -5 -18 -10 -40 -10 -40 0 -40 0 -40 38 0 21 3 42 7 45 15 15 23 5 23
-28z m260 25 c0 -5 -6 -10 -12 -10 -9 0 -8 -4 2 -10 10 -6 11 -10 3 -10 -7 0
-13 -11 -13 -25 0 -16 -6 -25 -15 -25 -9 0 -15 9 -15 25 0 14 -4 25 -10 25 -5
0 -2 9 7 20 18 21 53 27 53 10z m90 -6 c0 -8 5 -12 10 -9 6 3 10 1 10 -4 0 -6
-4 -11 -10 -11 -5 0 -10 -11 -10 -25 0 -16 -6 -25 -15 -25 -9 0 -15 9 -15 25
0 16 -6 25 -15 25 -12 0 -12 3 3 19 21 24 42 26 42 5z m-196 -28 c8 -14 8 -20
-2 -23 -6 -3 -10 -9 -6 -14 9 -15 -62 -10 -75 5 -14 17 -5 44 17 49 34 7 55 2
66 -17z m-1395 -82 c4 3 8 -15 10 -40 l2 -44 -36 0 c-19 0 -35 -4 -35 -10 0
-5 -4 -10 -10 -10 -5 0 -10 20 -10 45 0 45 0 45 35 45 22 0 33 4 31 13 -1 6
-1 9 1 4 3 -4 8 -5 12 -3z m668 -65 c0 -34 -4 -63 -11 -68 -8 -7 -12 -4 -13
10 -1 10 2 19 8 19 5 0 9 4 9 8 0 4 -18 9 -40 10 -23 2 -40 -2 -40 -8 0 -5 -4
-10 -10 -10 -5 0 -10 20 -10 44 l0 45 43 3 c23 2 47 3 53 4 6 0 10 -23 11 -57z
m-769 5 l1 -45 -36 3 c-20 2 -38 8 -40 14 -2 7 8 9 27 6 18 -3 30 0 30 7 0 6
-11 11 -24 11 -31 0 -56 28 -35 41 8 5 28 9 45 9 31 0 31 -1 32 -46z m222 36
c0 -5 -17 -11 -37 -12 -37 -1 -37 -1 -5 -5 40 -5 42 -23 2 -23 -16 0 -30 -4
-30 -10 0 -5 13 -10 29 -10 17 0 33 -4 36 -10 4 -6 -13 -10 -45 -10 l-51 0 2
45 3 45 48 0 c26 0 48 -4 48 -10z m100 0 c0 -5 -15 -11 -32 -11 -28 -2 -29 -2
-8 -6 40 -7 48 -23 12 -23 -18 0 -32 -4 -32 -10 0 -5 14 -10 30 -10 17 0 30
-4 30 -10 0 -5 -20 -10 -45 -10 l-45 0 0 45 0 45 45 0 c25 0 45 -4 45 -10z
m98 -2 c7 -7 12 -21 12 -33 0 -30 -19 -45 -57 -45 -32 0 -33 1 -33 45 0 44 1
45 33 45 18 0 38 -5 45 -12z m162 -23 c0 -28 4 -35 20 -35 16 0 20 7 20 35 0
19 5 35 10 35 6 0 10 -21 10 -46 l0 -45 -42 3 c-43 3 -43 3 -46 46 -2 33 0 42
12 42 12 0 16 -10 16 -35z m741 8 c1 -16 1 -31 0 -35 0 -5 8 -8 19 -8 16 0 20
7 20 35 0 25 4 35 16 35 12 0 14 -9 12 -42 -3 -43 -3 -43 -43 -43 -40 0 -40 0
-43 43 -2 25 1 42 7 42 6 0 12 -12 12 -27z m169 -8 c19 -23 4 -45 -30 -45 -20
0 -30 -5 -30 -15 0 -8 -7 -15 -15 -15 -11 0 -15 12 -15 45 l0 45 39 0 c22 0
44 -6 51 -15z m-447 -57 c4 -12 3 -64 0 -115 -6 -93 -6 -93 -31 -90 -24 3 -26
7 -29 83 -6 110 2 144 31 144 16 0 26 -7 29 -22z m135 -87 c1 -57 -1 -108 -5
-112 -5 -5 -18 -6 -30 -3 -19 5 -21 14 -25 97 -5 118 -2 129 31 125 26 -3 26
-3 29 -107z m-1075 92 c-7 -2 -13 -14 -13 -24 0 -13 4 -18 12 -13 7 4 8 3 4
-5 -10 -15 -26 -4 -26 18 0 20 9 31 24 30 6 0 5 -3 -1 -6z m727 -68 c0 8 7 15
15 15 11 0 15 -12 15 -45 0 -33 -4 -45 -15 -45 -8 0 -15 5 -15 10 0 6 -9 20
-20 32 l-20 22 0 -32 c0 -22 -5 -32 -15 -32 -11 0 -15 12 -15 51 l0 51 35 -21
c28 -16 35 -17 35 -6z m-833 -27 c-2 -40 -4 -43 -33 -46 -18 -2 -36 3 -43 12
-11 13 -8 14 23 9 24 -4 36 -2 36 6 0 6 -9 11 -21 11 -11 0 -28 7 -36 16 -14
13 -14 17 -2 25 8 5 28 9 46 9 31 0 32 -1 30 -42z m63 7 c0 -31 3 -35 25 -35
21 0 25 -5 25 -27 0 -22 -2 -25 -10 -13 -8 13 -10 12 -10 -2 0 -10 5 -18 10
-18 6 0 10 -9 10 -21 0 -11 -4 -17 -10 -14 -6 3 -10 -5 -10 -19 0 -13 6 -27
13 -30 10 -5 10 -7 0 -12 -7 -3 -13 -10 -13 -15 0 -6 5 -7 10 -4 6 3 10 1 10
-4 0 -6 -6 -11 -12 -12 -10 0 -10 -2 0 -6 27 -11 12 -33 -25 -35 -37 -1 -37
-1 -5 -5 40 -5 42 -23 2 -23 -23 0 -30 -4 -30 -20 0 -11 -4 -20 -10 -20 -5 0
-10 20 -10 45 0 43 1 45 29 45 29 0 42 14 33 38 -2 6 -16 12 -31 12 -24 1 -24
2 -8 14 9 7 17 21 17 31 0 10 -8 24 -17 31 -16 12 -15 13 10 14 22 0 27 4 27
25 0 20 -5 25 -25 25 -23 0 -25 4 -25 45 0 33 4 45 15 45 10 0 15 -11 15 -35z
m158 12 c2 -10 1 -29 -2 -43 -5 -19 -13 -24 -39 -24 -40 0 -57 15 -57 51 0 32
12 39 60 36 25 -1 36 -7 38 -20z m43 -4 l2 -28 4 28 c2 15 9 27 14 27 5 0 10
-12 10 -27 l2 -28 4 28 c6 41 23 33 23 -11 0 -45 -8 -56 -27 -41 -9 8 -17 8
-26 0 -20 -16 -37 6 -37 46 0 42 29 47 31 6z m263 11 c9 -8 16 -20 16 -26 0
-24 -34 -48 -67 -48 -33 0 -33 1 -33 45 0 45 0 45 34 45 19 0 42 -7 50 -16z
m116 -29 c0 -44 -1 -45 -33 -45 -40 0 -57 15 -57 51 0 30 10 37 58 38 31 1 32
0 32 -44z m40 20 c0 -14 5 -25 10 -25 6 0 10 11 10 25 0 20 5 25 25 25 23 0
25 -4 25 -44 0 -25 5 -48 10 -51 6 -3 10 -15 10 -26 0 -16 -2 -18 -14 -7 -10
9 -11 15 -2 20 8 6 8 8 -1 8 -6 0 -19 8 -28 17 -14 13 -21 14 -35 5 -14 -9
-19 -8 -24 4 -10 25 -7 74 4 74 6 0 10 -11 10 -25z m698 13 c31 -31 3 -78 -47
-78 -30 0 -31 1 -31 45 0 44 1 45 33 45 18 0 38 -5 45 -12z m42 8 c0 -2 -7 -7
-16 -10 -8 -3 -12 -2 -9 4 6 10 25 14 25 6z m75 -27 c4 -5 4 -21 1 -35 -5 -18
-13 -24 -35 -24 -16 0 -36 3 -45 6 -19 7 -21 50 -3 57 22 10 76 7 82 -4z m46
-16 c0 -16 3 -21 6 -13 14 43 16 44 23 15 l8 -30 1 28 c2 40 21 33 21 -8 0
-32 -2 -35 -29 -35 -47 0 -61 10 -61 41 0 39 30 40 31 2z m167 -10 c2 -25 -1
-33 -12 -33 -10 0 -16 9 -16 25 0 31 -27 34 -32 3 -5 -38 -28 -33 -28 7 l0 36
43 -3 c39 -3 42 -5 45 -35z m-1610 2 c-3 -3 -9 2 -12 12 -6 14 -5 15 5 6 7 -7
10 -15 7 -18z m-158 -100 c0 -8 9 -15 20 -15 11 0 20 7 20 15 0 8 5 15 10 15
6 0 10 -20 10 -45 0 -25 -4 -45 -10 -45 -5 0 -10 9 -10 20 0 13 -7 20 -20 20
-13 0 -20 -7 -20 -20 0 -11 -7 -20 -15 -20 -11 0 -15 12 -15 45 0 33 4 45 15
45 8 0 15 -7 15 -15z m280 5 c0 -5 -7 -10 -15 -10 -10 0 -15 -11 -15 -35 0
-19 -4 -35 -10 -35 -5 0 -10 16 -10 35 0 24 -5 35 -15 35 -8 0 -15 5 -15 10 0
6 18 10 40 10 22 0 40 -4 40 -10z m100 -35 l0 -45 -45 0 -45 0 0 45 0 45 45 0
45 0 0 -45z m108 22 c2 -10 1 -29 -2 -43 -5 -19 -13 -24 -40 -24 -35 0 -46 13
-46 54 0 31 9 37 50 34 24 -2 36 -8 38 -21z m48 6 c13 -17 15 -17 28 0 14 18
36 23 36 7 0 -5 -8 -13 -17 -18 -16 -9 -16 -11 0 -27 9 -9 17 -21 17 -26 0
-15 -22 -10 -36 9 -13 16 -15 16 -28 0 -13 -18 -36 -25 -36 -11 0 3 8 15 17
26 17 18 17 19 0 28 -9 6 -17 14 -17 19 0 16 22 11 36 -7z m164 7 c0 -5 -15
-11 -32 -11 -28 -2 -29 -2 -8 -6 40 -7 48 -23 12 -23 -18 0 -32 -4 -32 -10 0
-5 14 -10 30 -10 17 0 30 -4 30 -10 0 -5 -20 -10 -45 -10 l-45 0 0 45 0 45 45
0 c25 0 45 -4 45 -10z m120 0 c10 -6 11 -10 3 -10 -7 0 -13 -5 -13 -11 0 -5 4
-8 8 -5 5 3 10 -18 11 -47 1 -28 -1 -48 -5 -44 -4 4 -7 24 -7 44 0 21 -2 28
-4 16 -4 -19 -11 -23 -43 -23 -24 0 -40 5 -43 15 -5 11 0 13 23 8 19 -3 30 -1
30 6 0 6 -11 11 -24 11 -24 0 -41 23 -30 41 7 12 75 11 94 -1z m627 -7 c3 -10
13 -27 22 -38 15 -18 15 -19 0 -7 -14 10 -17 9 -22 -8 -6 -23 -55 -28 -75 -8
-13 13 -16 60 -5 71 14 15 74 7 80 -10z m109 -3 c0 -11 -6 -20 -13 -20 -7 0
-13 -11 -13 -25 0 -14 -4 -25 -10 -25 -5 0 -10 12 -10 26 0 19 -4 25 -15 20
-9 -3 -15 0 -15 9 0 8 7 15 15 15 8 0 15 5 15 10 0 6 10 10 23 10 16 0 23 -6
23 -20z m104 0 c0 -11 -4 -20 -10 -20 -5 0 -10 -11 -10 -25 0 -16 -6 -25 -15
-25 -9 0 -15 9 -15 24 0 13 -6 26 -12 29 -9 3 -7 10 7 21 28 22 55 20 55 -4z
m-853 -102 c-3 -8 -6 -5 -6 6 -1 11 2 17 5 13 3 -3 4 -12 1 -19z m300 -6 c8
-5 9 -13 3 -22 -6 -8 -10 -72 -10 -141 l0 -127 -25 -4 -25 -5 0 131 c0 72 -3
141 -6 154 -6 19 -3 22 22 22 16 0 34 -4 41 -8z m131 -144 l3 -147 -28 -4
c-18 -2 -10 -5 20 -6 52 -1 66 -21 15 -21 -34 0 -29 -14 7 -23 15 -4 13 -5 -7
-6 -18 -1 -28 -7 -28 -16 0 -30 -18 -14 -25 23 -8 42 -22 333 -17 345 2 5 16
7 30 5 l27 -3 3 -147z m-1178 122 c0 -5 -15 -11 -32 -11 l-33 -1 30 -7 c24 -5
30 -12 30 -31 0 -21 -5 -26 -31 -28 -18 -2 -36 3 -43 12 -11 13 -8 14 23 9 24
-4 36 -2 36 6 0 6 -9 11 -21 11 -11 0 -28 7 -36 16 -14 13 -14 17 -2 25 19 12
79 11 79 -1z m158 -6 c14 -15 17 -15 27 0 13 18 35 22 35 6 0 -5 -8 -13 -17
-18 -16 -9 -16 -11 0 -27 9 -9 17 -21 17 -26 0 -15 -22 -10 -36 9 -13 16 -15
16 -28 0 -13 -18 -36 -25 -36 -11 0 3 8 15 17 26 17 18 17 19 0 32 -9 6 -17
15 -17 19 0 12 21 6 38 -10z m1230 -7 c8 -40 -7 -67 -36 -67 -35 0 -52 16 -52
50 0 36 8 41 50 38 24 -2 36 -8 38 -21z m110 -34 c2 -25 -1 -33 -12 -33 -10 0
-16 9 -16 25 0 18 -5 25 -20 25 -15 0 -20 -7 -20 -26 0 -30 -22 -28 -26 2 -6
36 4 45 48 42 40 -3 43 -5 46 -35z m-1558 -243 c0 -5 -4 -10 -10 -10 -5 0 -10
-11 -10 -25 0 -14 5 -25 10 -25 6 0 10 -4 10 -10 0 -5 -9 -10 -20 -10 -17 0
-20 7 -20 45 0 38 3 45 20 45 11 0 20 -4 20 -10z m98 -8 c2 -8 -5 -11 -20 -10
-17 2 -23 -2 -23 -17 0 -16 6 -19 29 -17 26 3 28 1 16 -13 -19 -23 -53 -15
-64 17 -7 19 -6 31 4 43 15 18 51 17 58 -3z m88 2 c-3 -9 -6 -29 -6 -45 0 -22
-5 -29 -20 -29 -15 0 -20 7 -20 29 0 16 -3 36 -6 45 -5 13 1 16 26 16 25 0 31
-3 26 -16z m98 -8 c8 -14 8 -20 -2 -23 -10 -4 -10 -8 -1 -19 9 -11 8 -15 -5
-20 -11 -4 -22 1 -31 12 -13 18 -14 18 -15 2 0 -10 -4 -18 -10 -18 -5 0 -10
21 -10 46 0 45 0 45 31 42 18 -2 37 -11 43 -22z m46 -11 c0 -31 3 -35 26 -35
14 0 23 -4 19 -10 -3 -5 -19 -10 -36 -10 -28 0 -29 2 -29 45 0 25 5 45 10 45
6 0 10 -16 10 -35z m115 -10 c0 -34 -3 -40 -22 -43 -13 -2 -23 1 -23 7 0 6 5
11 10 11 6 0 10 11 10 25 0 14 -4 25 -10 25 -5 0 -10 5 -10 11 0 6 10 9 23 7
19 -3 22 -9 22 -43z m155 10 c0 -31 3 -35 26 -35 14 0 23 -4 19 -10 -3 -5 -19
-10 -36 -10 -28 0 -29 2 -29 45 0 25 5 45 10 45 6 0 10 -16 10 -35z m140 25
c0 -5 -4 -10 -10 -10 -5 0 -10 -11 -10 -25 0 -14 5 -25 11 -25 5 0 7 -4 4 -10
-3 -5 -19 -10 -36 -10 -16 0 -29 5 -29 10 0 6 5 10 10 10 6 0 10 11 10 25 0
14 -4 25 -10 25 -5 0 -10 5 -10 10 0 6 16 10 35 10 19 0 35 -4 35 -10z m84
-57 l0 -63 35 -1 c22 -1 28 -3 14 -6 -26 -5 -47 -28 -38 -43 10 -16 35 -12 29
5 -4 9 0 15 10 15 10 0 16 -9 16 -24 0 -20 -6 -25 -34 -28 -19 -2 -33 -1 -30
3 2 4 0 10 -6 14 -5 3 -10 2 -10 -3 0 -5 -19 -9 -42 -8 -42 1 -43 2 -43 36 0
35 0 35 45 35 40 -1 45 2 46 22 2 19 -3 23 -26 23 -16 0 -30 7 -34 15 -4 12 0
14 19 9 15 -4 25 -2 25 5 0 6 -9 11 -19 11 -24 0 -33 13 -25 35 5 11 16 15 38
13 l31 -3 -1 -62z m96 57 c0 -5 -4 -10 -9 -10 -6 0 -11 -15 -13 -32 -2 -18 -7
-33 -13 -33 -5 0 -11 15 -13 33 -2 17 -7 32 -13 32 -5 0 -9 5 -9 10 0 6 16 10
35 10 19 0 35 -4 35 -10z m90 0 c0 -5 -14 -10 -32 -10 -34 0 -29 -14 7 -23 15
-4 13 -5 -7 -6 -38 -1 -35 -21 3 -21 17 0 28 -4 24 -10 -3 -5 -22 -10 -41 -10
-34 0 -34 0 -34 45 l0 45 40 0 c22 0 40 -4 40 -10z m44 -6 c15 -14 16 -14 16
0 0 9 7 16 15 16 17 0 22 -75 5 -85 -5 -3 -10 -1 -10 5 0 12 -24 40 -34 40 -3
0 -6 -9 -6 -20 0 -11 -4 -20 -10 -20 -5 0 -10 18 -10 40 0 43 9 49 34 24z
m312 -11 c9 -33 -7 -58 -36 -58 -29 0 -45 25 -36 58 5 22 12 27 36 27 24 0 31
-5 36 -27z m92 15 c19 -19 15 -51 -5 -44 -17 6 -17 5 0 -8 9 -7 17 -16 17 -20
0 -11 -36 -6 -49 7 -11 10 -14 9 -18 -1 -3 -6 -9 -10 -14 -6 -10 6 -12 67 -2
77 11 11 58 8 71 -5z m129 -3 c5 -14 8 -14 24 1 24 22 38 10 16 -14 -15 -17
-15 -19 0 -35 21 -21 9 -35 -17 -19 -12 7 -21 8 -25 2 -12 -20 -25 2 -25 41 0
39 15 53 27 24z m143 5 c0 -5 -11 -10 -25 -10 -31 0 -33 -19 -2 -21 l22 -2
-22 -4 c-31 -6 -29 -23 2 -23 14 0 25 -5 25 -11 0 -6 -16 -9 -37 -7 -37 3 -38
4 -41 46 l-3 42 40 0 c23 0 41 -4 41 -10z m53 -12 l4 -23 8 23 c8 24 25 30 25
9 0 -8 -7 -29 -17 -47 -15 -31 -17 -32 -24 -13 -4 12 -12 24 -18 28 -16 9 -13
45 3 45 8 0 17 -10 19 -22z m-1614 -160 c-2 -52 0 -64 14 -66 13 -3 17 -14 17
-43 0 -38 -8 -46 -42 -40 -13 2 -9 -17 5 -22 9 -4 9 -6 -1 -6 -7 -1 -15 6 -18
14 -4 8 -14 15 -24 15 -11 0 -22 5 -26 11 -5 8 -9 8 -14 -1 -12 -20 -30 -1
-30 31 0 41 -24 33 -28 -9 -4 -39 -22 -43 -22 -4 0 15 -5 33 -12 40 -9 9 6 11
67 9 75 -2 79 -3 85 -26 7 -30 30 -40 30 -13 0 11 -5 22 -10 24 -6 2 -12 13
-15 26 -2 13 0 20 6 17 5 -4 9 -1 9 4 0 6 -4 11 -10 11 -5 0 -10 6 -10 14 0
24 -21 30 -27 7 -9 -35 -23 -24 -23 19 0 22 5 40 10 40 6 0 10 -7 10 -15 0 -8
7 -15 15 -15 8 0 15 9 15 20 0 12 7 20 16 20 13 0 15 -11 13 -62z m-201 41
c-19 -11 -25 -49 -8 -49 6 0 10 -4 10 -10 0 -5 -9 -10 -20 -10 -17 0 -20 7
-20 40 0 37 2 40 28 40 23 -1 24 -2 10 -11z m108 0 c4 -8 -3 -9 -25 -4 -20 4
-31 3 -31 -4 0 -6 11 -11 24 -11 31 0 42 -16 25 -36 -14 -18 -61 -15 -67 4 -3
9 3 11 22 6 16 -4 26 -2 26 5 0 6 -11 11 -25 11 -18 0 -25 5 -25 20 0 16 7 20
34 20 19 0 38 -5 42 -11z m177 4 c-15 -6 -18 -53 -3 -53 6 0 10 -4 10 -10 0
-5 -16 -10 -35 -10 -19 0 -35 5 -35 10 0 6 5 10 10 10 15 0 12 47 -2 53 -7 3
5 5 27 5 22 0 34 -2 28 -5z m70 0 c-40 -5 -44 -22 -5 -24 25 -2 25 -2 3 -6
-13 -3 -26 -13 -28 -24 -9 -33 -23 -20 -23 21 l0 40 43 -2 c36 -1 38 -2 10 -5z
m110 -1 c-6 -4 -13 -20 -15 -36 -5 -44 -28 -46 -28 -3 0 20 -6 38 -12 40 -7 3
5 6 27 6 22 0 35 -3 28 -7z m77 -32 c0 -36 -2 -40 -25 -40 -14 0 -25 5 -25 10
0 6 5 10 10 10 15 0 12 47 -2 53 -7 3 -1 6 15 6 25 1 27 -2 27 -39z m193 33
c-7 -2 -13 -20 -13 -39 0 -24 -5 -34 -15 -34 -10 0 -15 10 -15 34 0 19 -6 37
-12 39 -7 3 5 5 27 5 22 0 34 -2 28 -5z m260 0 c-26 -5 -47 -28 -38 -43 10
-16 35 -12 29 5 -4 9 0 15 10 15 10 0 16 -9 16 -25 0 -21 -5 -25 -28 -25 -20
0 -33 7 -42 25 -17 33 1 55 44 54 22 -1 25 -3 9 -6z m58 -15 c1 -13 1 -26 0
-30 0 -5 6 -8 14 -8 8 0 15 7 15 15 0 8 7 15 15 15 8 0 15 7 15 15 0 11 11 15
43 14 l42 -2 -35 -7 c-34 -6 -32 -9 10 -23 9 -4 6 -6 -7 -6 -31 -1 -29 -21 2
-21 14 0 25 -4 25 -10 0 -5 -13 -10 -30 -10 -16 0 -30 -4 -30 -10 0 -5 -11 -9
-25 -8 -14 1 -25 6 -25 10 0 4 -11 8 -25 8 -22 0 -25 4 -25 40 0 41 19 57 21
18z m314 -18 c0 -32 -3 -35 -32 -38 -28 -3 -33 1 -39 22 -10 41 1 58 38 54 30
-3 33 -6 33 -38z m57 23 c17 -15 18 -15 18 0 0 10 5 17 10 17 6 0 10 -18 10
-40 0 -44 -9 -50 -28 -20 -15 24 -30 26 -28 4 0 -9 -5 -19 -11 -21 -9 -3 -13
8 -13 36 0 44 12 51 42 24z m115 -1 c-10 -10 -17 -24 -17 -30 0 -7 -5 -12 -11
-12 -5 0 -8 -4 -5 -8 2 -4 -4 -9 -15 -9 -25 -2 -24 3 6 39 14 16 25 26 25 22
0 -5 5 -3 12 4 19 19 23 14 5 -6z m98 -22 c0 -32 -3 -35 -32 -38 -28 -3 -33 1
-39 22 -10 41 1 58 38 54 30 -3 33 -6 33 -38z m73 33 c-34 -5 -37 -22 -5 -24
22 -2 22 -2 1 -6 -12 -2 -24 -13 -27 -24 -9 -34 -27 -20 -27 21 l0 40 43 -1
c29 -2 34 -3 15 -6z m90 0 c-33 -5 -37 -23 -5 -23 17 0 19 -2 7 -9 -8 -6 -18
-7 -22 -5 -4 3 -8 -4 -8 -15 0 -12 -7 -21 -15 -21 -11 0 -15 11 -15 40 l0 40
43 -1 c29 -2 34 -3 15 -6z m-530 -55 c2 -19 -3 -30 -17 -38 -15 -8 -21 -8 -21
0 0 6 -4 8 -10 5 -6 -4 -10 8 -10 30 0 34 2 36 28 33 21 -2 28 -9 30 -30z
m-418 -53 c-8 -9 -8 -15 0 -20 5 -3 10 -1 10 4 0 6 7 11 15 11 11 0 15 -11 15
-40 0 -43 -14 -52 -36 -22 -12 16 -13 15 -14 -6 0 -39 -25 -19 -28 23 -2 27 1
41 13 47 8 5 13 13 10 19 -3 5 1 6 10 3 11 -5 13 -10 5 -19z m667 -3 c1 -12
-1 -22 -5 -22 -4 0 -8 -9 -8 -20 0 -11 4 -20 8 -20 4 0 8 -7 8 -15 0 -8 -8
-15 -17 -14 -22 1 -63 17 -45 18 6 1 12 14 12 30 0 16 -6 32 -12 34 -7 3 -1 6
14 6 28 1 45 16 28 24 -6 3 -5 4 1 3 7 -1 14 -12 16 -24z m-362 -43 c0 -28 -5
-35 -28 -43 -38 -14 -60 8 -51 51 11 57 79 49 79 -8z m-1377 21 c-10 -16 -10
-24 0 -40 11 -18 10 -20 -8 -20 -17 0 -20 7 -20 40 0 33 3 40 20 40 18 0 19
-2 8 -20z m164 3 c17 -15 18 -15 18 0 0 10 7 17 15 17 11 0 15 -11 15 -40 0
-45 -13 -51 -41 -17 l-18 22 -1 -23 c0 -35 -24 -21 -28 16 -3 28 -7 32 -33 32
-16 0 -29 -4 -29 -10 0 -5 9 -10 20 -10 11 0 20 -4 20 -10 0 -5 -9 -10 -20
-10 -30 0 -24 -18 8 -23 19 -3 14 -4 -15 -6 l-43 -1 0 40 0 40 57 0 c38 0 62
-5 75 -17z m492 0 c4 -9 2 -21 -3 -26 -7 -7 -7 -15 0 -24 9 -10 7 -13 -8 -13
-10 0 -24 5 -31 12 -9 9 -12 9 -12 0 0 -7 -4 -12 -10 -12 -5 0 -10 18 -10 40
0 39 1 40 34 40 22 0 36 -6 40 -17z m69 10 c-36 -5 -46 -23 -13 -23 11 0 20
-4 20 -10 0 -5 -9 -10 -20 -10 -33 0 -23 -18 13 -23 28 -3 26 -4 -10 -5 l-43
-2 0 40 0 40 43 -2 c36 -1 38 -2 10 -5z m110 -1 c-6 -4 -13 -21 -16 -37 -5
-39 -27 -45 -27 -8 0 16 -5 34 -12 41 -9 9 -3 12 28 12 21 0 34 -4 27 -8z m37
-27 c0 -24 5 -35 15 -35 10 0 15 11 15 35 0 25 4 35 16 35 12 0 14 -9 12 -37
-3 -36 -5 -38 -38 -38 -33 0 -35 2 -38 38 -2 21 1 37 7 37 6 0 11 -16 11 -35z
m147 19 c3 -8 1 -20 -5 -26 -8 -8 -9 -15 -1 -25 9 -10 7 -13 -8 -13 -10 0 -24
5 -31 12 -9 9 -12 9 -12 0 0 -7 -4 -12 -10 -12 -5 0 -10 18 -10 40 0 39 1 40
35 40 23 0 38 -6 42 -16z m266 9 c-7 -2 -13 -20 -13 -39 0 -24 -5 -34 -15 -34
-10 0 -15 10 -15 34 0 19 -6 37 -12 39 -7 3 5 5 27 5 22 0 34 -2 28 -5z m225
-5 c9 -9 15 -9 24 0 21 21 28 13 28 -28 0 -41 -7 -49 -28 -28 -9 9 -15 9 -24
0 -24 -24 -38 -13 -38 28 0 41 14 52 38 28z m130 0 c14 -14 16 -68 2 -68 -5 0
-10 5 -10 10 0 6 -9 10 -20 10 -11 0 -20 -4 -20 -10 0 -5 -4 -10 -10 -10 -14
0 -12 54 2 68 7 7 19 12 28 12 9 0 21 -5 28 -12z m142 -3 c7 -8 16 -15 21 -15
5 0 9 7 9 15 0 8 5 15 10 15 6 0 10 -18 10 -40 0 -44 -9 -50 -28 -20 -7 11
-17 20 -22 20 -6 0 -10 -9 -10 -20 0 -11 -4 -20 -10 -20 -5 0 -10 18 -10 40 0
42 9 50 30 25z m187 4 c8 -8 13 -8 17 0 14 23 26 10 26 -29 0 -41 -19 -58 -21
-17 0 12 -3 16 -6 9 -2 -6 -9 -10 -14 -6 -5 3 -9 -2 -9 -10 0 -9 -7 -16 -15
-16 -11 0 -15 11 -15 40 0 41 14 52 37 29z m111 4 c-32 -5 -38 -23 -8 -23 11
0 20 -4 20 -10 0 -5 -9 -10 -20 -10 -30 0 -24 -18 8 -23 19 -3 14 -4 -15 -6
l-43 -1 0 40 0 40 43 -1 c29 -2 34 -3 15 -6z m74 -10 c17 -15 18 -15 18 0 0
10 5 17 10 17 6 0 10 -18 10 -40 0 -46 -5 -49 -31 -17 l-18 22 -1 -22 c0 -14
-6 -23 -15 -23 -11 0 -15 11 -15 40 0 43 12 50 42 23z m78 -19 c0 -45 24 -42
28 4 2 18 8 32 13 32 6 0 9 -17 7 -37 -3 -36 -5 -38 -38 -38 -33 0 -35 2 -38
38 -2 28 0 37 12 37 12 0 16 -10 16 -36z m-1150 -114 c0 -32 -4 -40 -17 -39
-11 0 -13 3 -5 6 6 2 12 20 12 39 0 19 2 34 5 34 3 0 5 -18 5 -40z m-660 -32
c0 -4 -7 -8 -15 -8 -8 0 -15 4 -15 8 0 5 7 9 15 9 8 0 15 -4 15 -9z"/>
<path d="M2293 2605 c0 -10 11 -15 32 -15 21 0 32 5 32 15 0 10 -11 15 -32 15
-21 0 -32 -5 -32 -15z"/>
<path d="M1308 1943 c6 -2 18 -2 25 0 6 3 1 5 -13 5 -14 0 -19 -2 -12 -5z"/>
<path d="M1720 1935 c0 -8 6 -15 14 -15 8 0 16 7 20 15 4 10 -1 15 -14 15 -11
0 -20 -7 -20 -15z"/>
<path d="M1940 1935 c0 -8 3 -15 6 -15 3 0 12 7 20 15 14 13 13 15 -5 15 -12
0 -21 -6 -21 -15z"/>
<path d="M2680 1935 c0 -8 6 -15 14 -15 8 0 16 7 20 15 4 10 -1 15 -14 15 -11
0 -20 -7 -20 -15z"/>
<path d="M2900 1916 c0 -10 9 -16 21 -16 24 0 21 23 -4 28 -10 2 -17 -3 -17
-12z"/>
<path d="M1308 1803 c6 -2 18 -2 25 0 6 3 1 5 -13 5 -14 0 -19 -2 -12 -5z"/>
<path d="M1720 1795 c0 -8 6 -15 14 -15 8 0 16 7 20 15 4 10 -1 15 -14 15 -11
0 -20 -7 -20 -15z"/>
<path d="M2798 1783 c6 -2 18 -2 25 0 6 3 1 5 -13 5 -14 0 -19 -2 -12 -5z"/>
<path d="M1400 1655 c0 -8 9 -15 20 -15 11 0 20 7 20 15 0 8 -9 15 -20 15 -11
0 -20 -7 -20 -15z"/>
<path d="M2040 1655 c0 -8 9 -15 20 -15 11 0 20 7 20 15 0 8 -9 15 -20 15 -11
0 -20 -7 -20 -15z"/>
<path d="M2111 1644 c0 -11 3 -14 6 -6 3 7 2 16 -1 19 -3 4 -6 -2 -5 -13z"/>
<path d="M1308 1663 c6 -2 18 -2 25 0 6 3 1 5 -13 5 -14 0 -19 -2 -12 -5z"/>
<path d="M1720 1646 c0 -20 5 -26 21 -26 15 0 20 5 17 22 -5 34 -38 37 -38 4z"/>
<path d="M2792 1638 c6 -17 38 -19 38 -2 0 8 -9 14 -21 14 -11 0 -19 -5 -17
-12z"/>
<path d="M1308 1523 c6 -2 18 -2 25 0 6 3 1 5 -13 5 -14 0 -19 -2 -12 -5z"/>
<path d="M1510 1505 c0 -18 5 -25 20 -25 15 0 20 7 20 25 0 18 -5 25 -20 25
-15 0 -20 -7 -20 -25z"/>
<path d="M1830 1505 c0 -20 4 -26 18 -23 9 2 17 12 17 23 0 11 -8 21 -17 23
-14 3 -18 -3 -18 -23z"/>
<path d="M1940 1505 c0 -18 5 -25 20 -25 15 0 20 7 20 25 0 18 -5 25 -20 25
-15 0 -20 -7 -20 -25z"/>
<path d="M2680 1505 c0 -20 4 -26 18 -23 9 2 17 12 17 23 0 11 -8 21 -17 23
-14 3 -18 -3 -18 -23z"/>
<path d="M2790 1495 c0 -8 9 -15 20 -15 11 0 20 7 20 15 0 8 -9 15 -20 15 -11
0 -20 -7 -20 -15z"/>
<path d="M1628 1383 c6 -2 18 -2 25 0 6 3 1 5 -13 5 -14 0 -19 -2 -12 -5z"/>
<path d="M1620 1350 c0 -5 9 -10 20 -10 11 0 20 5 20 10 0 6 -9 10 -20 10 -11
0 -20 -4 -20 -10z"/>
<path d="M1720 1365 c0 -18 5 -25 20 -25 15 0 20 7 20 25 0 18 -5 25 -20 25
-15 0 -20 -7 -20 -25z"/>
<path d="M2053 1383 c9 -2 23 -2 30 0 6 3 -1 5 -18 5 -16 0 -22 -2 -12 -5z"/>
<path d="M2680 1365 c0 -18 5 -25 20 -25 15 0 20 7 20 25 0 18 -5 25 -20 25
-15 0 -20 -7 -20 -25z"/>
<path d="M2680 1225 c0 -18 5 -25 20 -25 15 0 20 7 20 25 0 18 -5 25 -20 25
-15 0 -20 -7 -20 -25z"/>
<path d="M1530 944 c0 -17 22 -14 28 4 2 7 -3 12 -12 12 -9 0 -16 -7 -16 -16z"/>
<path d="M2075 950 c4 -6 11 -8 16 -5 14 9 11 15 -7 15 -8 0 -12 -5 -9 -10z"/>
<path d="M2047 834 c-16 -16 -7 -44 14 -44 15 0 20 5 17 22 -3 22 -19 33 -31
22z"/>
<path d="M2610 935 c0 -18 5 -25 20 -25 15 0 20 7 20 25 0 18 -5 25 -20 25
-15 0 -20 -7 -20 -25z"/>
<path d="M2700 951 c0 -18 18 -21 30 -6 10 13 9 15 -9 15 -11 0 -21 -4 -21 -9z"/>
<path d="M1380 704 c0 -17 22 -14 28 4 2 7 -3 12 -12 12 -9 0 -16 -7 -16 -16z"/>
<path d="M1430 665 c7 -9 15 -13 17 -11 7 7 -7 26 -19 26 -6 0 -6 -6 2 -15z"/>
<path d="M2590 815 c0 -16 6 -25 15 -25 9 0 15 9 15 25 0 16 -6 25 -15 25 -9
0 -15 -9 -15 -25z"/>
<path d="M2860 815 c0 -16 6 -25 15 -25 9 0 15 9 15 25 0 16 -6 25 -15 25 -9
0 -15 -9 -15 -25z"/>
<path d="M2380 690 c0 -11 5 -20 10 -20 6 0 10 9 10 20 0 11 -4 20 -10 20 -5
0 -10 -9 -10 -20z"/>
<path d="M1650 705 c0 -8 7 -15 15 -15 8 0 15 7 15 15 0 8 -7 15 -15 15 -8 0
-15 -7 -15 -15z"/>
<path d="M2010 705 c0 -8 7 -15 15 -15 8 0 15 7 15 15 0 8 -7 15 -15 15 -8 0
-15 -7 -15 -15z"/>
<path d="M2645 700 c-3 -5 3 -10 15 -10 12 0 18 5 15 10 -3 6 -10 10 -15 10
-5 0 -12 -4 -15 -10z"/>
<path d="M4102 5228 c2 -15 10 -23 23 -23 13 0 21 8 23 23 3 18 -1 22 -23 22
-22 0 -26 -4 -23 -22z"/>
<path d="M410 5145 c0 -18 5 -25 20 -25 15 0 20 7 20 25 0 18 -5 25 -20 25
-15 0 -20 -7 -20 -25z"/>
<path d="M160 4940 c0 -15 7 -20 25 -20 18 0 25 5 25 20 0 15 -7 20 -25 20
-18 0 -25 -5 -25 -20z"/>
<path d="M410 4860 c0 -13 7 -20 20 -20 13 0 20 7 20 20 0 13 -7 20 -20 20
-13 0 -20 -7 -20 -20z"/>
<path d="M3737 4594 c-4 -4 -7 -16 -7 -26 0 -13 7 -18 26 -18 21 0 25 4 22 22
-3 23 -27 35 -41 22z"/>
<path d="M2545 4426 c-15 -28 -17 -40 -8 -43 7 -3 15 -20 19 -39 8 -44 18 -50
33 -18 9 22 9 28 -3 38 -8 6 -16 31 -18 55 l-3 45 -20 -38z"/>
<path d="M723 4423 c-21 -4 -23 -10 -23 -60 0 -43 3 -54 14 -50 7 3 19 0 25
-6 18 -18 32 5 33 55 0 45 -7 69 -20 67 -4 -1 -17 -4 -29 -6z"/>
<path d="M204 4335 c-8 -20 4 -35 27 -35 14 0 19 7 19 25 0 18 -5 25 -20 25
-11 0 -23 -7 -26 -15z"/>
<path d="M2800 4295 c-10 -12 -10 -19 -2 -27 7 -7 12 -10 13 -7 3 15 5 49 4
49 -2 0 -8 -7 -15 -15z"/>
<path d="M4100 4286 c0 -21 5 -26 26 -26 21 0 25 4 22 23 -2 14 -11 23 -25 25
-19 3 -23 -1 -23 -22z"/>
<path d="M3530 4233 c0 -44 3 -52 23 -57 l22 -6 -22 -19 c-17 -14 -23 -30 -23
-59 0 -56 20 -70 48 -32 12 16 22 33 22 38 0 5 12 21 27 36 22 22 25 31 16 44
-6 9 -19 16 -28 15 -10 -1 -24 5 -32 13 -8 8 -11 14 -7 14 4 0 -3 9 -15 19
-12 11 -22 22 -21 26 1 4 -1 9 -4 13 -3 3 -6 -17 -6 -45z"/>
<path d="M697 4183 c-3 -16 -1 -32 6 -38 7 -5 21 -23 31 -39 16 -26 20 -28 30
-13 8 9 10 34 7 64 -6 45 -8 48 -37 51 -27 3 -32 -1 -37 -25z"/>
<path d="M620 4164 c-27 -14 -47 -54 -27 -54 8 0 6 -4 -3 -10 -12 -8 -11 -10
5 -10 31 0 65 28 65 55 0 31 -9 35 -40 19z"/>
<path d="M2770 4071 c0 -37 27 -50 36 -16 7 28 -1 45 -22 45 -9 0 -14 -10 -14
-29z"/>
<path d="M3839 4067 c-1 -12 -1 -26 0 -31 9 -44 -31 -73 -104 -78 -49 -3 -48
-8 7 -47 l53 -37 34 50 c18 28 37 55 41 59 9 10 60 -20 60 -35 0 -5 -16 -34
-35 -64 l-35 -55 -30 18 c-16 9 -31 15 -33 12 -2 -2 -18 -25 -35 -51 -32 -46
-39 -68 -24 -68 5 0 17 -6 27 -14 18 -13 18 -14 1 -42 -10 -16 -30 -44 -43
-61 -23 -32 -25 -32 -48 -17 -29 19 -48 10 -39 -18 4 -13 2 -18 -4 -14 -5 3
-21 -9 -36 -28 -22 -29 -23 -36 -11 -46 8 -6 24 -9 37 -6 13 3 17 3 11 0 -7
-3 -13 -12 -13 -19 0 -22 -63 -125 -77 -125 -10 0 -13 -21 -13 -77 1 -65 3
-75 13 -58 6 11 12 23 12 27 0 9 26 47 47 69 9 10 25 30 34 46 10 15 55 84 99
153 45 69 93 145 106 170 13 25 27 46 31 48 11 5 118 171 118 182 0 6 -3 10
-7 10 -5 0 -17 7 -27 15 -18 13 -18 16 -2 40 20 31 18 36 -37 72 -63 43 -77
47 -78 20z"/>
<path d="M3570 3997 c0 -8 9 -17 20 -20 11 -3 20 -10 20 -16 0 -6 -9 -15 -20
-21 -25 -13 -29 -87 -5 -96 15 -6 54 31 55 50 0 5 8 18 17 28 19 22 13 30 -49
67 -30 18 -38 19 -38 8z"/>
<path d="M410 3969 c0 -5 5 -7 10 -4 6 3 10 8 10 11 0 2 -4 4 -10 4 -5 0 -10
-5 -10 -11z"/>
<path d="M2735 3970 c3 -5 8 -10 11 -10 2 0 4 5 4 10 0 6 -5 10 -11 10 -5 0
-7 -4 -4 -10z"/>
<path d="M3980 3955 c0 -18 5 -25 20 -25 15 0 20 7 20 25 0 18 -5 25 -20 25
-15 0 -20 -7 -20 -25z"/>
<path d="M500 3957 c0 -18 44 -77 58 -77 6 0 12 4 12 9 0 5 9 11 20 14 29 8
24 30 -10 45 -39 18 -80 22 -80 9z"/>
<path d="M1964 3820 c-24 -9 -34 -51 -34 -139 0 -65 8 -61 71 35 l43 66 18
-24 c24 -31 23 -35 -19 -101 -33 -51 -41 -57 -64 -52 -24 5 -26 3 -27 -26 -1
-46 14 -79 37 -79 11 0 23 -4 26 -10 3 -5 24 -10 45 -10 49 0 70 27 70 87 0
37 -3 43 -21 43 -21 0 -22 3 -15 93 9 122 7 127 -58 126 -28 0 -60 -4 -72 -9z"/>
<path d="M3608 3794 c3 -19 0 -24 -17 -24 -14 0 -21 -6 -21 -20 0 -13 7 -20
20 -20 13 0 20 7 20 20 0 13 7 20 20 20 18 0 19 -3 10 -20 -6 -11 -15 -20 -20
-20 -6 0 -10 -7 -10 -15 0 -9 -7 -18 -15 -21 -21 -9 -19 -22 6 -29 13 -5 25
-2 31 6 6 10 7 7 3 -8 -11 -39 12 -25 44 27 17 28 31 54 31 58 0 4 -24 22 -53
38 -54 31 -54 31 -49 8z"/>
<path d="M410 3710 c0 -13 7 -20 20 -20 13 0 20 7 20 20 0 13 -7 20 -20 20
-13 0 -20 -7 -20 -20z"/>
<path d="M288 3484 c-12 -11 5 -44 23 -44 14 0 19 7 19 25 0 18 -5 25 -18 25
-10 0 -21 -3 -24 -6z"/>
<path d="M3736 3362 c-3 -3 -6 -14 -6 -24 0 -13 7 -18 26 -18 20 0 25 4 22 22
-3 20 -30 33 -42 20z"/>
<path d="M160 3260 c0 -15 7 -20 25 -20 18 0 25 5 25 20 0 15 -7 20 -25 20
-18 0 -25 -5 -25 -20z"/>
<path d="M4106 2992 c-3 -3 -6 -14 -6 -24 0 -13 7 -18 26 -18 20 0 25 4 22 22
-3 20 -30 33 -42 20z"/>
<path d="M410 2890 c0 -13 7 -20 20 -20 13 0 20 7 20 20 0 13 -7 20 -20 20
-13 0 -20 -7 -20 -20z"/>
<path d="M202 2728 c2 -15 11 -24 26 -26 18 -3 22 1 22 22 0 21 -5 26 -26 26
-21 0 -25 -4 -22 -22z"/>
<path d="M3900 2520 c0 -13 7 -20 20 -20 13 0 20 7 20 20 0 13 -7 20 -20 20
-13 0 -20 -7 -20 -20z"/>
<path d="M207 2253 c-4 -3 -7 -15 -7 -25 0 -13 7 -18 25 -18 20 0 25 5 25 25
0 18 -5 25 -18 25 -10 0 -22 -3 -25 -7z"/>
<path d="M4060 2236 c0 -21 5 -26 26 -26 21 0 25 4 22 23 -2 14 -11 23 -25 25
-19 3 -23 -1 -23 -22z"/>
<path d="M450 2110 c0 -13 7 -20 19 -20 10 0 21 9 24 20 4 16 0 20 -19 20 -17
0 -24 -6 -24 -20z"/>
<path d="M160 1865 c0 -20 5 -25 25 -25 20 0 25 5 25 25 0 20 -5 25 -25 25
-20 0 -25 -5 -25 -25z"/>
<path d="M410 1785 c0 -18 5 -25 20 -25 15 0 20 7 20 25 0 18 -5 25 -20 25
-15 0 -20 -7 -20 -25z"/>
<path d="M3732 1498 c2 -15 10 -23 23 -23 13 0 21 8 23 23 3 18 -1 22 -23 22
-22 0 -26 -4 -23 -22z"/>
<path d="M200 1250 c0 -15 7 -20 25 -20 18 0 25 5 25 20 0 15 -7 20 -25 20
-18 0 -25 -5 -25 -20z"/>
<path d="M4100 1210 c0 -15 7 -20 25 -20 18 0 25 5 25 20 0 15 -7 20 -25 20
-18 0 -25 -5 -25 -20z"/>
<path d="M3980 880 c0 -13 7 -20 20 -20 13 0 20 7 20 20 0 13 -7 20 -20 20
-13 0 -20 -7 -20 -20z"/>
<path d="M410 635 c0 -18 5 -25 20 -25 15 0 20 7 20 25 0 18 -5 25 -20 25 -15
0 -20 -7 -20 -25z"/>
<path d="M284 390 c0 -14 7 -20 23 -20 16 0 23 6 23 20 0 14 -7 20 -23 20 -16
0 -23 -6 -23 -20z"/>
<path d="M3732 268 c2 -15 10 -23 23 -23 13 0 21 8 23 23 3 18 -1 22 -23 22
-22 0 -26 -4 -23 -22z"/>
<path d="M160 185 c0 -20 5 -25 25 -25 20 0 25 5 25 25 0 20 -5 25 -25 25 -20
0 -25 -5 -25 -25z"/>
</g>
</svg>
